<mxfile host="app.diagrams.net" modified="2023-04-11T14:39:46.723Z" agent="5.0 (Windows NT 10.0; Win64; x64) AppleWebKit/537.36 (KHTML, like Gecko) Chrome/111.0.0.0 Safari/537.36" etag="P03ZU1D8-3Shpbyo3Uqk" version="20.8.20" type="github">
  <diagram name="Page-1" id="JPolxJqX3s3lRXvDmGR9">
    <mxGraphModel dx="5949" dy="4044" grid="1" gridSize="10" guides="1" tooltips="1" connect="1" arrows="1" fold="1" page="1" pageScale="1" pageWidth="1169" pageHeight="827" math="0" shadow="0">
      <root>
        <mxCell id="0" />
        <mxCell id="1" parent="0" />
        <UserObject label="" mermaidData="{&#xa;  &quot;data&quot;: &quot;graph LR\n    hazardIdentification[Hazard identification] --&gt; riskAssessment[Risk assessment]\n    riskAssessment --&gt; dataManagement[Data management]\n    dataManagement --&gt; mappingVisualization[Mapping and visualization]\n    mappingVisualization --&gt; mitigationResponsePlanning[Mitigation and response planning]\n\n    subgraph Hazard identification\n        hazardIdentification --&gt; chemicalPlantLocationIdentification[Chemical plant location identification]\n        hazardIdentification --&gt; hazardousMaterialTransportationRouteIdentification[Hazardous material transportation route identification]\n        hazardIdentification --&gt; otherPotentialSourcesOfChemicalHazardsIdentification[Other potential sources of chemical hazards identification]\n    end\n\n    subgraph Risk assessment\n        riskAssessment --&gt; likelihoodAnalysis[Likelihood analysis]\n        riskAssessment --&gt; impactAnalysis[Impact analysis]\n    end\n\n    subgraph Data management\n        dataManagement --&gt; dataOrganization[Data organization]\n        dataManagement --&gt; dataStorage[Data storage]\n        dataManagement --&gt; dataAnalysis[Data analysis]\n    end\n\n    subgraph Mapping and visualization\n        mappingVisualization --&gt; gisSoftware[GIS software]\n    end\n\n    subgraph Mitigation and response planning\n        mitigationResponsePlanning --&gt; evacuationPlanning[Evacuation planning]\n        mitigationResponsePlanning --&gt; emergencyResponseResourceIdentification[Emergency response resource identification]\n        mitigationResponsePlanning --&gt; communicationProtocolEstablishment[Communication protocol establishment]\n    end\n\n    subgraph GIS software\n        gisSoftware --&gt; arcgisSoftware[ArcGIS]\n        gisSoftware --&gt; qgisSoftware[QGIS]\n    end\n\n    subgraph Data storage\n        dataStorage --&gt; databaseServerHardware[Database server]\n    end&quot;,&#xa;  &quot;config&quot;: {&#xa;    &quot;theme&quot;: &quot;neutral&quot;,&#xa;    &quot;arrowMarkerAbsolute&quot;: false,&#xa;    &quot;flowchart&quot;: {&#xa;      &quot;htmlLabels&quot;: false&#xa;    },&#xa;    &quot;sequence&quot;: {&#xa;      &quot;diagramMarginX&quot;: 50,&#xa;      &quot;diagramMarginY&quot;: 10,&#xa;      &quot;actorMargin&quot;: 50,&#xa;      &quot;width&quot;: 150,&#xa;      &quot;height&quot;: 65,&#xa;      &quot;boxMargin&quot;: 10,&#xa;      &quot;boxTextMargin&quot;: 5,&#xa;      &quot;noteMargin&quot;: 10,&#xa;      &quot;messageMargin&quot;: 35,&#xa;      &quot;mirrorActors&quot;: true,&#xa;      &quot;bottomMarginAdj&quot;: 1,&#xa;      &quot;useMaxWidth&quot;: true,&#xa;      &quot;rightAngles&quot;: false,&#xa;      &quot;showSequenceNumbers&quot;: false&#xa;    },&#xa;    &quot;gantt&quot;: {&#xa;      &quot;titleTopMargin&quot;: 25,&#xa;      &quot;barHeight&quot;: 20,&#xa;      &quot;barGap&quot;: 4,&#xa;      &quot;topPadding&quot;: 50,&#xa;      &quot;leftPadding&quot;: 75,&#xa;      &quot;gridLineStartPadding&quot;: 35,&#xa;      &quot;fontSize&quot;: 11,&#xa;      &quot;fontFamily&quot;: &quot;\&quot;Open-Sans\&quot;, \&quot;sans-serif\&quot;&quot;,&#xa;      &quot;numberSectionStyles&quot;: 4,&#xa;      &quot;axisFormat&quot;: &quot;%Y-%m-%d&quot;&#xa;    }&#xa;  }&#xa;}" id="YwqaIVko-Qlb3BSDccb9-2">
          <mxCell style="shape=image;noLabel=1;verticalAlign=top;imageAspect=1;image=data:image/svg+xml,PHN2ZyBhcmlhLXJvbGVkZXNjcmlwdGlvbj0iZmxvd2NoYXJ0LXYyIiB2aWV3Qm94PSItOCAtOCAyMDcyLjg1OTM3NSA3ODgiIHN0eWxlPSJtYXgtd2lkdGg6IDIwNzIuODU5Mzc1cHg7IiB4bWxucz0iaHR0cDovL3d3dy53My5vcmcvMjAwMC9zdmciIHdpZHRoPSIxMDAlIiBpZD0iZ2VNZXJtYWlkT3V0cHV0LTE2ODEyMTEyMTc4MTkiPjxzdHlsZT4jZ2VNZXJtYWlkT3V0cHV0LTE2ODEyMTEyMTc4MTl7Zm9udC1mYW1pbHk6InRyZWJ1Y2hldCBtcyIsdmVyZGFuYSxhcmlhbCxzYW5zLXNlcmlmO2ZvbnQtc2l6ZToxNnB4O2ZpbGw6IzAwMDAwMDt9I2dlTWVybWFpZE91dHB1dC0xNjgxMjExMjE3ODE5IC5lcnJvci1pY29ue2ZpbGw6IzU1MjIyMjt9I2dlTWVybWFpZE91dHB1dC0xNjgxMjExMjE3ODE5IC5lcnJvci10ZXh0e2ZpbGw6IzU1MjIyMjtzdHJva2U6IzU1MjIyMjt9I2dlTWVybWFpZE91dHB1dC0xNjgxMjExMjE3ODE5IC5lZGdlLXRoaWNrbmVzcy1ub3JtYWx7c3Ryb2tlLXdpZHRoOjJweDt9I2dlTWVybWFpZE91dHB1dC0xNjgxMjExMjE3ODE5IC5lZGdlLXRoaWNrbmVzcy10aGlja3tzdHJva2Utd2lkdGg6My41cHg7fSNnZU1lcm1haWRPdXRwdXQtMTY4MTIxMTIxNzgxOSAuZWRnZS1wYXR0ZXJuLXNvbGlke3N0cm9rZS1kYXNoYXJyYXk6MDt9I2dlTWVybWFpZE91dHB1dC0xNjgxMjExMjE3ODE5IC5lZGdlLXBhdHRlcm4tZGFzaGVke3N0cm9rZS1kYXNoYXJyYXk6Mzt9I2dlTWVybWFpZE91dHB1dC0xNjgxMjExMjE3ODE5IC5lZGdlLXBhdHRlcm4tZG90dGVke3N0cm9rZS1kYXNoYXJyYXk6Mjt9I2dlTWVybWFpZE91dHB1dC0xNjgxMjExMjE3ODE5IC5tYXJrZXJ7ZmlsbDojNjY2O3N0cm9rZTojNjY2O30jZ2VNZXJtYWlkT3V0cHV0LTE2ODEyMTEyMTc4MTkgLm1hcmtlci5jcm9zc3tzdHJva2U6IzY2Njt9I2dlTWVybWFpZE91dHB1dC0xNjgxMjExMjE3ODE5IHN2Z3tmb250LWZhbWlseToidHJlYnVjaGV0IG1zIix2ZXJkYW5hLGFyaWFsLHNhbnMtc2VyaWY7Zm9udC1zaXplOjE2cHg7fSNnZU1lcm1haWRPdXRwdXQtMTY4MTIxMTIxNzgxOSAubGFiZWx7Zm9udC1mYW1pbHk6InRyZWJ1Y2hldCBtcyIsdmVyZGFuYSxhcmlhbCxzYW5zLXNlcmlmO2NvbG9yOiMwMDAwMDA7fSNnZU1lcm1haWRPdXRwdXQtMTY4MTIxMTIxNzgxOSAuY2x1c3Rlci1sYWJlbCB0ZXh0e2ZpbGw6IzMzMzt9I2dlTWVybWFpZE91dHB1dC0xNjgxMjExMjE3ODE5IC5jbHVzdGVyLWxhYmVsIHNwYW57Y29sb3I6IzMzMzt9I2dlTWVybWFpZE91dHB1dC0xNjgxMjExMjE3ODE5IC5sYWJlbCB0ZXh0LCNnZU1lcm1haWRPdXRwdXQtMTY4MTIxMTIxNzgxOSBzcGFue2ZpbGw6IzAwMDAwMDtjb2xvcjojMDAwMDAwO30jZ2VNZXJtYWlkT3V0cHV0LTE2ODEyMTEyMTc4MTkgLm5vZGUgcmVjdCwjZ2VNZXJtYWlkT3V0cHV0LTE2ODEyMTEyMTc4MTkgLm5vZGUgY2lyY2xlLCNnZU1lcm1haWRPdXRwdXQtMTY4MTIxMTIxNzgxOSAubm9kZSBlbGxpcHNlLCNnZU1lcm1haWRPdXRwdXQtMTY4MTIxMTIxNzgxOSAubm9kZSBwb2x5Z29uLCNnZU1lcm1haWRPdXRwdXQtMTY4MTIxMTIxNzgxOSAubm9kZSBwYXRoe2ZpbGw6I2VlZTtzdHJva2U6Izk5OTtzdHJva2Utd2lkdGg6MXB4O30jZ2VNZXJtYWlkT3V0cHV0LTE2ODEyMTEyMTc4MTkgLm5vZGUgLmxhYmVse3RleHQtYWxpZ246Y2VudGVyO30jZ2VNZXJtYWlkT3V0cHV0LTE2ODEyMTEyMTc4MTkgLm5vZGUuY2xpY2thYmxle2N1cnNvcjpwb2ludGVyO30jZ2VNZXJtYWlkT3V0cHV0LTE2ODEyMTEyMTc4MTkgLmFycm93aGVhZFBhdGh7ZmlsbDojMzMzMzMzO30jZ2VNZXJtYWlkT3V0cHV0LTE2ODEyMTEyMTc4MTkgLmVkZ2VQYXRoIC5wYXRoe3N0cm9rZTojNjY2O3N0cm9rZS13aWR0aDoyLjBweDt9I2dlTWVybWFpZE91dHB1dC0xNjgxMjExMjE3ODE5IC5mbG93Y2hhcnQtbGlua3tzdHJva2U6IzY2NjtmaWxsOm5vbmU7fSNnZU1lcm1haWRPdXRwdXQtMTY4MTIxMTIxNzgxOSAuZWRnZUxhYmVse2JhY2tncm91bmQtY29sb3I6d2hpdGU7dGV4dC1hbGlnbjpjZW50ZXI7fSNnZU1lcm1haWRPdXRwdXQtMTY4MTIxMTIxNzgxOSAuZWRnZUxhYmVsIHJlY3R7b3BhY2l0eTowLjU7YmFja2dyb3VuZC1jb2xvcjp3aGl0ZTtmaWxsOndoaXRlO30jZ2VNZXJtYWlkT3V0cHV0LTE2ODEyMTEyMTc4MTkgLmNsdXN0ZXIgcmVjdHtmaWxsOmhzbCgwLCAwJSwgOTguOTIxNTY4NjI3NSUpO3N0cm9rZTojNzA3MDcwO3N0cm9rZS13aWR0aDoxcHg7fSNnZU1lcm1haWRPdXRwdXQtMTY4MTIxMTIxNzgxOSAuY2x1c3RlciB0ZXh0e2ZpbGw6IzMzMzt9I2dlTWVybWFpZE91dHB1dC0xNjgxMjExMjE3ODE5IC5jbHVzdGVyIHNwYW57Y29sb3I6IzMzMzt9I2dlTWVybWFpZE91dHB1dC0xNjgxMjExMjE3ODE5IGRpdi5tZXJtYWlkVG9vbHRpcHtwb3NpdGlvbjphYnNvbHV0ZTt0ZXh0LWFsaWduOmNlbnRlcjttYXgtd2lkdGg6MjAwcHg7cGFkZGluZzoycHg7Zm9udC1mYW1pbHk6InRyZWJ1Y2hldCBtcyIsdmVyZGFuYSxhcmlhbCxzYW5zLXNlcmlmO2ZvbnQtc2l6ZToxMnB4O2JhY2tncm91bmQ6aHNsKC0xNjAsIDAlLCA5My4zMzMzMzMzMzMzJSk7Ym9yZGVyOjFweCBzb2xpZCAjNzA3MDcwO2JvcmRlci1yYWRpdXM6MnB4O3BvaW50ZXItZXZlbnRzOm5vbmU7ei1pbmRleDoxMDA7fSNnZU1lcm1haWRPdXRwdXQtMTY4MTIxMTIxNzgxOSAuZmxvd2NoYXJ0VGl0bGVUZXh0e3RleHQtYW5jaG9yOm1pZGRsZTtmb250LXNpemU6MThweDtmaWxsOiMwMDAwMDA7fSNnZU1lcm1haWRPdXRwdXQtMTY4MTIxMTIxNzgxOSA6cm9vdHstLW1lcm1haWQtZm9udC1mYW1pbHk6InRyZWJ1Y2hldCBtcyIsdmVyZGFuYSxhcmlhbCxzYW5zLXNlcmlmO308L3N0eWxlPjxnPjxtYXJrZXIgb3JpZW50PSJhdXRvIiBtYXJrZXJIZWlnaHQ9IjEyIiBtYXJrZXJXaWR0aD0iMTIiIG1hcmtlclVuaXRzPSJ1c2VyU3BhY2VPblVzZSIgcmVmWT0iNSIgcmVmWD0iMTAiIHZpZXdCb3g9IjAgMCAxMCAxMCIgY2xhc3M9Im1hcmtlciBmbG93Y2hhcnQiIGlkPSJmbG93Y2hhcnQtcG9pbnRFbmQiPjxwYXRoIHN0eWxlPSJzdHJva2Utd2lkdGg6IDE7IHN0cm9rZS1kYXNoYXJyYXk6IDEsIDA7IiBjbGFzcz0iYXJyb3dNYXJrZXJQYXRoIiBkPSJNIDAgMCBMIDEwIDUgTCAwIDEwIHoiPjwvcGF0aD48L21hcmtlcj48bWFya2VyIG9yaWVudD0iYXV0byIgbWFya2VySGVpZ2h0PSIxMiIgbWFya2VyV2lkdGg9IjEyIiBtYXJrZXJVbml0cz0idXNlclNwYWNlT25Vc2UiIHJlZlk9IjUiIHJlZlg9IjAiIHZpZXdCb3g9IjAgMCAxMCAxMCIgY2xhc3M9Im1hcmtlciBmbG93Y2hhcnQiIGlkPSJmbG93Y2hhcnQtcG9pbnRTdGFydCI+PHBhdGggc3R5bGU9InN0cm9rZS13aWR0aDogMTsgc3Ryb2tlLWRhc2hhcnJheTogMSwgMDsiIGNsYXNzPSJhcnJvd01hcmtlclBhdGgiIGQ9Ik0gMCA1IEwgMTAgMTAgTCAxMCAwIHoiPjwvcGF0aD48L21hcmtlcj48bWFya2VyIG9yaWVudD0iYXV0byIgbWFya2VySGVpZ2h0PSIxMSIgbWFya2VyV2lkdGg9IjExIiBtYXJrZXJVbml0cz0idXNlclNwYWNlT25Vc2UiIHJlZlk9IjUiIHJlZlg9IjExIiB2aWV3Qm94PSIwIDAgMTAgMTAiIGNsYXNzPSJtYXJrZXIgZmxvd2NoYXJ0IiBpZD0iZmxvd2NoYXJ0LWNpcmNsZUVuZCI+PGNpcmNsZSBzdHlsZT0ic3Ryb2tlLXdpZHRoOiAxOyBzdHJva2UtZGFzaGFycmF5OiAxLCAwOyIgY2xhc3M9ImFycm93TWFya2VyUGF0aCIgcj0iNSIgY3k9IjUiIGN4PSI1Ij48L2NpcmNsZT48L21hcmtlcj48bWFya2VyIG9yaWVudD0iYXV0byIgbWFya2VySGVpZ2h0PSIxMSIgbWFya2VyV2lkdGg9IjExIiBtYXJrZXJVbml0cz0idXNlclNwYWNlT25Vc2UiIHJlZlk9IjUiIHJlZlg9Ii0xIiB2aWV3Qm94PSIwIDAgMTAgMTAiIGNsYXNzPSJtYXJrZXIgZmxvd2NoYXJ0IiBpZD0iZmxvd2NoYXJ0LWNpcmNsZVN0YXJ0Ij48Y2lyY2xlIHN0eWxlPSJzdHJva2Utd2lkdGg6IDE7IHN0cm9rZS1kYXNoYXJyYXk6IDEsIDA7IiBjbGFzcz0iYXJyb3dNYXJrZXJQYXRoIiByPSI1IiBjeT0iNSIgY3g9IjUiPjwvY2lyY2xlPjwvbWFya2VyPjxtYXJrZXIgb3JpZW50PSJhdXRvIiBtYXJrZXJIZWlnaHQ9IjExIiBtYXJrZXJXaWR0aD0iMTEiIG1hcmtlclVuaXRzPSJ1c2VyU3BhY2VPblVzZSIgcmVmWT0iNS4yIiByZWZYPSIxMiIgdmlld0JveD0iMCAwIDExIDExIiBjbGFzcz0ibWFya2VyIGNyb3NzIGZsb3djaGFydCIgaWQ9ImZsb3djaGFydC1jcm9zc0VuZCI+PHBhdGggc3R5bGU9InN0cm9rZS13aWR0aDogMjsgc3Ryb2tlLWRhc2hhcnJheTogMSwgMDsiIGNsYXNzPSJhcnJvd01hcmtlclBhdGgiIGQ9Ik0gMSwxIGwgOSw5IE0gMTAsMSBsIC05LDkiPjwvcGF0aD48L21hcmtlcj48bWFya2VyIG9yaWVudD0iYXV0byIgbWFya2VySGVpZ2h0PSIxMSIgbWFya2VyV2lkdGg9IjExIiBtYXJrZXJVbml0cz0idXNlclNwYWNlT25Vc2UiIHJlZlk9IjUuMiIgcmVmWD0iLTEiIHZpZXdCb3g9IjAgMCAxMSAxMSIgY2xhc3M9Im1hcmtlciBjcm9zcyBmbG93Y2hhcnQiIGlkPSJmbG93Y2hhcnQtY3Jvc3NTdGFydCI+PHBhdGggc3R5bGU9InN0cm9rZS13aWR0aDogMjsgc3Ryb2tlLWRhc2hhcnJheTogMSwgMDsiIGNsYXNzPSJhcnJvd01hcmtlclBhdGgiIGQ9Ik0gMSwxIGwgOSw5IE0gMTAsMSBsIC05LDkiPjwvcGF0aD48L21hcmtlcj48ZyBjbGFzcz0icm9vdCI+PGcgY2xhc3M9ImNsdXN0ZXJzIj48ZyBpZD0ic3ViR3JhcGg2IiBjbGFzcz0iY2x1c3RlciBkZWZhdWx0Ij48cmVjdCBoZWlnaHQ9IjEwNCIgd2lkdGg9IjMwMS43NSIgeT0iODQiIHg9IjEzMjUuOTA2MjUiIHJ5PSIwIiByeD0iMCIgc3R5bGU9IiI+PC9yZWN0PjxnIHRyYW5zZm9ybT0idHJhbnNsYXRlKDE0MzEuMzU1NDY4NzUsIDg0KSIgY2xhc3M9ImNsdXN0ZXItbGFiZWwiPjx0ZXh0IHN0eWxlPSIiPjx0c3BhbiBjbGFzcz0icm93IiB4PSIwIiBkeT0iMWVtIiB4bWw6c3BhY2U9InByZXNlcnZlIj5EYXRhIHN0b3JhZ2U8L3RzcGFuPjwvdGV4dD48L2c+PC9nPjxnIGlkPSJzdWJHcmFwaDUiIGNsYXNzPSJjbHVzdGVyIGRlZmF1bHQiPjxyZWN0IGhlaWdodD0iMTg4IiB3aWR0aD0iMzc5LjIwMzEyNSIgeT0iNTMyIiB4PSIxNjc3LjY1NjI1IiByeT0iMCIgcng9IjAiIHN0eWxlPSIiPjwvcmVjdD48ZyB0cmFuc2Zvcm09InRyYW5zbGF0ZSgxODIxLjkzNzUsIDUzMikiIGNsYXNzPSJjbHVzdGVyLWxhYmVsIj48dGV4dCBzdHlsZT0iIj48dHNwYW4gY2xhc3M9InJvdyIgeD0iMCIgZHk9IjFlbSIgeG1sOnNwYWNlPSJwcmVzZXJ2ZSI+R0lTIHNvZnR3YXJlPC90c3Bhbj48L3RleHQ+PC9nPjwvZz48ZyBpZD0ic3ViR3JhcGg0IiBjbGFzcz0iY2x1c3RlciBkZWZhdWx0Ij48cmVjdCBoZWlnaHQ9IjI3MiIgd2lkdGg9IjczMC45NTMxMjUiIHk9IjIzMCIgeD0iMTMyNS45MDYyNSIgcnk9IjAiIHJ4PSIwIiBzdHlsZT0iIj48L3JlY3Q+PGcgdHJhbnNmb3JtPSJ0cmFuc2xhdGUoMTU3My4wMDc4MTI1LCAyMzApIiBjbGFzcz0iY2x1c3Rlci1sYWJlbCI+PHRleHQgc3R5bGU9IiI+PHRzcGFuIGNsYXNzPSJyb3ciIHg9IjAiIGR5PSIxZW0iIHhtbDpzcGFjZT0icHJlc2VydmUiPk1pdGlnYXRpb24gYW5kIHJlc3BvbnNlIHBsYW5uaW5nPC90c3Bhbj48L3RleHQ+PC9nPjwvZz48ZyBpZD0ic3ViR3JhcGgzIiBjbGFzcz0iY2x1c3RlciBkZWZhdWx0Ij48cmVjdCBoZWlnaHQ9IjE3NiIgd2lkdGg9IjYwMi4xNzE4NzUiIHk9IjUyOCIgeD0iMTAyNS40ODQzNzUiIHJ5PSIwIiByeD0iMCIgc3R5bGU9IiI+PC9yZWN0PjxnIHRyYW5zZm9ybT0idHJhbnNsYXRlKDEyMzMuODU5Mzc1LCA1MjgpIiBjbGFzcz0iY2x1c3Rlci1sYWJlbCI+PHRleHQgc3R5bGU9IiI+PHRzcGFuIGNsYXNzPSJyb3ciIHg9IjAiIGR5PSIxZW0iIHhtbDpzcGFjZT0icHJlc2VydmUiPk1hcHBpbmcgYW5kIHZpc3VhbGl6YXRpb248L3RzcGFuPjwvdGV4dD48L2c+PC9nPjxnIGlkPSJzdWJHcmFwaDIiIGNsYXNzPSJjbHVzdGVyIGRlZmF1bHQiPjxyZWN0IGhlaWdodD0iMjcyIiB3aWR0aD0iNTAwLjAxNTYyNSIgeT0iMCIgeD0iNzc1Ljg5MDYyNSIgcnk9IjAiIHJ4PSIwIiBzdHlsZT0iIj48L3JlY3Q+PGcgdHJhbnNmb3JtPSJ0cmFuc2xhdGUoOTYwLjMzMjAzMTI1LCAwKSIgY2xhc3M9ImNsdXN0ZXItbGFiZWwiPjx0ZXh0IHN0eWxlPSIiPjx0c3BhbiBjbGFzcz0icm93IiB4PSIwIiBkeT0iMWVtIiB4bWw6c3BhY2U9InByZXNlcnZlIj5EYXRhIG1hbmFnZW1lbnQ8L3RzcGFuPjwvdGV4dD48L2c+PC9nPjxnIGlkPSJzdWJHcmFwaDEiIGNsYXNzPSJjbHVzdGVyIGRlZmF1bHQiPjxyZWN0IGhlaWdodD0iMTg4IiB3aWR0aD0iNzMzLjUwNzgxMjUiIHk9IjI5MiIgeD0iMjQxLjk3NjU2MjUiIHJ5PSIwIiByeD0iMCIgc3R5bGU9IiI+PC9yZWN0PjxnIHRyYW5zZm9ybT0idHJhbnNsYXRlKDU1MS43MTQ4NDM3NSwgMjkyKSIgY2xhc3M9ImNsdXN0ZXItbGFiZWwiPjx0ZXh0IHN0eWxlPSIiPjx0c3BhbiBjbGFzcz0icm93IiB4PSIwIiBkeT0iMWVtIiB4bWw6c3BhY2U9InByZXNlcnZlIj5SaXNrIGFzc2Vzc21lbnQ8L3RzcGFuPjwvdGV4dD48L2c+PC9nPjxnIGlkPSJzdWJHcmFwaDAiIGNsYXNzPSJjbHVzdGVyIGRlZmF1bHQiPjxyZWN0IGhlaWdodD0iMjcyIiB3aWR0aD0iNzI1Ljg5MDYyNSIgeT0iNTAwIiB4PSIwIiByeT0iMCIgcng9IjAiIHN0eWxlPSIiPjwvcmVjdD48ZyB0cmFuc2Zvcm09InRyYW5zbGF0ZSgyODYuOTU3MDMxMjUsIDUwMCkiIGNsYXNzPSJjbHVzdGVyLWxhYmVsIj48dGV4dCBzdHlsZT0iIj48dHNwYW4gY2xhc3M9InJvdyIgeD0iMCIgZHk9IjFlbSIgeG1sOnNwYWNlPSJwcmVzZXJ2ZSI+SGF6YXJkIGlkZW50aWZpY2F0aW9uPC90c3Bhbj48L3RleHQ+PC9nPjwvZz48L2c+PGcgY2xhc3M9ImVkZ2VQYXRocyI+PHBhdGggbWFya2VyLWVuZD0idXJsKCNmbG93Y2hhcnQtcG9pbnRFbmQpIiBzdHlsZT0iZmlsbDpub25lOyIgY2xhc3M9ImVkZ2UtdGhpY2tuZXNzLW5vcm1hbCBlZGdlLXBhdHRlcm4tc29saWQgZmxvd2NoYXJ0LWxpbmsgTFMtaGF6YXJkSWRlbnRpZmljYXRpb24gTEUtcmlza0Fzc2Vzc21lbnQiIGlkPSJMLWhhemFyZElkZW50aWZpY2F0aW9uLXJpc2tBc3Nlc3NtZW50LTAiIGQ9Ik0xMzIuMTMzMTYzMDYwODk3NDMsNTg3TDE0Ni4yNzM3Mjk2MzQwODEyLDU3Ni44MzMzMzMzMzMzMzM0QzE2MC40MTQyOTYyMDcyNjQ5NSw1NjYuNjY2NjY2NjY2NjY2NiwxODguNjk1NDI5MzUzNjMyNDgsNTQ2LjMzMzMzMzMzMzMzMzQsMjA3LjAwMjY2MjU5MzQ4MjksNTM2LjE2NjY2NjY2NjY2NjZDMjI1LjMwOTg5NTgzMzMzMzM0LDUyNiwyMzMuNjQzMjI5MTY2NjY2NjYsNTI2LDI3NC4zNjkzMzczNjgzNjA4NSw0OTguNUMzMTUuMDk1NDQ1NTcwMDU0OTUsNDcxLDM4OC4yMTQzMjg2NDAxMDk5LDQxNiw0MjQuNzczNzcwMTc1MTM3NCwzODguNUw0NjEuMzMzMjExNzEwMTY0ODUsMzYxIj48L3BhdGg+PHBhdGggbWFya2VyLWVuZD0idXJsKCNmbG93Y2hhcnQtcG9pbnRFbmQpIiBzdHlsZT0iZmlsbDpub25lOyIgY2xhc3M9ImVkZ2UtdGhpY2tuZXNzLW5vcm1hbCBlZGdlLXBhdHRlcm4tc29saWQgZmxvd2NoYXJ0LWxpbmsgTFMtcmlza0Fzc2Vzc21lbnQgTEUtZGF0YU1hbmFnZW1lbnQiIGlkPSJMLXJpc2tBc3Nlc3NtZW50LWRhdGFNYW5hZ2VtZW50LTAiIGQ9Ik01NDguNDQ5MjE4NzUsMzM3LjA2NzMzODI3MzUxODRMNTc4LjAyMjc4NjQ1ODMzMzQsMzMzLjg4OTQ0ODU2MTI2NTNDNjA3LjU5NjM1NDE2NjY2NjYsMzMwLjcxMTU1ODg0OTAxMjI1LDY2Ni43NDM0ODk1ODMzMzM0LDMyNC4zNTU3Nzk0MjQ1MDYxLDcwMC40ODM3MjM5NTgzMzM0LDMyMS4xNzc4ODk3MTIyNTMwM0M3MzQuMjIzOTU4MzMzMzMzNCwzMTgsNzQyLjU1NzI5MTY2NjY2NjYsMzE4LDc1MC44OTA2MjUsMzE4Qzc1OS4yMjM5NTgzMzMzMzM0LDMxOCw3NjcuNTU3MjkxNjY2NjY2NiwzMTgsNzg2LjMzNzA3MjE3MjYxOTEsMjk3LjVDODA1LjExNjg1MjY3ODU3MTQsMjc3LDgzNC4zNDMwODAzNTcxNDI4LDIzNiw4NDguOTU2MTk0MTk2NDI4NCwyMTUuNUw4NjMuNTY5MzA4MDM1NzE0MiwxOTUiPjwvcGF0aD48cGF0aCBtYXJrZXItZW5kPSJ1cmwoI2Zsb3djaGFydC1wb2ludEVuZCkiIHN0eWxlPSJmaWxsOm5vbmU7IiBjbGFzcz0iZWRnZS10aGlja25lc3Mtbm9ybWFsIGVkZ2UtcGF0dGVybi1zb2xpZCBmbG93Y2hhcnQtbGluayBMUy1kYXRhTWFuYWdlbWVudCBMRS1tYXBwaW5nVmlzdWFsaXphdGlvbiIgaWQ9IkwtZGF0YU1hbmFnZW1lbnQtbWFwcGluZ1Zpc3VhbGl6YXRpb24tMCIgZD0iTTkwMC42MzY3MTg3NSwxOTVMOTEzLjExMTMyODEyNSwyMDMuNUM5MjUuNTg1OTM3NSwyMTIsOTUwLjUzNTE1NjI1LDIyOSw5NjcuMTc2NDMyMjkxNjY2NiwyMzcuNUM5ODMuODE3NzA4MzMzMzMzNCwyNDYsOTkyLjE1MTA0MTY2NjY2NjYsMjQ2LDEwMDAuNDg0Mzc1LDI0NkMxMDA4LjgxNzcwODMzMzMzMzQsMjQ2LDEwMTcuMTUxMDQxNjY2NjY2NiwyNDYsMTA0MS4yMjczNzU0MjIyOTcyLDMwNC44MzMzMzMzMzMzMzMzQzEwNjUuMzAzNzA5MTc3OTI3OSwzNjMuNjY2NjY2NjY2NjY2NywxMTA1LjEyMzA0MzM1NTg1Niw0ODEuMzMzMzMzMzMzMzMzMywxMTI1LjAzMjcxMDQ0NDgyLDU0MC4xNjY2NjY2NjY2NjY2TDExNDQuOTQyMzc3NTMzNzgzOSw1OTkiPjwvcGF0aD48cGF0aCBtYXJrZXItZW5kPSJ1cmwoI2Zsb3djaGFydC1wb2ludEVuZCkiIHN0eWxlPSJmaWxsOm5vbmU7IiBjbGFzcz0iZWRnZS10aGlja25lc3Mtbm9ybWFsIGVkZ2UtcGF0dGVybi1zb2xpZCBmbG93Y2hhcnQtbGluayBMUy1tYXBwaW5nVmlzdWFsaXphdGlvbiBMRS1taXRpZ2F0aW9uUmVzcG9uc2VQbGFubmluZyIgaWQ9IkwtbWFwcGluZ1Zpc3VhbGl6YXRpb24tbWl0aWdhdGlvblJlc3BvbnNlUGxhbm5pbmctMCIgZD0iTTExOTEuNjI5NjU3NDUxOTIzLDU5OUwxMjA1LjY3NTc1NjIwOTkzNTgsNTkzLjE2NjY2NjY2NjY2NjZDMTIxOS43MjE4NTQ5Njc5NDg3LDU4Ny4zMzMzMzMzMzMzMzM0LDEyNDcuODE0MDUyNDgzOTc0NCw1NzUuNjY2NjY2NjY2NjY2NiwxMjY2LjAyNjgxNzkwODY1MzgsNTY5LjgzMzMzMzMzMzMzMzRDMTI4NC4yMzk1ODMzMzMzMzMzLDU2NCwxMjkyLjU3MjkxNjY2NjY2NjcsNTY0LDEzMDAuOTA2MjUsNTY0QzEzMDkuMjM5NTgzMzMzMzMzMyw1NjQsMTMxNy41NzI5MTY2NjY2NjY3LDU2NCwxMzQ0LjcyNjQzMDk3NjQzMSw1MzMuODMzMzMzMzMzMzMzNEMxMzcxLjg3OTk0NTI4NjE5NTIsNTAzLjY2NjY2NjY2NjY2NjcsMTQxNy44NTM2NDA1NzIzOTA1LDQ0My4zMzMzMzMzMzMzMzMzLDE0NDAuODQwNDg4MjE1NDg4Miw0MTMuMTY2NjY2NjY2NjY2N0wxNDYzLjgyNzMzNTg1ODU4NiwzODMiPjwvcGF0aD48cGF0aCBtYXJrZXItZW5kPSJ1cmwoI2Zsb3djaGFydC1wb2ludEVuZCkiIHN0eWxlPSJmaWxsOm5vbmU7IiBjbGFzcz0iZWRnZS10aGlja25lc3Mtbm9ybWFsIGVkZ2UtcGF0dGVybi1zb2xpZCBmbG93Y2hhcnQtbGluayBMUy1oYXphcmRJZGVudGlmaWNhdGlvbiBMRS1jaGVtaWNhbFBsYW50TG9jYXRpb25JZGVudGlmaWNhdGlvbiIgaWQ9IkwtaGF6YXJkSWRlbnRpZmljYXRpb24tY2hlbWljYWxQbGFudExvY2F0aW9uSWRlbnRpZmljYXRpb24tMCIgZD0iTTE0My45NTU2MDM5NjYzNDYxNiw1ODdMMTU2LjEyNTc2MzcyMTk1NTE0LDU4MS4xNjY2NjY2NjY2NjY2QzE2OC4yOTU5MjM0Nzc1NjQxMiw1NzUuMzMzMzMzMzMzMzMzNCwxOTIuNjM2MjQyOTg4NzgyMDcsNTYzLjY2NjY2NjY2NjY2NjYsMjA4Ljk3MzA2OTQxMTA1NzcsNTU3LjgzMzMzMzMzMzMzMzRDMjI1LjMwOTg5NTgzMzMzMzM0LDU1MiwyMzMuNjQzMjI5MTY2NjY2NjYsNTUyLDI1NC4xNzUxMzAyMDgzMzMzNCw1NTJDMjc0LjcwNzAzMTI1LDU1MiwzMDcuNDM3NSw1NTIsMzIzLjgwMjczNDM3NSw1NTJMMzQwLjE2Nzk2ODc1LDU1MiI+PC9wYXRoPjxwYXRoIG1hcmtlci1lbmQ9InVybCgjZmxvd2NoYXJ0LXBvaW50RW5kKSIgc3R5bGU9ImZpbGw6bm9uZTsiIGNsYXNzPSJlZGdlLXRoaWNrbmVzcy1ub3JtYWwgZWRnZS1wYXR0ZXJuLXNvbGlkIGZsb3djaGFydC1saW5rIExTLWhhemFyZElkZW50aWZpY2F0aW9uIExFLWhhemFyZG91c01hdGVyaWFsVHJhbnNwb3J0YXRpb25Sb3V0ZUlkZW50aWZpY2F0aW9uIiBpZD0iTC1oYXphcmRJZGVudGlmaWNhdGlvbi1oYXphcmRvdXNNYXRlcmlhbFRyYW5zcG9ydGF0aW9uUm91dGVJZGVudGlmaWNhdGlvbi0wIiBkPSJNMTY2LjEyMjY4MDY2NDA2MjUsNjIxTDE3NC41OTgzMjc2MzY3MTg3NSw2MjMuNUMxODMuMDczOTc0NjA5Mzc1LDYyNiwyMDAuMDI1MjY4NTU0Njg3NSw2MzEsMjEyLjY2NzU4MjE5NDAxMDQsNjMzLjVDMjI1LjMwOTg5NTgzMzMzMzM0LDYzNiwyMzMuNjQzMjI5MTY2NjY2NjYsNjM2LDI0NC4xODQ4OTU4MzMzMzMzNCw2MzZDMjU0LjcyNjU2MjUsNjM2LDI2Ny40NzY1NjI1LDYzNiwyNzMuODUxNTYyNSw2MzZMMjgwLjIyNjU2MjUsNjM2Ij48L3BhdGg+PHBhdGggbWFya2VyLWVuZD0idXJsKCNmbG93Y2hhcnQtcG9pbnRFbmQpIiBzdHlsZT0iZmlsbDpub25lOyIgY2xhc3M9ImVkZ2UtdGhpY2tuZXNzLW5vcm1hbCBlZGdlLXBhdHRlcm4tc29saWQgZmxvd2NoYXJ0LWxpbmsgTFMtaGF6YXJkSWRlbnRpZmljYXRpb24gTEUtb3RoZXJQb3RlbnRpYWxTb3VyY2VzT2ZDaGVtaWNhbEhhemFyZHNJZGVudGlmaWNhdGlvbiIgaWQ9IkwtaGF6YXJkSWRlbnRpZmljYXRpb24tb3RoZXJQb3RlbnRpYWxTb3VyY2VzT2ZDaGVtaWNhbEhhemFyZHNJZGVudGlmaWNhdGlvbi0wIiBkPSJNMTI0LjM4NzQyNTkxNTk0ODI3LDYyMUwxMzkuODE4OTQ4Njc5OTU2OSw2MzcuNUMxNTUuMjUwNDcxNDQzOTY1NSw2NTQsMTg2LjExMzUxNjk3MTk4Mjc2LDY4NywyMDUuNzExNzA2NDAyNjU4MDUsNzAzLjVDMjI1LjMwOTg5NTgzMzMzMzM0LDcyMCwyMzMuNjQzMjI5MTY2NjY2NjYsNzIwLDI0MS45NzY1NjI1LDcyMEMyNTAuMzA5ODk1ODMzMzMzMzQsNzIwLDI1OC42NDMyMjkxNjY2NjY3LDcyMCwyNjIuODA5ODk1ODMzMzMzMyw3MjBMMjY2Ljk3NjU2MjUsNzIwIj48L3BhdGg+PHBhdGggbWFya2VyLWVuZD0idXJsKCNmbG93Y2hhcnQtcG9pbnRFbmQpIiBzdHlsZT0iZmlsbDpub25lOyIgY2xhc3M9ImVkZ2UtdGhpY2tuZXNzLW5vcm1hbCBlZGdlLXBhdHRlcm4tc29saWQgZmxvd2NoYXJ0LWxpbmsgTFMtcmlza0Fzc2Vzc21lbnQgTEUtbGlrZWxpaG9vZEFuYWx5c2lzIiBpZD0iTC1yaXNrQXNzZXNzbWVudC1saWtlbGlob29kQW5hbHlzaXMtMCIgZD0iTTU0OC40NDkyMTg3NSwzNDRMNTc4LjAyMjc4NjQ1ODMzMzQsMzQ0QzYwNy41OTYzNTQxNjY2NjY2LDM0NCw2NjYuNzQzNDg5NTgzMzMzNCwzNDQsNzAwLjQ4MzcyMzk1ODMzMzQsMzQ0QzczNC4yMjM5NTgzMzMzMzM0LDM0NCw3NDIuNTU3MjkxNjY2NjY2NiwzNDQsNzUwLjg5MDYyNSwzNDRDNzU5LjIyMzk1ODMzMzMzMzQsMzQ0LDc2Ny41NTcyOTE2NjY2NjY2LDM0NCw3NzUuODkwNjI1LDM0NEM3ODQuMjIzOTU4MzMzMzMzNCwzNDQsNzkyLjU1NzI5MTY2NjY2NjYsMzQ0LDc5Ni43MjM5NTgzMzMzMzM0LDM0NEw4MDAuODkwNjI1LDM0NCI+PC9wYXRoPjxwYXRoIG1hcmtlci1lbmQ9InVybCgjZmxvd2NoYXJ0LXBvaW50RW5kKSIgc3R5bGU9ImZpbGw6bm9uZTsiIGNsYXNzPSJlZGdlLXRoaWNrbmVzcy1ub3JtYWwgZWRnZS1wYXR0ZXJuLXNvbGlkIGZsb3djaGFydC1saW5rIExTLXJpc2tBc3Nlc3NtZW50IExFLWltcGFjdEFuYWx5c2lzIiBpZD0iTC1yaXNrQXNzZXNzbWVudC1pbXBhY3RBbmFseXNpcy0wIiBkPSJNNTMyLjkwMTA4ODE2OTY0MjksMzYxTDU2NS4wNjYwMTA5NzQ3MDI0LDM3Mi4xNjY2NjY2NjY2NjY3QzU5Ny4yMzA5MzM3Nzk3NjE5LDM4My4zMzMzMzMzMzMzMzMzLDY2MS41NjA3NzkzODk4ODEsNDA1LjY2NjY2NjY2NjY2NjcsNjk3Ljg5MjM2ODg2MTYwNzIsNDE2LjgzMzMzMzMzMzMzMzNDNzM0LjIyMzk1ODMzMzMzMzQsNDI4LDc0Mi41NTcyOTE2NjY2NjY2LDQyOCw3NTAuODkwNjI1LDQyOEM3NTkuMjIzOTU4MzMzMzMzNCw0MjgsNzY3LjU1NzI5MTY2NjY2NjYsNDI4LDc3Ny45MTE0NTgzMzMzMzM0LDQyOEM3ODguMjY1NjI1LDQyOCw4MDAuNjQwNjI1LDQyOCw4MDYuODI4MTI1LDQyOEw4MTMuMDE1NjI1LDQyOCI+PC9wYXRoPjxwYXRoIG1hcmtlci1lbmQ9InVybCgjZmxvd2NoYXJ0LXBvaW50RW5kKSIgc3R5bGU9ImZpbGw6bm9uZTsiIGNsYXNzPSJlZGdlLXRoaWNrbmVzcy1ub3JtYWwgZWRnZS1wYXR0ZXJuLXNvbGlkIGZsb3djaGFydC1saW5rIExTLWRhdGFNYW5hZ2VtZW50IExFLWRhdGFPcmdhbml6YXRpb24iIGlkPSJMLWRhdGFNYW5hZ2VtZW50LWRhdGFPcmdhbml6YXRpb24tMCIgZD0iTTg4OS4xNTIxNTc3MzgwOTUyLDE2MUw5MDMuNTQwODYwNjE1MDc5NCwxNDIuODMzMzMzMzMzMzMzMzRDOTE3LjkyOTU2MzQ5MjA2MzUsMTI0LjY2NjY2NjY2NjY2NjY3LDk0Ni43MDY5NjkyNDYwMzE4LDg4LjMzMzMzMzMzMzMzMzMzLDk2NS4yNjIzMzg3ODk2ODI1LDcwLjE2NjY2NjY2NjY2NjY3Qzk4My44MTc3MDgzMzMzMzM0LDUyLDk5Mi4xNTEwNDE2NjY2NjY2LDUyLDEwMDAuNDg0Mzc1LDUyQzEwMDguODE3NzA4MzMzMzMzNCw1MiwxMDE3LjE1MTA0MTY2NjY2NjYsNTIsMTAzMC4zNjcxODc1LDUyQzEwNDMuNTgzMzMzMzMzMzMzMyw1MiwxMDYxLjY4MjI5MTY2NjY2NjcsNTIsMTA3MC43MzE3NzA4MzMzMzMzLDUyTDEwNzkuNzgxMjUsNTIiPjwvcGF0aD48cGF0aCBtYXJrZXItZW5kPSJ1cmwoI2Zsb3djaGFydC1wb2ludEVuZCkiIHN0eWxlPSJmaWxsOm5vbmU7IiBjbGFzcz0iZWRnZS10aGlja25lc3Mtbm9ybWFsIGVkZ2UtcGF0dGVybi1zb2xpZCBmbG93Y2hhcnQtbGluayBMUy1kYXRhTWFuYWdlbWVudCBMRS1kYXRhU3RvcmFnZSIgaWQ9IkwtZGF0YU1hbmFnZW1lbnQtZGF0YVN0b3JhZ2UtMCIgZD0iTTkxNi4wODE0NzMyMTQyODU3LDE2MUw5MjUuOTgxOTU2ODQ1MjM4MSwxNTYuODMzMzMzMzMzMzMzMzRDOTM1Ljg4MjQ0MDQ3NjE5MDUsMTUyLjY2NjY2NjY2NjY2NjY2LDk1NS42ODM0MDc3MzgwOTUzLDE0NC4zMzMzMzMzMzMzMzMzNCw5NjkuNzUwNTU4MDM1NzE0MiwxNDAuMTY2NjY2NjY2NjY2NjZDOTgzLjgxNzcwODMzMzMzMzQsMTM2LDk5Mi4xNTEwNDE2NjY2NjY2LDEzNiwxMDAwLjQ4NDM3NSwxMzZDMTAwOC44MTc3MDgzMzMzMzM0LDEzNiwxMDE3LjE1MTA0MTY2NjY2NjYsMTM2LDEwMzMuMzY1MjM0Mzc1LDEzNkMxMDQ5LjU3OTQyNzA4MzMzMzMsMTM2LDEwNzMuNjc0NDc5MTY2NjY2NywxMzYsMTA4NS43MjIwMDUyMDgzMzMzLDEzNkwxMDk3Ljc2OTUzMTI1LDEzNiI+PC9wYXRoPjxwYXRoIG1hcmtlci1lbmQ9InVybCgjZmxvd2NoYXJ0LXBvaW50RW5kKSIgc3R5bGU9ImZpbGw6bm9uZTsiIGNsYXNzPSJlZGdlLXRoaWNrbmVzcy1ub3JtYWwgZWRnZS1wYXR0ZXJuLXNvbGlkIGZsb3djaGFydC1saW5rIExTLWRhdGFNYW5hZ2VtZW50IExFLWRhdGFBbmFseXNpcyIgaWQ9IkwtZGF0YU1hbmFnZW1lbnQtZGF0YUFuYWx5c2lzLTAiIGQ9Ik05MTYuMDgxNDczMjE0Mjg1NywxOTVMOTI1Ljk4MTk1Njg0NTIzODEsMTk5LjE2NjY2NjY2NjY2NjY2QzkzNS44ODI0NDA0NzYxOTA1LDIwMy4zMzMzMzMzMzMzMzMzNCw5NTUuNjgzNDA3NzM4MDk1MywyMTEuNjY2NjY2NjY2NjY2NjYsOTY5Ljc1MDU1ODAzNTcxNDIsMjE1LjgzMzMzMzMzMzMzMzM0Qzk4My44MTc3MDgzMzMzMzM0LDIyMCw5OTIuMTUxMDQxNjY2NjY2NiwyMjAsMTAwMC40ODQzNzUsMjIwQzEwMDguODE3NzA4MzMzMzMzNCwyMjAsMTAxNy4xNTEwNDE2NjY2NjY2LDIyMCwxMDMzLjEwMzUxNTYyNSwyMjBDMTA0OS4wNTU5ODk1ODMzMzMzLDIyMCwxMDcyLjYyNzYwNDE2NjY2NjcsMjIwLDEwODQuNDEzNDExNDU4MzMzMywyMjBMMTA5Ni4xOTkyMTg3NSwyMjAiPjwvcGF0aD48cGF0aCBtYXJrZXItZW5kPSJ1cmwoI2Zsb3djaGFydC1wb2ludEVuZCkiIHN0eWxlPSJmaWxsOm5vbmU7IiBjbGFzcz0iZWRnZS10aGlja25lc3Mtbm9ybWFsIGVkZ2UtcGF0dGVybi1zb2xpZCBmbG93Y2hhcnQtbGluayBMUy1tYXBwaW5nVmlzdWFsaXphdGlvbiBMRS1naXNTb2Z0d2FyZSIgaWQ9IkwtbWFwcGluZ1Zpc3VhbGl6YXRpb24tZ2lzU29mdHdhcmUtMCIgZD0iTTEyNTAuOTA2MjUsNjI0LjAwMzM2OTMxNDI4MjJMMTI1NS4wNzI5MTY2NjY2NjY3LDYyNC4zMzYxNDEwOTUyMzUxQzEyNTkuMjM5NTgzMzMzMzMzMyw2MjQuNjY4OTEyODc2MTg4MSwxMjY3LjU3MjkxNjY2NjY2NjcsNjI1LjMzNDQ1NjQzODA5NDEsMTI3NS45MDYyNSw2MjUuNjY3MjI4MjE5MDQ3QzEyODQuMjM5NTgzMzMzMzMzMyw2MjYsMTI5Mi41NzI5MTY2NjY2NjY3LDYyNiwxMzAwLjkwNjI1LDYyNkMxMzA5LjIzOTU4MzMzMzMzMzMsNjI2LDEzMTcuNTcyOTE2NjY2NjY2Nyw2MjYsMTMzOC4wODIwMzEyNSw2MjZDMTM1OC41OTExNDU4MzMzMzMzLDYyNiwxMzkxLjI3NjA0MTY2NjY2NjcsNjI2LDE0MDcuNjE4NDg5NTgzMzMzMyw2MjZMMTQyMy45NjA5Mzc1LDYyNiI+PC9wYXRoPjxwYXRoIG1hcmtlci1lbmQ9InVybCgjZmxvd2NoYXJ0LXBvaW50RW5kKSIgc3R5bGU9ImZpbGw6bm9uZTsiIGNsYXNzPSJlZGdlLXRoaWNrbmVzcy1ub3JtYWwgZWRnZS1wYXR0ZXJuLXNvbGlkIGZsb3djaGFydC1saW5rIExTLW1pdGlnYXRpb25SZXNwb25zZVBsYW5uaW5nIExFLWV2YWN1YXRpb25QbGFubmluZyIgaWQ9IkwtbWl0aWdhdGlvblJlc3BvbnNlUGxhbm5pbmctZXZhY3VhdGlvblBsYW5uaW5nLTAiIGQ9Ik0xNTA3LjMxNTQ3NjE5MDQ3NjEsMzQ5TDE1MjcuMzcyMjcxODI1Mzk2OSwzMzcuODMzMzMzMzMzMzMzM0MxNTQ3LjQyOTA2NzQ2MDMxNzQsMzI2LjY2NjY2NjY2NjY2NjcsMTU4Ny41NDI2NTg3MzAxNTg4LDMwNC4zMzMzMzMzMzMzMzMzLDE2MTEuNzY2MTIxMDMxNzQ2MywyOTMuMTY2NjY2NjY2NjY2N0MxNjM1Ljk4OTU4MzMzMzMzMzMsMjgyLDE2NDQuMzIyOTE2NjY2NjY2NywyODIsMTY1Mi42NTYyNSwyODJDMTY2MC45ODk1ODMzMzMzMzMzLDI4MiwxNjY5LjMyMjkxNjY2NjY2NjcsMjgyLDE2OTEuODU2NzcwODMzMzMzMywyODJDMTcxNC4zOTA2MjUsMjgyLDE3NTEuMTI1LDI4MiwxNzY5LjQ5MjE4NzUsMjgyTDE3ODcuODU5Mzc1LDI4MiI+PC9wYXRoPjxwYXRoIG1hcmtlci1lbmQ9InVybCgjZmxvd2NoYXJ0LXBvaW50RW5kKSIgc3R5bGU9ImZpbGw6bm9uZTsiIGNsYXNzPSJlZGdlLXRoaWNrbmVzcy1ub3JtYWwgZWRnZS1wYXR0ZXJuLXNvbGlkIGZsb3djaGFydC1saW5rIExTLW1pdGlnYXRpb25SZXNwb25zZVBsYW5uaW5nIExFLWVtZXJnZW5jeVJlc3BvbnNlUmVzb3VyY2VJZGVudGlmaWNhdGlvbiIgaWQ9IkwtbWl0aWdhdGlvblJlc3BvbnNlUGxhbm5pbmctZW1lcmdlbmN5UmVzcG9uc2VSZXNvdXJjZUlkZW50aWZpY2F0aW9uLTAiIGQ9Ik0xNjAyLjY1NjI1LDM2NkwxNjA2LjgyMjkxNjY2NjY2NjcsMzY2QzE2MTAuOTg5NTgzMzMzMzMzMywzNjYsMTYxOS4zMjI5MTY2NjY2NjY3LDM2NiwxNjI3LjY1NjI1LDM2NkMxNjM1Ljk4OTU4MzMzMzMzMzMsMzY2LDE2NDQuMzIyOTE2NjY2NjY2NywzNjYsMTY1Mi42NTYyNSwzNjZDMTY2MC45ODk1ODMzMzMzMzMzLDM2NiwxNjY5LjMyMjkxNjY2NjY2NjcsMzY2LDE2NzcuNjU2MjUsMzY2QzE2ODUuOTg5NTgzMzMzMzMzMywzNjYsMTY5NC4zMjI5MTY2NjY2NjY3LDM2NiwxNjk4LjQ4OTU4MzMzMzMzMzMsMzY2TDE3MDIuNjU2MjUsMzY2Ij48L3BhdGg+PHBhdGggbWFya2VyLWVuZD0idXJsKCNmbG93Y2hhcnQtcG9pbnRFbmQpIiBzdHlsZT0iZmlsbDpub25lOyIgY2xhc3M9ImVkZ2UtdGhpY2tuZXNzLW5vcm1hbCBlZGdlLXBhdHRlcm4tc29saWQgZmxvd2NoYXJ0LWxpbmsgTFMtbWl0aWdhdGlvblJlc3BvbnNlUGxhbm5pbmcgTEUtY29tbXVuaWNhdGlvblByb3RvY29sRXN0YWJsaXNobWVudCIgaWQ9IkwtbWl0aWdhdGlvblJlc3BvbnNlUGxhbm5pbmctY29tbXVuaWNhdGlvblByb3RvY29sRXN0YWJsaXNobWVudC0wIiBkPSJNMTUwNy4zMTU0NzYxOTA0NzYxLDM4M0wxNTI3LjM3MjI3MTgyNTM5NjksMzk0LjE2NjY2NjY2NjY2NjdDMTU0Ny40MjkwNjc0NjAzMTc0LDQwNS4zMzMzMzMzMzMzMzMzLDE1ODcuNTQyNjU4NzMwMTU4OCw0MjcuNjY2NjY2NjY2NjY2NywxNjExLjc2NjEyMTAzMTc0NjMsNDM4LjgzMzMzMzMzMzMzMzNDMTYzNS45ODk1ODMzMzMzMzMzLDQ1MCwxNjQ0LjMyMjkxNjY2NjY2NjcsNDUwLDE2NTIuNjU2MjUsNDUwQzE2NjAuOTg5NTgzMzMzMzMzMyw0NTAsMTY2OS4zMjI5MTY2NjY2NjY3LDQ1MCwxNjgwLjM0MzA5ODk1ODMzMzMsNDUwQzE2OTEuMzYzMjgxMjUsNDUwLDE3MDUuMDcwMzEyNSw0NTAsMTcxMS45MjM4MjgxMjUsNDUwTDE3MTguNzc3MzQzNzUsNDUwIj48L3BhdGg+PHBhdGggbWFya2VyLWVuZD0idXJsKCNmbG93Y2hhcnQtcG9pbnRFbmQpIiBzdHlsZT0iZmlsbDpub25lOyIgY2xhc3M9ImVkZ2UtdGhpY2tuZXNzLW5vcm1hbCBlZGdlLXBhdHRlcm4tc29saWQgZmxvd2NoYXJ0LWxpbmsgTFMtZ2lzU29mdHdhcmUgTEUtYXJjZ2lzU29mdHdhcmUiIGlkPSJMLWdpc1NvZnR3YXJlLWFyY2dpc1NvZnR3YXJlLTAiIGQ9Ik0xNTI5LjYwMTU2MjUsNjExLjI5NjA4NTMzNTU0MjdMMTU0NS45NDQwMTA0MTY2NjY3LDYwNi43NDY3Mzc3Nzk2MTg5QzE1NjIuMjg2NDU4MzMzMzMzMyw2MDIuMTk3MzkwMjIzNjk1MiwxNTk0Ljk3MTM1NDE2NjY2NjcsNTkzLjA5ODY5NTExMTg0NzUsMTYxNS40ODA0Njg3NSw1ODguNTQ5MzQ3NTU1OTIzOEMxNjM1Ljk4OTU4MzMzMzMzMzMsNTg0LDE2NDQuMzIyOTE2NjY2NjY2Nyw1ODQsMTY1Mi42NTYyNSw1ODRDMTY2MC45ODk1ODMzMzMzMzMzLDU4NCwxNjY5LjMyMjkxNjY2NjY2NjcsNTg0LDE2OTkuODUyMjEzNTQxNjY2Nyw1ODRDMTczMC4zODE1MTA0MTY2NjY3LDU4NCwxNzgzLjEwNjc3MDgzMzMzMzMsNTg0LDE4MDkuNDY5NDAxMDQxNjY2Nyw1ODRMMTgzNS44MzIwMzEyNSw1ODQiPjwvcGF0aD48cGF0aCBtYXJrZXItZW5kPSJ1cmwoI2Zsb3djaGFydC1wb2ludEVuZCkiIHN0eWxlPSJmaWxsOm5vbmU7IiBjbGFzcz0iZWRnZS10aGlja25lc3Mtbm9ybWFsIGVkZ2UtcGF0dGVybi1zb2xpZCBmbG93Y2hhcnQtbGluayBMUy1naXNTb2Z0d2FyZSBMRS1xZ2lzU29mdHdhcmUiIGlkPSJMLWdpc1NvZnR3YXJlLXFnaXNTb2Z0d2FyZS0wIiBkPSJNMTUyOS42MDE1NjI1LDY0MC43MDM5MTQ2NjQ0NTczTDE1NDUuOTQ0MDEwNDE2NjY2Nyw2NDUuMjUzMjYyMjIwMzgxMUMxNTYyLjI4NjQ1ODMzMzMzMzMsNjQ5LjgwMjYwOTc3NjMwNDgsMTU5NC45NzEzNTQxNjY2NjY3LDY1OC45MDEzMDQ4ODgxNTI1LDE2MTUuNDgwNDY4NzUsNjYzLjQ1MDY1MjQ0NDA3NjJDMTYzNS45ODk1ODMzMzMzMzMzLDY2OCwxNjQ0LjMyMjkxNjY2NjY2NjcsNjY4LDE2NTIuNjU2MjUsNjY4QzE2NjAuOTg5NTgzMzMzMzMzMyw2NjgsMTY2OS4zMjI5MTY2NjY2NjY3LDY2OCwxNzAwLjk5OTM0ODk1ODMzMzMsNjY4QzE3MzIuNjc1NzgxMjUsNjY4LDE3ODcuNjk1MzEyNSw2NjgsMTgxNS4yMDUwNzgxMjUsNjY4TDE4NDIuNzE0ODQzNzUsNjY4Ij48L3BhdGg+PHBhdGggbWFya2VyLWVuZD0idXJsKCNmbG93Y2hhcnQtcG9pbnRFbmQpIiBzdHlsZT0iZmlsbDpub25lOyIgY2xhc3M9ImVkZ2UtdGhpY2tuZXNzLW5vcm1hbCBlZGdlLXBhdHRlcm4tc29saWQgZmxvd2NoYXJ0LWxpbmsgTFMtZGF0YVN0b3JhZ2UgTEUtZGF0YWJhc2VTZXJ2ZXJIYXJkd2FyZSIgaWQ9IkwtZGF0YVN0b3JhZ2UtZGF0YWJhc2VTZXJ2ZXJIYXJkd2FyZS0wIiBkPSJNMTIwMy42MjEwOTM3NSwxMzZMMTIxNS42Njg2MTk3OTE2NjY3LDEzNkMxMjI3LjcxNjE0NTgzMzMzMzMsMTM2LDEyNTEuODExMTk3OTE2NjY2NywxMzYsMTI2OC4wMjUzOTA2MjUsMTM2QzEyODQuMjM5NTgzMzMzMzMzMywxMzYsMTI5Mi41NzI5MTY2NjY2NjY3LDEzNiwxMzAwLjkwNjI1LDEzNkMxMzA5LjIzOTU4MzMzMzMzMzMsMTM2LDEzMTcuNTcyOTE2NjY2NjY2NywxMzYsMTMzNi4wMjczNDM3NSwxMzZDMTM1NC40ODE3NzA4MzMzMzMzLDEzNiwxMzgzLjA1NzI5MTY2NjY2NjcsMTM2LDEzOTcuMzQ1MDUyMDgzMzMzMywxMzZMMTQxMS42MzI4MTI1LDEzNiI+PC9wYXRoPjwvZz48ZyBjbGFzcz0iZWRnZUxhYmVscyI+PGcgY2xhc3M9ImVkZ2VMYWJlbCI+PGcgdHJhbnNmb3JtPSJ0cmFuc2xhdGUoMCwgMCkiIGNsYXNzPSJsYWJlbCI+PHJlY3QgaGVpZ2h0PSIwIiB3aWR0aD0iMCIgcnk9IjAiIHJ4PSIwIj48L3JlY3Q+PHRleHQgc3R5bGU9IiI+PHRzcGFuIGNsYXNzPSJyb3ciIHg9IjAiIGR5PSIxZW0iIHhtbDpzcGFjZT0icHJlc2VydmUiPjwvdHNwYW4+PC90ZXh0PjwvZz48L2c+PGcgY2xhc3M9ImVkZ2VMYWJlbCI+PGcgdHJhbnNmb3JtPSJ0cmFuc2xhdGUoMCwgMCkiIGNsYXNzPSJsYWJlbCI+PHJlY3QgaGVpZ2h0PSIwIiB3aWR0aD0iMCIgcnk9IjAiIHJ4PSIwIj48L3JlY3Q+PHRleHQgc3R5bGU9IiI+PHRzcGFuIGNsYXNzPSJyb3ciIHg9IjAiIGR5PSIxZW0iIHhtbDpzcGFjZT0icHJlc2VydmUiPjwvdHNwYW4+PC90ZXh0PjwvZz48L2c+PGcgY2xhc3M9ImVkZ2VMYWJlbCI+PGcgdHJhbnNmb3JtPSJ0cmFuc2xhdGUoMCwgMCkiIGNsYXNzPSJsYWJlbCI+PHJlY3QgaGVpZ2h0PSIwIiB3aWR0aD0iMCIgcnk9IjAiIHJ4PSIwIj48L3JlY3Q+PHRleHQgc3R5bGU9IiI+PHRzcGFuIGNsYXNzPSJyb3ciIHg9IjAiIGR5PSIxZW0iIHhtbDpzcGFjZT0icHJlc2VydmUiPjwvdHNwYW4+PC90ZXh0PjwvZz48L2c+PGcgY2xhc3M9ImVkZ2VMYWJlbCI+PGcgdHJhbnNmb3JtPSJ0cmFuc2xhdGUoMCwgMCkiIGNsYXNzPSJsYWJlbCI+PHJlY3QgaGVpZ2h0PSIwIiB3aWR0aD0iMCIgcnk9IjAiIHJ4PSIwIj48L3JlY3Q+PHRleHQgc3R5bGU9IiI+PHRzcGFuIGNsYXNzPSJyb3ciIHg9IjAiIGR5PSIxZW0iIHhtbDpzcGFjZT0icHJlc2VydmUiPjwvdHNwYW4+PC90ZXh0PjwvZz48L2c+PGcgY2xhc3M9ImVkZ2VMYWJlbCI+PGcgdHJhbnNmb3JtPSJ0cmFuc2xhdGUoMCwgMCkiIGNsYXNzPSJsYWJlbCI+PHJlY3QgaGVpZ2h0PSIwIiB3aWR0aD0iMCIgcnk9IjAiIHJ4PSIwIj48L3JlY3Q+PHRleHQgc3R5bGU9IiI+PHRzcGFuIGNsYXNzPSJyb3ciIHg9IjAiIGR5PSIxZW0iIHhtbDpzcGFjZT0icHJlc2VydmUiPjwvdHNwYW4+PC90ZXh0PjwvZz48L2c+PGcgY2xhc3M9ImVkZ2VMYWJlbCI+PGcgdHJhbnNmb3JtPSJ0cmFuc2xhdGUoMCwgMCkiIGNsYXNzPSJsYWJlbCI+PHJlY3QgaGVpZ2h0PSIwIiB3aWR0aD0iMCIgcnk9IjAiIHJ4PSIwIj48L3JlY3Q+PHRleHQgc3R5bGU9IiI+PHRzcGFuIGNsYXNzPSJyb3ciIHg9IjAiIGR5PSIxZW0iIHhtbDpzcGFjZT0icHJlc2VydmUiPjwvdHNwYW4+PC90ZXh0PjwvZz48L2c+PGcgY2xhc3M9ImVkZ2VMYWJlbCI+PGcgdHJhbnNmb3JtPSJ0cmFuc2xhdGUoMCwgMCkiIGNsYXNzPSJsYWJlbCI+PHJlY3QgaGVpZ2h0PSIwIiB3aWR0aD0iMCIgcnk9IjAiIHJ4PSIwIj48L3JlY3Q+PHRleHQgc3R5bGU9IiI+PHRzcGFuIGNsYXNzPSJyb3ciIHg9IjAiIGR5PSIxZW0iIHhtbDpzcGFjZT0icHJlc2VydmUiPjwvdHNwYW4+PC90ZXh0PjwvZz48L2c+PGcgY2xhc3M9ImVkZ2VMYWJlbCI+PGcgdHJhbnNmb3JtPSJ0cmFuc2xhdGUoMCwgMCkiIGNsYXNzPSJsYWJlbCI+PHJlY3QgaGVpZ2h0PSIwIiB3aWR0aD0iMCIgcnk9IjAiIHJ4PSIwIj48L3JlY3Q+PHRleHQgc3R5bGU9IiI+PHRzcGFuIGNsYXNzPSJyb3ciIHg9IjAiIGR5PSIxZW0iIHhtbDpzcGFjZT0icHJlc2VydmUiPjwvdHNwYW4+PC90ZXh0PjwvZz48L2c+PGcgY2xhc3M9ImVkZ2VMYWJlbCI+PGcgdHJhbnNmb3JtPSJ0cmFuc2xhdGUoMCwgMCkiIGNsYXNzPSJsYWJlbCI+PHJlY3QgaGVpZ2h0PSIwIiB3aWR0aD0iMCIgcnk9IjAiIHJ4PSIwIj48L3JlY3Q+PHRleHQgc3R5bGU9IiI+PHRzcGFuIGNsYXNzPSJyb3ciIHg9IjAiIGR5PSIxZW0iIHhtbDpzcGFjZT0icHJlc2VydmUiPjwvdHNwYW4+PC90ZXh0PjwvZz48L2c+PGcgY2xhc3M9ImVkZ2VMYWJlbCI+PGcgdHJhbnNmb3JtPSJ0cmFuc2xhdGUoMCwgMCkiIGNsYXNzPSJsYWJlbCI+PHJlY3QgaGVpZ2h0PSIwIiB3aWR0aD0iMCIgcnk9IjAiIHJ4PSIwIj48L3JlY3Q+PHRleHQgc3R5bGU9IiI+PHRzcGFuIGNsYXNzPSJyb3ciIHg9IjAiIGR5PSIxZW0iIHhtbDpzcGFjZT0icHJlc2VydmUiPjwvdHNwYW4+PC90ZXh0PjwvZz48L2c+PGcgY2xhc3M9ImVkZ2VMYWJlbCI+PGcgdHJhbnNmb3JtPSJ0cmFuc2xhdGUoMCwgMCkiIGNsYXNzPSJsYWJlbCI+PHJlY3QgaGVpZ2h0PSIwIiB3aWR0aD0iMCIgcnk9IjAiIHJ4PSIwIj48L3JlY3Q+PHRleHQgc3R5bGU9IiI+PHRzcGFuIGNsYXNzPSJyb3ciIHg9IjAiIGR5PSIxZW0iIHhtbDpzcGFjZT0icHJlc2VydmUiPjwvdHNwYW4+PC90ZXh0PjwvZz48L2c+PGcgY2xhc3M9ImVkZ2VMYWJlbCI+PGcgdHJhbnNmb3JtPSJ0cmFuc2xhdGUoMCwgMCkiIGNsYXNzPSJsYWJlbCI+PHJlY3QgaGVpZ2h0PSIwIiB3aWR0aD0iMCIgcnk9IjAiIHJ4PSIwIj48L3JlY3Q+PHRleHQgc3R5bGU9IiI+PHRzcGFuIGNsYXNzPSJyb3ciIHg9IjAiIGR5PSIxZW0iIHhtbDpzcGFjZT0icHJlc2VydmUiPjwvdHNwYW4+PC90ZXh0PjwvZz48L2c+PGcgY2xhc3M9ImVkZ2VMYWJlbCI+PGcgdHJhbnNmb3JtPSJ0cmFuc2xhdGUoMCwgMCkiIGNsYXNzPSJsYWJlbCI+PHJlY3QgaGVpZ2h0PSIwIiB3aWR0aD0iMCIgcnk9IjAiIHJ4PSIwIj48L3JlY3Q+PHRleHQgc3R5bGU9IiI+PHRzcGFuIGNsYXNzPSJyb3ciIHg9IjAiIGR5PSIxZW0iIHhtbDpzcGFjZT0icHJlc2VydmUiPjwvdHNwYW4+PC90ZXh0PjwvZz48L2c+PGcgY2xhc3M9ImVkZ2VMYWJlbCI+PGcgdHJhbnNmb3JtPSJ0cmFuc2xhdGUoMCwgMCkiIGNsYXNzPSJsYWJlbCI+PHJlY3QgaGVpZ2h0PSIwIiB3aWR0aD0iMCIgcnk9IjAiIHJ4PSIwIj48L3JlY3Q+PHRleHQgc3R5bGU9IiI+PHRzcGFuIGNsYXNzPSJyb3ciIHg9IjAiIGR5PSIxZW0iIHhtbDpzcGFjZT0icHJlc2VydmUiPjwvdHNwYW4+PC90ZXh0PjwvZz48L2c+PGcgY2xhc3M9ImVkZ2VMYWJlbCI+PGcgdHJhbnNmb3JtPSJ0cmFuc2xhdGUoMCwgMCkiIGNsYXNzPSJsYWJlbCI+PHJlY3QgaGVpZ2h0PSIwIiB3aWR0aD0iMCIgcnk9IjAiIHJ4PSIwIj48L3JlY3Q+PHRleHQgc3R5bGU9IiI+PHRzcGFuIGNsYXNzPSJyb3ciIHg9IjAiIGR5PSIxZW0iIHhtbDpzcGFjZT0icHJlc2VydmUiPjwvdHNwYW4+PC90ZXh0PjwvZz48L2c+PGcgY2xhc3M9ImVkZ2VMYWJlbCI+PGcgdHJhbnNmb3JtPSJ0cmFuc2xhdGUoMCwgMCkiIGNsYXNzPSJsYWJlbCI+PHJlY3QgaGVpZ2h0PSIwIiB3aWR0aD0iMCIgcnk9IjAiIHJ4PSIwIj48L3JlY3Q+PHRleHQgc3R5bGU9IiI+PHRzcGFuIGNsYXNzPSJyb3ciIHg9IjAiIGR5PSIxZW0iIHhtbDpzcGFjZT0icHJlc2VydmUiPjwvdHNwYW4+PC90ZXh0PjwvZz48L2c+PGcgY2xhc3M9ImVkZ2VMYWJlbCI+PGcgdHJhbnNmb3JtPSJ0cmFuc2xhdGUoMCwgMCkiIGNsYXNzPSJsYWJlbCI+PHJlY3QgaGVpZ2h0PSIwIiB3aWR0aD0iMCIgcnk9IjAiIHJ4PSIwIj48L3JlY3Q+PHRleHQgc3R5bGU9IiI+PHRzcGFuIGNsYXNzPSJyb3ciIHg9IjAiIGR5PSIxZW0iIHhtbDpzcGFjZT0icHJlc2VydmUiPjwvdHNwYW4+PC90ZXh0PjwvZz48L2c+PGcgY2xhc3M9ImVkZ2VMYWJlbCI+PGcgdHJhbnNmb3JtPSJ0cmFuc2xhdGUoMCwgMCkiIGNsYXNzPSJsYWJlbCI+PHJlY3QgaGVpZ2h0PSIwIiB3aWR0aD0iMCIgcnk9IjAiIHJ4PSIwIj48L3JlY3Q+PHRleHQgc3R5bGU9IiI+PHRzcGFuIGNsYXNzPSJyb3ciIHg9IjAiIGR5PSIxZW0iIHhtbDpzcGFjZT0icHJlc2VydmUiPjwvdHNwYW4+PC90ZXh0PjwvZz48L2c+PGcgY2xhc3M9ImVkZ2VMYWJlbCI+PGcgdHJhbnNmb3JtPSJ0cmFuc2xhdGUoMCwgMCkiIGNsYXNzPSJsYWJlbCI+PHJlY3QgaGVpZ2h0PSIwIiB3aWR0aD0iMCIgcnk9IjAiIHJ4PSIwIj48L3JlY3Q+PHRleHQgc3R5bGU9IiI+PHRzcGFuIGNsYXNzPSJyb3ciIHg9IjAiIGR5PSIxZW0iIHhtbDpzcGFjZT0icHJlc2VydmUiPjwvdHNwYW4+PC90ZXh0PjwvZz48L2c+PC9nPjxnIGNsYXNzPSJub2RlcyI+PGcgdHJhbnNmb3JtPSJ0cmFuc2xhdGUoMTQ3Ni43ODEyNSwgMTM2KSIgaWQ9ImZsb3djaGFydC1kYXRhYmFzZVNlcnZlckhhcmR3YXJlLTExMyIgY2xhc3M9Im5vZGUgZGVmYXVsdCBkZWZhdWx0Ij48cmVjdCBoZWlnaHQ9IjM0IiB3aWR0aD0iMTMwLjI5Njg3NSIgeT0iLTE3IiB4PSItNjUuMTQ4NDM3NSIgcnk9IjAiIHJ4PSIwIiBzdHlsZT0iIiBjbGFzcz0iYmFzaWMgbGFiZWwtY29udGFpbmVyIj48L3JlY3Q+PGcgdHJhbnNmb3JtPSJ0cmFuc2xhdGUoLTU3LjY0ODQzNzUsIC05LjUpIiBzdHlsZT0iIiBjbGFzcz0ibGFiZWwiPjx0ZXh0IHN0eWxlPSIiPjx0c3BhbiBjbGFzcz0icm93IiB4PSIwIiBkeT0iMWVtIiB4bWw6c3BhY2U9InByZXNlcnZlIj5EYXRhYmFzZSBzZXJ2ZXI8L3RzcGFuPjwvdGV4dD48L2c+PC9nPjxnIHRyYW5zZm9ybT0idHJhbnNsYXRlKDE4NjcuMjU3ODEyNSwgNTg0KSIgaWQ9ImZsb3djaGFydC1hcmNnaXNTb2Z0d2FyZS0xMDkiIGNsYXNzPSJub2RlIGRlZmF1bHQgZGVmYXVsdCI+PHJlY3QgaGVpZ2h0PSIzNCIgd2lkdGg9IjYyLjg1MTU2MjUiIHk9Ii0xNyIgeD0iLTMxLjQyNTc4MTI1IiByeT0iMCIgcng9IjAiIHN0eWxlPSIiIGNsYXNzPSJiYXNpYyBsYWJlbC1jb250YWluZXIiPjwvcmVjdD48ZyB0cmFuc2Zvcm09InRyYW5zbGF0ZSgtMjMuOTI1NzgxMjUsIC05LjUpIiBzdHlsZT0iIiBjbGFzcz0ibGFiZWwiPjx0ZXh0IHN0eWxlPSIiPjx0c3BhbiBjbGFzcz0icm93IiB4PSIwIiBkeT0iMWVtIiB4bWw6c3BhY2U9InByZXNlcnZlIj5BcmNHSVM8L3RzcGFuPjwvdGV4dD48L2c+PC9nPjxnIHRyYW5zZm9ybT0idHJhbnNsYXRlKDE4NjcuMjU3ODEyNSwgNjY4KSIgaWQ9ImZsb3djaGFydC1xZ2lzU29mdHdhcmUtMTExIiBjbGFzcz0ibm9kZSBkZWZhdWx0IGRlZmF1bHQiPjxyZWN0IGhlaWdodD0iMzQiIHdpZHRoPSI0OS4wODU5Mzc1IiB5PSItMTciIHg9Ii0yNC41NDI5Njg3NSIgcnk9IjAiIHJ4PSIwIiBzdHlsZT0iIiBjbGFzcz0iYmFzaWMgbGFiZWwtY29udGFpbmVyIj48L3JlY3Q+PGcgdHJhbnNmb3JtPSJ0cmFuc2xhdGUoLTE3LjA0Mjk2ODc1LCAtOS41KSIgc3R5bGU9IiIgY2xhc3M9ImxhYmVsIj48dGV4dCBzdHlsZT0iIj48dHNwYW4gY2xhc3M9InJvdyIgeD0iMCIgZHk9IjFlbSIgeG1sOnNwYWNlPSJwcmVzZXJ2ZSI+UUdJUzwvdHNwYW4+PC90ZXh0PjwvZz48L2c+PGcgdHJhbnNmb3JtPSJ0cmFuc2xhdGUoMTg2Ny4yNTc4MTI1LCAyODIpIiBpZD0iZmxvd2NoYXJ0LWV2YWN1YXRpb25QbGFubmluZy0xMDMiIGNsYXNzPSJub2RlIGRlZmF1bHQgZGVmYXVsdCI+PHJlY3QgaGVpZ2h0PSIzNCIgd2lkdGg9IjE1OC43OTY4NzUiIHk9Ii0xNyIgeD0iLTc5LjM5ODQzNzUiIHJ5PSIwIiByeD0iMCIgc3R5bGU9IiIgY2xhc3M9ImJhc2ljIGxhYmVsLWNvbnRhaW5lciI+PC9yZWN0PjxnIHRyYW5zZm9ybT0idHJhbnNsYXRlKC03MS44OTg0Mzc1LCAtOS41KSIgc3R5bGU9IiIgY2xhc3M9ImxhYmVsIj48dGV4dCBzdHlsZT0iIj48dHNwYW4gY2xhc3M9InJvdyIgeD0iMCIgZHk9IjFlbSIgeG1sOnNwYWNlPSJwcmVzZXJ2ZSI+RXZhY3VhdGlvbiBwbGFubmluZzwvdHNwYW4+PC90ZXh0PjwvZz48L2c+PGcgdHJhbnNmb3JtPSJ0cmFuc2xhdGUoMTQ3Ni43ODEyNSwgMzY2KSIgaWQ9ImZsb3djaGFydC1taXRpZ2F0aW9uUmVzcG9uc2VQbGFubmluZy04MyIgY2xhc3M9Im5vZGUgZGVmYXVsdCBkZWZhdWx0Ij48cmVjdCBoZWlnaHQ9IjM0IiB3aWR0aD0iMjUxLjc1IiB5PSItMTciIHg9Ii0xMjUuODc1IiByeT0iMCIgcng9IjAiIHN0eWxlPSIiIGNsYXNzPSJiYXNpYyBsYWJlbC1jb250YWluZXIiPjwvcmVjdD48ZyB0cmFuc2Zvcm09InRyYW5zbGF0ZSgtMTE4LjM3NSwgLTkuNSkiIHN0eWxlPSIiIGNsYXNzPSJsYWJlbCI+PHRleHQgc3R5bGU9IiI+PHRzcGFuIGNsYXNzPSJyb3ciIHg9IjAiIGR5PSIxZW0iIHhtbDpzcGFjZT0icHJlc2VydmUiPk1pdGlnYXRpb24gYW5kIHJlc3BvbnNlIHBsYW5uaW5nPC90c3Bhbj48L3RleHQ+PC9nPjwvZz48ZyB0cmFuc2Zvcm09InRyYW5zbGF0ZSgxODY3LjI1NzgxMjUsIDM2NikiIGlkPSJmbG93Y2hhcnQtZW1lcmdlbmN5UmVzcG9uc2VSZXNvdXJjZUlkZW50aWZpY2F0aW9uLTEwNSIgY2xhc3M9Im5vZGUgZGVmYXVsdCBkZWZhdWx0Ij48cmVjdCBoZWlnaHQ9IjM0IiB3aWR0aD0iMzI5LjIwMzEyNSIgeT0iLTE3IiB4PSItMTY0LjYwMTU2MjUiIHJ5PSIwIiByeD0iMCIgc3R5bGU9IiIgY2xhc3M9ImJhc2ljIGxhYmVsLWNvbnRhaW5lciI+PC9yZWN0PjxnIHRyYW5zZm9ybT0idHJhbnNsYXRlKC0xNTcuMTAxNTYyNSwgLTkuNSkiIHN0eWxlPSIiIGNsYXNzPSJsYWJlbCI+PHRleHQgc3R5bGU9IiI+PHRzcGFuIGNsYXNzPSJyb3ciIHg9IjAiIGR5PSIxZW0iIHhtbDpzcGFjZT0icHJlc2VydmUiPkVtZXJnZW5jeSByZXNwb25zZSByZXNvdXJjZSBpZGVudGlmaWNhdGlvbjwvdHNwYW4+PC90ZXh0PjwvZz48L2c+PGcgdHJhbnNmb3JtPSJ0cmFuc2xhdGUoMTg2Ny4yNTc4MTI1LCA0NTApIiBpZD0iZmxvd2NoYXJ0LWNvbW11bmljYXRpb25Qcm90b2NvbEVzdGFibGlzaG1lbnQtMTA3IiBjbGFzcz0ibm9kZSBkZWZhdWx0IGRlZmF1bHQiPjxyZWN0IGhlaWdodD0iMzQiIHdpZHRoPSIyOTYuOTYwOTM3NSIgeT0iLTE3IiB4PSItMTQ4LjQ4MDQ2ODc1IiByeT0iMCIgcng9IjAiIHN0eWxlPSIiIGNsYXNzPSJiYXNpYyBsYWJlbC1jb250YWluZXIiPjwvcmVjdD48ZyB0cmFuc2Zvcm09InRyYW5zbGF0ZSgtMTQwLjk4MDQ2ODc1LCAtOS41KSIgc3R5bGU9IiIgY2xhc3M9ImxhYmVsIj48dGV4dCBzdHlsZT0iIj48dHNwYW4gY2xhc3M9InJvdyIgeD0iMCIgZHk9IjFlbSIgeG1sOnNwYWNlPSJwcmVzZXJ2ZSI+Q29tbXVuaWNhdGlvbiBwcm90b2NvbCBlc3RhYmxpc2htZW50PC90c3Bhbj48L3RleHQ+PC9nPjwvZz48ZyB0cmFuc2Zvcm09InRyYW5zbGF0ZSgxNDc2Ljc4MTI1LCA2MjYpIiBpZD0iZmxvd2NoYXJ0LWdpc1NvZnR3YXJlLTEwMSIgY2xhc3M9Im5vZGUgZGVmYXVsdCBkZWZhdWx0Ij48cmVjdCBoZWlnaHQ9IjM0IiB3aWR0aD0iMTA1LjY0MDYyNSIgeT0iLTE3IiB4PSItNTIuODIwMzEyNSIgcnk9IjAiIHJ4PSIwIiBzdHlsZT0iIiBjbGFzcz0iYmFzaWMgbGFiZWwtY29udGFpbmVyIj48L3JlY3Q+PGcgdHJhbnNmb3JtPSJ0cmFuc2xhdGUoLTQ1LjMyMDMxMjUsIC05LjUpIiBzdHlsZT0iIiBjbGFzcz0ibGFiZWwiPjx0ZXh0IHN0eWxlPSIiPjx0c3BhbiBjbGFzcz0icm93IiB4PSIwIiBkeT0iMWVtIiB4bWw6c3BhY2U9InByZXNlcnZlIj5HSVMgc29mdHdhcmU8L3RzcGFuPjwvdGV4dD48L2c+PC9nPjxnIHRyYW5zZm9ybT0idHJhbnNsYXRlKDExNTAuNjk1MzEyNSwgNjE2KSIgaWQ9ImZsb3djaGFydC1tYXBwaW5nVmlzdWFsaXphdGlvbi04MSIgY2xhc3M9Im5vZGUgZGVmYXVsdCBkZWZhdWx0Ij48cmVjdCBoZWlnaHQ9IjM0IiB3aWR0aD0iMjAwLjQyMTg3NSIgeT0iLTE3IiB4PSItMTAwLjIxMDkzNzUiIHJ5PSIwIiByeD0iMCIgc3R5bGU9IiIgY2xhc3M9ImJhc2ljIGxhYmVsLWNvbnRhaW5lciI+PC9yZWN0PjxnIHRyYW5zZm9ybT0idHJhbnNsYXRlKC05Mi43MTA5Mzc1LCAtOS41KSIgc3R5bGU9IiIgY2xhc3M9ImxhYmVsIj48dGV4dCBzdHlsZT0iIj48dHNwYW4gY2xhc3M9InJvdyIgeD0iMCIgZHk9IjFlbSIgeG1sOnNwYWNlPSJwcmVzZXJ2ZSI+TWFwcGluZyBhbmQgdmlzdWFsaXphdGlvbjwvdHNwYW4+PC90ZXh0PjwvZz48L2c+PGcgdHJhbnNmb3JtPSJ0cmFuc2xhdGUoMTE1MC42OTUzMTI1LCA1MikiIGlkPSJmbG93Y2hhcnQtZGF0YU9yZ2FuaXphdGlvbi05NSIgY2xhc3M9Im5vZGUgZGVmYXVsdCBkZWZhdWx0Ij48cmVjdCBoZWlnaHQ9IjM0IiB3aWR0aD0iMTQxLjgyODEyNSIgeT0iLTE3IiB4PSItNzAuOTE0MDYyNSIgcnk9IjAiIHJ4PSIwIiBzdHlsZT0iIiBjbGFzcz0iYmFzaWMgbGFiZWwtY29udGFpbmVyIj48L3JlY3Q+PGcgdHJhbnNmb3JtPSJ0cmFuc2xhdGUoLTYzLjQxNDA2MjUsIC05LjUpIiBzdHlsZT0iIiBjbGFzcz0ibGFiZWwiPjx0ZXh0IHN0eWxlPSIiPjx0c3BhbiBjbGFzcz0icm93IiB4PSIwIiBkeT0iMWVtIiB4bWw6c3BhY2U9InByZXNlcnZlIj5EYXRhIG9yZ2FuaXphdGlvbjwvdHNwYW4+PC90ZXh0PjwvZz48L2c+PGcgdHJhbnNmb3JtPSJ0cmFuc2xhdGUoODc1LjY4NzUsIDE3OCkiIGlkPSJmbG93Y2hhcnQtZGF0YU1hbmFnZW1lbnQtNzkiIGNsYXNzPSJub2RlIGRlZmF1bHQgZGVmYXVsdCI+PHJlY3QgaGVpZ2h0PSIzNCIgd2lkdGg9IjE0Ni4xMzI4MTI1IiB5PSItMTciIHg9Ii03My4wNjY0MDYyNSIgcnk9IjAiIHJ4PSIwIiBzdHlsZT0iIiBjbGFzcz0iYmFzaWMgbGFiZWwtY29udGFpbmVyIj48L3JlY3Q+PGcgdHJhbnNmb3JtPSJ0cmFuc2xhdGUoLTY1LjU2NjQwNjI1LCAtOS41KSIgc3R5bGU9IiIgY2xhc3M9ImxhYmVsIj48dGV4dCBzdHlsZT0iIj48dHNwYW4gY2xhc3M9InJvdyIgeD0iMCIgZHk9IjFlbSIgeG1sOnNwYWNlPSJwcmVzZXJ2ZSI+RGF0YSBtYW5hZ2VtZW50PC90c3Bhbj48L3RleHQ+PC9nPjwvZz48ZyB0cmFuc2Zvcm09InRyYW5zbGF0ZSgxMTUwLjY5NTMxMjUsIDEzNikiIGlkPSJmbG93Y2hhcnQtZGF0YVN0b3JhZ2UtOTciIGNsYXNzPSJub2RlIGRlZmF1bHQgZGVmYXVsdCI+PHJlY3QgaGVpZ2h0PSIzNCIgd2lkdGg9IjEwNS44NTE1NjI1IiB5PSItMTciIHg9Ii01Mi45MjU3ODEyNSIgcnk9IjAiIHJ4PSIwIiBzdHlsZT0iIiBjbGFzcz0iYmFzaWMgbGFiZWwtY29udGFpbmVyIj48L3JlY3Q+PGcgdHJhbnNmb3JtPSJ0cmFuc2xhdGUoLTQ1LjQyNTc4MTI1LCAtOS41KSIgc3R5bGU9IiIgY2xhc3M9ImxhYmVsIj48dGV4dCBzdHlsZT0iIj48dHNwYW4gY2xhc3M9InJvdyIgeD0iMCIgZHk9IjFlbSIgeG1sOnNwYWNlPSJwcmVzZXJ2ZSI+RGF0YSBzdG9yYWdlPC90c3Bhbj48L3RleHQ+PC9nPjwvZz48ZyB0cmFuc2Zvcm09InRyYW5zbGF0ZSgxMTUwLjY5NTMxMjUsIDIyMCkiIGlkPSJmbG93Y2hhcnQtZGF0YUFuYWx5c2lzLTk5IiBjbGFzcz0ibm9kZSBkZWZhdWx0IGRlZmF1bHQiPjxyZWN0IGhlaWdodD0iMzQiIHdpZHRoPSIxMDguOTkyMTg3NSIgeT0iLTE3IiB4PSItNTQuNDk2MDkzNzUiIHJ5PSIwIiByeD0iMCIgc3R5bGU9IiIgY2xhc3M9ImJhc2ljIGxhYmVsLWNvbnRhaW5lciI+PC9yZWN0PjxnIHRyYW5zZm9ybT0idHJhbnNsYXRlKC00Ni45OTYwOTM3NSwgLTkuNSkiIHN0eWxlPSIiIGNsYXNzPSJsYWJlbCI+PHRleHQgc3R5bGU9IiI+PHRzcGFuIGNsYXNzPSJyb3ciIHg9IjAiIGR5PSIxZW0iIHhtbDpzcGFjZT0icHJlc2VydmUiPkRhdGEgYW5hbHlzaXM8L3RzcGFuPjwvdGV4dD48L2c+PC9nPjxnIHRyYW5zZm9ybT0idHJhbnNsYXRlKDg3NS42ODc1LCAzNDQpIiBpZD0iZmxvd2NoYXJ0LWxpa2VsaWhvb2RBbmFseXNpcy05MSIgY2xhc3M9Im5vZGUgZGVmYXVsdCBkZWZhdWx0Ij48cmVjdCBoZWlnaHQ9IjM0IiB3aWR0aD0iMTQ5LjU5Mzc1IiB5PSItMTciIHg9Ii03NC43OTY4NzUiIHJ5PSIwIiByeD0iMCIgc3R5bGU9IiIgY2xhc3M9ImJhc2ljIGxhYmVsLWNvbnRhaW5lciI+PC9yZWN0PjxnIHRyYW5zZm9ybT0idHJhbnNsYXRlKC02Ny4yOTY4NzUsIC05LjUpIiBzdHlsZT0iIiBjbGFzcz0ibGFiZWwiPjx0ZXh0IHN0eWxlPSIiPjx0c3BhbiBjbGFzcz0icm93IiB4PSIwIiBkeT0iMWVtIiB4bWw6c3BhY2U9InByZXNlcnZlIj5MaWtlbGlob29kIGFuYWx5c2lzPC90c3Bhbj48L3RleHQ+PC9nPjwvZz48ZyB0cmFuc2Zvcm09InRyYW5zbGF0ZSg0ODMuOTMzNTkzNzUsIDM0NCkiIGlkPSJmbG93Y2hhcnQtcmlza0Fzc2Vzc21lbnQtNzciIGNsYXNzPSJub2RlIGRlZmF1bHQgZGVmYXVsdCI+PHJlY3QgaGVpZ2h0PSIzNCIgd2lkdGg9IjEyOS4wMzEyNSIgeT0iLTE3IiB4PSItNjQuNTE1NjI1IiByeT0iMCIgcng9IjAiIHN0eWxlPSIiIGNsYXNzPSJiYXNpYyBsYWJlbC1jb250YWluZXIiPjwvcmVjdD48ZyB0cmFuc2Zvcm09InRyYW5zbGF0ZSgtNTcuMDE1NjI1LCAtOS41KSIgc3R5bGU9IiIgY2xhc3M9ImxhYmVsIj48dGV4dCBzdHlsZT0iIj48dHNwYW4gY2xhc3M9InJvdyIgeD0iMCIgZHk9IjFlbSIgeG1sOnNwYWNlPSJwcmVzZXJ2ZSI+UmlzayBhc3Nlc3NtZW50PC90c3Bhbj48L3RleHQ+PC9nPjwvZz48ZyB0cmFuc2Zvcm09InRyYW5zbGF0ZSg4NzUuNjg3NSwgNDI4KSIgaWQ9ImZsb3djaGFydC1pbXBhY3RBbmFseXNpcy05MyIgY2xhc3M9Im5vZGUgZGVmYXVsdCBkZWZhdWx0Ij48cmVjdCBoZWlnaHQ9IjM0IiB3aWR0aD0iMTI1LjM0Mzc1IiB5PSItMTciIHg9Ii02Mi42NzE4NzUiIHJ5PSIwIiByeD0iMCIgc3R5bGU9IiIgY2xhc3M9ImJhc2ljIGxhYmVsLWNvbnRhaW5lciI+PC9yZWN0PjxnIHRyYW5zZm9ybT0idHJhbnNsYXRlKC01NS4xNzE4NzUsIC05LjUpIiBzdHlsZT0iIiBjbGFzcz0ibGFiZWwiPjx0ZXh0IHN0eWxlPSIiPjx0c3BhbiBjbGFzcz0icm93IiB4PSIwIiBkeT0iMWVtIiB4bWw6c3BhY2U9InByZXNlcnZlIj5JbXBhY3QgYW5hbHlzaXM8L3RzcGFuPjwvdGV4dD48L2c+PC9nPjxnIHRyYW5zZm9ybT0idHJhbnNsYXRlKDQ4My45MzM1OTM3NSwgNTUyKSIgaWQ9ImZsb3djaGFydC1jaGVtaWNhbFBsYW50TG9jYXRpb25JZGVudGlmaWNhdGlvbi04NSIgY2xhc3M9Im5vZGUgZGVmYXVsdCBkZWZhdWx0Ij48cmVjdCBoZWlnaHQ9IjM0IiB3aWR0aD0iMjg3LjUzMTI1IiB5PSItMTciIHg9Ii0xNDMuNzY1NjI1IiByeT0iMCIgcng9IjAiIHN0eWxlPSIiIGNsYXNzPSJiYXNpYyBsYWJlbC1jb250YWluZXIiPjwvcmVjdD48ZyB0cmFuc2Zvcm09InRyYW5zbGF0ZSgtMTM2LjI2NTYyNSwgLTkuNSkiIHN0eWxlPSIiIGNsYXNzPSJsYWJlbCI+PHRleHQgc3R5bGU9IiI+PHRzcGFuIGNsYXNzPSJyb3ciIHg9IjAiIGR5PSIxZW0iIHhtbDpzcGFjZT0icHJlc2VydmUiPkNoZW1pY2FsIHBsYW50IGxvY2F0aW9uIGlkZW50aWZpY2F0aW9uPC90c3Bhbj48L3RleHQ+PC9nPjwvZz48ZyB0cmFuc2Zvcm09InRyYW5zbGF0ZSgxMDguNDg4MjgxMjUsIDYwNCkiIGlkPSJmbG93Y2hhcnQtaGF6YXJkSWRlbnRpZmljYXRpb24tNzYiIGNsYXNzPSJub2RlIGRlZmF1bHQgZGVmYXVsdCI+PHJlY3QgaGVpZ2h0PSIzNCIgd2lkdGg9IjE2Ni45NzY1NjI1IiB5PSItMTciIHg9Ii04My40ODgyODEyNSIgcnk9IjAiIHJ4PSIwIiBzdHlsZT0iIiBjbGFzcz0iYmFzaWMgbGFiZWwtY29udGFpbmVyIj48L3JlY3Q+PGcgdHJhbnNmb3JtPSJ0cmFuc2xhdGUoLTc1Ljk4ODI4MTI1LCAtOS41KSIgc3R5bGU9IiIgY2xhc3M9ImxhYmVsIj48dGV4dCBzdHlsZT0iIj48dHNwYW4gY2xhc3M9InJvdyIgeD0iMCIgZHk9IjFlbSIgeG1sOnNwYWNlPSJwcmVzZXJ2ZSI+SGF6YXJkIGlkZW50aWZpY2F0aW9uPC90c3Bhbj48L3RleHQ+PC9nPjwvZz48ZyB0cmFuc2Zvcm09InRyYW5zbGF0ZSg0ODMuOTMzNTkzNzUsIDYzNikiIGlkPSJmbG93Y2hhcnQtaGF6YXJkb3VzTWF0ZXJpYWxUcmFuc3BvcnRhdGlvblJvdXRlSWRlbnRpZmljYXRpb24tODciIGNsYXNzPSJub2RlIGRlZmF1bHQgZGVmYXVsdCI+PHJlY3QgaGVpZ2h0PSIzNCIgd2lkdGg9IjQwNy40MTQwNjI1IiB5PSItMTciIHg9Ii0yMDMuNzA3MDMxMjUiIHJ5PSIwIiByeD0iMCIgc3R5bGU9IiIgY2xhc3M9ImJhc2ljIGxhYmVsLWNvbnRhaW5lciI+PC9yZWN0PjxnIHRyYW5zZm9ybT0idHJhbnNsYXRlKC0xOTYuMjA3MDMxMjUsIC05LjUpIiBzdHlsZT0iIiBjbGFzcz0ibGFiZWwiPjx0ZXh0IHN0eWxlPSIiPjx0c3BhbiBjbGFzcz0icm93IiB4PSIwIiBkeT0iMWVtIiB4bWw6c3BhY2U9InByZXNlcnZlIj5IYXphcmRvdXMgbWF0ZXJpYWwgdHJhbnNwb3J0YXRpb24gcm91dGUgaWRlbnRpZmljYXRpb248L3RzcGFuPjwvdGV4dD48L2c+PC9nPjxnIHRyYW5zZm9ybT0idHJhbnNsYXRlKDQ4My45MzM1OTM3NSwgNzIwKSIgaWQ9ImZsb3djaGFydC1vdGhlclBvdGVudGlhbFNvdXJjZXNPZkNoZW1pY2FsSGF6YXJkc0lkZW50aWZpY2F0aW9uLTg5IiBjbGFzcz0ibm9kZSBkZWZhdWx0IGRlZmF1bHQiPjxyZWN0IGhlaWdodD0iMzQiIHdpZHRoPSI0MzMuOTE0MDYyNSIgeT0iLTE3IiB4PSItMjE2Ljk1NzAzMTI1IiByeT0iMCIgcng9IjAiIHN0eWxlPSIiIGNsYXNzPSJiYXNpYyBsYWJlbC1jb250YWluZXIiPjwvcmVjdD48ZyB0cmFuc2Zvcm09InRyYW5zbGF0ZSgtMjA5LjQ1NzAzMTI1LCAtOS41KSIgc3R5bGU9IiIgY2xhc3M9ImxhYmVsIj48dGV4dCBzdHlsZT0iIj48dHNwYW4gY2xhc3M9InJvdyIgeD0iMCIgZHk9IjFlbSIgeG1sOnNwYWNlPSJwcmVzZXJ2ZSI+T3RoZXIgcG90ZW50aWFsIHNvdXJjZXMgb2YgY2hlbWljYWwgaGF6YXJkcyBpZGVudGlmaWNhdGlvbjwvdHNwYW4+PC90ZXh0PjwvZz48L2c+PC9nPjwvZz48L2c+PC9zdmc+;movable=1;resizable=1;rotatable=1;deletable=1;editable=1;locked=0;connectable=1;container=1;" vertex="1" parent="1">
            <mxGeometry x="-1010" y="-810" width="2072.859375" height="788" as="geometry" />
          </mxCell>
        </UserObject>
        <UserObject label="" plantUmlData="{&#xa;  &quot;data&quot;: &quot;@startuml\n!define SPRITESURL https://raw.githubusercontent.com/rrobbes/PlantUML-stuff/master\n\n!define ICONURL https://raw.githubusercontent.com/rrobbes/PlantUML-stuff/master/icons\n\n!define AWESOMEURL https://raw.githubusercontent.com/rrobbes/PlantUML-stuff/master/font-awesome-5\n\n!define ICON(name) AWESOMEURL/name.puml\n\n!define SPRITE(name) SPRITESURL/name.puml\n\nskinparam rectangle&lt;&lt;component&gt;&gt; {\n  backgroundColor&lt;&lt;component&gt;&gt; #ADD8E6\n  borderColor&lt;&lt;component&gt;&gt; #00008B\n}\n\nskinparam rectangle&lt;&lt;link&gt;&gt; {\n  backgroundColor&lt;&lt;link&gt;&gt; #F0E68C\n  borderColor&lt;&lt;link&gt;&gt; #00008B\n}\n\nrectangle \&quot;Hazard identification\&quot; &lt;&lt;component&gt;&gt; as hazardIdentification\nrectangle \&quot;Risk assessment\&quot; &lt;&lt;component&gt;&gt; as riskAssessment\nrectangle \&quot;Data management\&quot; &lt;&lt;component&gt;&gt; as dataManagement\nrectangle \&quot;Mapping and visualization\&quot; &lt;&lt;component&gt;&gt; as mappingVisualization\nrectangle \&quot;Mitigation and response planning\&quot; &lt;&lt;component&gt;&gt; as mitigationResponsePlanning\n\nhazardIdentification --&gt; riskAssessment : informs\nriskAssessment --&gt; dataManagement : uses\ndataManagement --&gt; mappingVisualization : provides data for\nmappingVisualization --&gt; mitigationResponsePlanning : informs\n\nrectangle \&quot;Chemical plant location identification\&quot; &lt;&lt;component&gt;&gt; as chemicalPlantLocationIdentification\nrectangle \&quot;Hazardous material transportation route identification\&quot; &lt;&lt;component&gt;&gt; as hazardousMaterialTransportationRouteIdentification\nrectangle \&quot;Other potential sources of chemical hazards identification\&quot; &lt;&lt;component&gt;&gt; as otherPotentialSourcesOfChemicalHazardsIdentification\n\nhazardIdentification --&gt; chemicalPlantLocationIdentification : includes\nhazardIdentification --&gt; hazardousMaterialTransportationRouteIdentification : includes\nhazardIdentification --&gt; otherPotentialSourcesOfChemicalHazardsIdentification : includes\n\nchemicalPlantLocationIdentification ..&gt; riskAssessment : informs\nhazardousMaterialTransportationRouteIdentification ..&gt; riskAssessment : informs\notherPotentialSourcesOfChemicalHazardsIdentification ..&gt; riskAssessment : informs\n\nrectangle \&quot;Likelihood analysis\&quot; &lt;&lt;component&gt;&gt; as likelihoodAnalysis\nrectangle \&quot;Impact analysis\&quot; &lt;&lt;component&gt;&gt; as impactAnalysis\n\nriskAssessment --&gt; likelihoodAnalysis : includes\nriskAssessment --&gt; impactAnalysis : includes\n\nrectangle \&quot;Data organization\&quot; &lt;&lt;component&gt;&gt; as dataOrganization\nrectangle \&quot;Data storage\&quot; &lt;&lt;component&gt;&gt; as dataStorage\nrectangle \&quot;Data analysis\&quot; &lt;&lt;component&gt;&gt; as dataAnalysis\n\ndataManagement --&gt; dataOrganization : includes\ndataManagement --&gt; dataStorage : includes\ndataManagement --&gt; dataAnalysis : includes\n\nrectangle \&quot;GIS software\&quot; &lt;&lt;component&gt;&gt; as gisSoftware\n\nmappingVisualization --&gt; gisSoftware : uses\n\nrectangle \&quot;Evacuation planning\&quot; &lt;&lt;component&gt;&gt; as evacuationPlanning\nrectangle \&quot;Emergency response resource identification\&quot; &lt;&lt;component&gt;&gt; as emergencyResponseResourceIdentification\nrectangle \&quot;Communication protocol establishment\&quot; &lt;&lt;component&gt;&gt; as communicationProtocolEstablishment\n\nmitigationResponsePlanning --&gt; evacuationPlanning : includes\nmitigationResponsePlanning --&gt; emergencyResponseResourceIdentification : includes\nmitigationResponsePlanning --&gt; communicationProtocolEstablishment : includes\n\nrectangle \&quot;ArcGIS\&quot; &lt;&lt;software&gt;&gt; as arcgisSoftware\nrectangle \&quot;QGIS\&quot; &lt;&lt;software&gt;&gt; as qgisSoftware\n\ngisSoftware --&gt; arcgisSoftware : includes\ngisSoftware --&gt; qgisSoftware : includes\n\nrectangle \&quot;Database server\&quot; &lt;&lt;hardware&gt;&gt; as databaseServerHardware\n\ndataStorage ..&gt; databaseServerHardware : uses\n\n@enduml&quot;,&#xa;  &quot;format&quot;: &quot;svg&quot;&#xa;}" id="YwqaIVko-Qlb3BSDccb9-3">
          <mxCell style="shape=image;noLabel=1;verticalAlign=top;aspect=fixed;imageAspect=0;image=data:image/svg+xml,PD94bWwgdmVyc2lvbj0iMS4wIiBlbmNvZGluZz0idXMtYXNjaWkiIHN0YW5kYWxvbmU9Im5vIj8+PHN2ZyB4bWxucz0iaHR0cDovL3d3dy53My5vcmcvMjAwMC9zdmciIHhtbG5zOnhsaW5rPSJodHRwOi8vd3d3LnczLm9yZy8xOTk5L3hsaW5rIiBjb250ZW50U3R5bGVUeXBlPSJ0ZXh0L2NzcyIgaGVpZ2h0PSI4MTJweCIgcHJlc2VydmVBc3BlY3RSYXRpbz0ibm9uZSIgc3R5bGU9IndpZHRoOjIwOTRweDtoZWlnaHQ6ODEycHg7YmFja2dyb3VuZDojRkZGRkZGOyIgdmVyc2lvbj0iMS4xIiB2aWV3Qm94PSIwIDAgMjA5NCA4MTIiIHdpZHRoPSIyMDk0cHgiIHpvb21BbmRQYW49Im1hZ25pZnkiPjxkZWZzLz48Zz48IS0tZW50aXR5IGhhemFyZElkZW50aWZpY2F0aW9uLS0+PGcgaWQ9ImVsZW1faGF6YXJkSWRlbnRpZmljYXRpb24iPjxyZWN0IGZpbGw9IiNBREQ4RTYiIGhlaWdodD0iNDkuOTY4OCIgcng9IjIuNSIgcnk9IjIuNSIgc3R5bGU9InN0cm9rZTojMDAwMDhCO3N0cm9rZS13aWR0aDowLjU7IiB3aWR0aD0iMTY3IiB4PSIxMDgzIiB5PSI3Ii8+PHRleHQgZmlsbD0iIzAwMDAwMCIgZm9udC1mYW1pbHk9InNhbnMtc2VyaWYiIGZvbnQtc2l6ZT0iMTQiIGZvbnQtc3R5bGU9Iml0YWxpYyIgbGVuZ3RoQWRqdXN0PSJzcGFjaW5nIiB0ZXh0TGVuZ3RoPSI4MCIgeD0iMTEyNi41IiB5PSIzMC4yMzQ0Ij4mIzE3MTtjb21wb25lbnQmIzE4Nzs8L3RleHQ+PHRleHQgZmlsbD0iIzAwMDAwMCIgZm9udC1mYW1pbHk9InNhbnMtc2VyaWYiIGZvbnQtc2l6ZT0iMTQiIGxlbmd0aEFkanVzdD0ic3BhY2luZyIgdGV4dExlbmd0aD0iMTQ3IiB4PSIxMDkzIiB5PSI0NS4yMTg4Ij5IYXphcmQgaWRlbnRpZmljYXRpb248L3RleHQ+PC9nPjwhLS1lbnRpdHkgcmlza0Fzc2Vzc21lbnQtLT48ZyBpZD0iZWxlbV9yaXNrQXNzZXNzbWVudCI+PHJlY3QgZmlsbD0iI0FERDhFNiIgaGVpZ2h0PSI0OS45Njg4IiByeD0iMi41IiByeT0iMi41IiBzdHlsZT0ic3Ryb2tlOiMwMDAwOEI7c3Ryb2tlLXdpZHRoOjAuNTsiIHdpZHRoPSIxMjYiIHg9IjExNzMuNSIgeT0iMjU3Ii8+PHRleHQgZmlsbD0iIzAwMDAwMCIgZm9udC1mYW1pbHk9InNhbnMtc2VyaWYiIGZvbnQtc2l6ZT0iMTQiIGZvbnQtc3R5bGU9Iml0YWxpYyIgbGVuZ3RoQWRqdXN0PSJzcGFjaW5nIiB0ZXh0TGVuZ3RoPSI4MCIgeD0iMTE5Ni41IiB5PSIyODAuMjM0NCI+JiMxNzE7Y29tcG9uZW50JiMxODc7PC90ZXh0Pjx0ZXh0IGZpbGw9IiMwMDAwMDAiIGZvbnQtZmFtaWx5PSJzYW5zLXNlcmlmIiBmb250LXNpemU9IjE0IiBsZW5ndGhBZGp1c3Q9InNwYWNpbmciIHRleHRMZW5ndGg9IjEwNiIgeD0iMTE4My41IiB5PSIyOTUuMjE4OCI+UmlzayBhc3Nlc3NtZW50PC90ZXh0PjwvZz48IS0tZW50aXR5IGRhdGFNYW5hZ2VtZW50LS0+PGcgaWQ9ImVsZW1fZGF0YU1hbmFnZW1lbnQiPjxyZWN0IGZpbGw9IiNBREQ4RTYiIGhlaWdodD0iNDkuOTY4OCIgcng9IjIuNSIgcnk9IjIuNSIgc3R5bGU9InN0cm9rZTojMDAwMDhCO3N0cm9rZS13aWR0aDowLjU7IiB3aWR0aD0iMTI3IiB4PSI5OTgiIHk9IjM4MiIvPjx0ZXh0IGZpbGw9IiMwMDAwMDAiIGZvbnQtZmFtaWx5PSJzYW5zLXNlcmlmIiBmb250LXNpemU9IjE0IiBmb250LXN0eWxlPSJpdGFsaWMiIGxlbmd0aEFkanVzdD0ic3BhY2luZyIgdGV4dExlbmd0aD0iODAiIHg9IjEwMjEuNSIgeT0iNDA1LjIzNDQiPiYjMTcxO2NvbXBvbmVudCYjMTg3OzwvdGV4dD48dGV4dCBmaWxsPSIjMDAwMDAwIiBmb250LWZhbWlseT0ic2Fucy1zZXJpZiIgZm9udC1zaXplPSIxNCIgbGVuZ3RoQWRqdXN0PSJzcGFjaW5nIiB0ZXh0TGVuZ3RoPSIxMDciIHg9IjEwMDgiIHk9IjQyMC4yMTg4Ij5EYXRhIG1hbmFnZW1lbnQ8L3RleHQ+PC9nPjwhLS1lbnRpdHkgbWFwcGluZ1Zpc3VhbGl6YXRpb24tLT48ZyBpZD0iZWxlbV9tYXBwaW5nVmlzdWFsaXphdGlvbiI+PHJlY3QgZmlsbD0iI0FERDhFNiIgaGVpZ2h0PSI0OS45Njg4IiByeD0iMi41IiByeT0iMi41IiBzdHlsZT0ic3Ryb2tlOiMwMDAwOEI7c3Ryb2tlLXdpZHRoOjAuNTsiIHdpZHRoPSIxOTUiIHg9IjY5OSIgeT0iNTA3Ii8+PHRleHQgZmlsbD0iIzAwMDAwMCIgZm9udC1mYW1pbHk9InNhbnMtc2VyaWYiIGZvbnQtc2l6ZT0iMTQiIGZvbnQtc3R5bGU9Iml0YWxpYyIgbGVuZ3RoQWRqdXN0PSJzcGFjaW5nIiB0ZXh0TGVuZ3RoPSI4MCIgeD0iNzU2LjUiIHk9IjUzMC4yMzQ0Ij4mIzE3MTtjb21wb25lbnQmIzE4Nzs8L3RleHQ+PHRleHQgZmlsbD0iIzAwMDAwMCIgZm9udC1mYW1pbHk9InNhbnMtc2VyaWYiIGZvbnQtc2l6ZT0iMTQiIGxlbmd0aEFkanVzdD0ic3BhY2luZyIgdGV4dExlbmd0aD0iMTc1IiB4PSI3MDkiIHk9IjU0NS4yMTg4Ij5NYXBwaW5nIGFuZCB2aXN1YWxpemF0aW9uPC90ZXh0PjwvZz48IS0tZW50aXR5IG1pdGlnYXRpb25SZXNwb25zZVBsYW5uaW5nLS0+PGcgaWQ9ImVsZW1fbWl0aWdhdGlvblJlc3BvbnNlUGxhbm5pbmciPjxyZWN0IGZpbGw9IiNBREQ4RTYiIGhlaWdodD0iNDkuOTY4OCIgcng9IjIuNSIgcnk9IjIuNSIgc3R5bGU9InN0cm9rZTojMDAwMDhCO3N0cm9rZS13aWR0aDowLjU7IiB3aWR0aD0iMjQ0IiB4PSIzOTUuNSIgeT0iNjMyIi8+PHRleHQgZmlsbD0iIzAwMDAwMCIgZm9udC1mYW1pbHk9InNhbnMtc2VyaWYiIGZvbnQtc2l6ZT0iMTQiIGZvbnQtc3R5bGU9Iml0YWxpYyIgbGVuZ3RoQWRqdXN0PSJzcGFjaW5nIiB0ZXh0TGVuZ3RoPSI4MCIgeD0iNDc3LjUiIHk9IjY1NS4yMzQ0Ij4mIzE3MTtjb21wb25lbnQmIzE4Nzs8L3RleHQ+PHRleHQgZmlsbD0iIzAwMDAwMCIgZm9udC1mYW1pbHk9InNhbnMtc2VyaWYiIGZvbnQtc2l6ZT0iMTQiIGxlbmd0aEFkanVzdD0ic3BhY2luZyIgdGV4dExlbmd0aD0iMjI0IiB4PSI0MDUuNSIgeT0iNjcwLjIxODgiPk1pdGlnYXRpb24gYW5kIHJlc3BvbnNlIHBsYW5uaW5nPC90ZXh0PjwvZz48IS0tZW50aXR5IGNoZW1pY2FsUGxhbnRMb2NhdGlvbklkZW50aWZpY2F0aW9uLS0+PGcgaWQ9ImVsZW1fY2hlbWljYWxQbGFudExvY2F0aW9uSWRlbnRpZmljYXRpb24iPjxyZWN0IGZpbGw9IiNBREQ4RTYiIGhlaWdodD0iNDkuOTY4OCIgcng9IjIuNSIgcnk9IjIuNSIgc3R5bGU9InN0cm9rZTojMDAwMDhCO3N0cm9rZS13aWR0aDowLjU7IiB3aWR0aD0iMjg3IiB4PSI5MDUiIHk9IjEzMiIvPjx0ZXh0IGZpbGw9IiMwMDAwMDAiIGZvbnQtZmFtaWx5PSJzYW5zLXNlcmlmIiBmb250LXNpemU9IjE0IiBmb250LXN0eWxlPSJpdGFsaWMiIGxlbmd0aEFkanVzdD0ic3BhY2luZyIgdGV4dExlbmd0aD0iODAiIHg9IjEwMDguNSIgeT0iMTU1LjIzNDQiPiYjMTcxO2NvbXBvbmVudCYjMTg3OzwvdGV4dD48dGV4dCBmaWxsPSIjMDAwMDAwIiBmb250LWZhbWlseT0ic2Fucy1zZXJpZiIgZm9udC1zaXplPSIxNCIgbGVuZ3RoQWRqdXN0PSJzcGFjaW5nIiB0ZXh0TGVuZ3RoPSIyNjciIHg9IjkxNSIgeT0iMTcwLjIxODgiPkNoZW1pY2FsIHBsYW50IGxvY2F0aW9uIGlkZW50aWZpY2F0aW9uPC90ZXh0PjwvZz48IS0tZW50aXR5IGhhemFyZG91c01hdGVyaWFsVHJhbnNwb3J0YXRpb25Sb3V0ZUlkZW50aWZpY2F0aW9uLS0+PGcgaWQ9ImVsZW1faGF6YXJkb3VzTWF0ZXJpYWxUcmFuc3BvcnRhdGlvblJvdXRlSWRlbnRpZmljYXRpb24iPjxyZWN0IGZpbGw9IiNBREQ4RTYiIGhlaWdodD0iNDkuOTY4OCIgcng9IjIuNSIgcnk9IjIuNSIgc3R5bGU9InN0cm9rZTojMDAwMDhCO3N0cm9rZS13aWR0aDowLjU7IiB3aWR0aD0iMzk5IiB4PSIxMjI3IiB5PSIxMzIiLz48dGV4dCBmaWxsPSIjMDAwMDAwIiBmb250LWZhbWlseT0ic2Fucy1zZXJpZiIgZm9udC1zaXplPSIxNCIgZm9udC1zdHlsZT0iaXRhbGljIiBsZW5ndGhBZGp1c3Q9InNwYWNpbmciIHRleHRMZW5ndGg9IjgwIiB4PSIxMzg2LjUiIHk9IjE1NS4yMzQ0Ij4mIzE3MTtjb21wb25lbnQmIzE4Nzs8L3RleHQ+PHRleHQgZmlsbD0iIzAwMDAwMCIgZm9udC1mYW1pbHk9InNhbnMtc2VyaWYiIGZvbnQtc2l6ZT0iMTQiIGxlbmd0aEFkanVzdD0ic3BhY2luZyIgdGV4dExlbmd0aD0iMzc5IiB4PSIxMjM3IiB5PSIxNzAuMjE4OCI+SGF6YXJkb3VzIG1hdGVyaWFsIHRyYW5zcG9ydGF0aW9uIHJvdXRlIGlkZW50aWZpY2F0aW9uPC90ZXh0PjwvZz48IS0tZW50aXR5IG90aGVyUG90ZW50aWFsU291cmNlc09mQ2hlbWljYWxIYXphcmRzSWRlbnRpZmljYXRpb24tLT48ZyBpZD0iZWxlbV9vdGhlclBvdGVudGlhbFNvdXJjZXNPZkNoZW1pY2FsSGF6YXJkc0lkZW50aWZpY2F0aW9uIj48cmVjdCBmaWxsPSIjQUREOEU2IiBoZWlnaHQ9IjQ5Ljk2ODgiIHJ4PSIyLjUiIHJ5PSIyLjUiIHN0eWxlPSJzdHJva2U6IzAwMDA4QjtzdHJva2Utd2lkdGg6MC41OyIgd2lkdGg9IjQyNyIgeD0iMTY2MSIgeT0iMTMyIi8+PHRleHQgZmlsbD0iIzAwMDAwMCIgZm9udC1mYW1pbHk9InNhbnMtc2VyaWYiIGZvbnQtc2l6ZT0iMTQiIGZvbnQtc3R5bGU9Iml0YWxpYyIgbGVuZ3RoQWRqdXN0PSJzcGFjaW5nIiB0ZXh0TGVuZ3RoPSI4MCIgeD0iMTgzNC41IiB5PSIxNTUuMjM0NCI+JiMxNzE7Y29tcG9uZW50JiMxODc7PC90ZXh0Pjx0ZXh0IGZpbGw9IiMwMDAwMDAiIGZvbnQtZmFtaWx5PSJzYW5zLXNlcmlmIiBmb250LXNpemU9IjE0IiBsZW5ndGhBZGp1c3Q9InNwYWNpbmciIHRleHRMZW5ndGg9IjQwNyIgeD0iMTY3MSIgeT0iMTcwLjIxODgiPk90aGVyIHBvdGVudGlhbCBzb3VyY2VzIG9mIGNoZW1pY2FsIGhhemFyZHMgaWRlbnRpZmljYXRpb248L3RleHQ+PC9nPjwhLS1lbnRpdHkgbGlrZWxpaG9vZEFuYWx5c2lzLS0+PGcgaWQ9ImVsZW1fbGlrZWxpaG9vZEFuYWx5c2lzIj48cmVjdCBmaWxsPSIjQUREOEU2IiBoZWlnaHQ9IjQ5Ljk2ODgiIHJ4PSIyLjUiIHJ5PSIyLjUiIHN0eWxlPSJzdHJva2U6IzAwMDA4QjtzdHJva2Utd2lkdGg6MC41OyIgd2lkdGg9IjE1MyIgeD0iMTE2MCIgeT0iMzgyIi8+PHRleHQgZmlsbD0iIzAwMDAwMCIgZm9udC1mYW1pbHk9InNhbnMtc2VyaWYiIGZvbnQtc2l6ZT0iMTQiIGZvbnQtc3R5bGU9Iml0YWxpYyIgbGVuZ3RoQWRqdXN0PSJzcGFjaW5nIiB0ZXh0TGVuZ3RoPSI4MCIgeD0iMTE5Ni41IiB5PSI0MDUuMjM0NCI+JiMxNzE7Y29tcG9uZW50JiMxODc7PC90ZXh0Pjx0ZXh0IGZpbGw9IiMwMDAwMDAiIGZvbnQtZmFtaWx5PSJzYW5zLXNlcmlmIiBmb250LXNpemU9IjE0IiBsZW5ndGhBZGp1c3Q9InNwYWNpbmciIHRleHRMZW5ndGg9IjEzMyIgeD0iMTE3MCIgeT0iNDIwLjIxODgiPkxpa2VsaWhvb2QgYW5hbHlzaXM8L3RleHQ+PC9nPjwhLS1lbnRpdHkgaW1wYWN0QW5hbHlzaXMtLT48ZyBpZD0iZWxlbV9pbXBhY3RBbmFseXNpcyI+PHJlY3QgZmlsbD0iI0FERDhFNiIgaGVpZ2h0PSI0OS45Njg4IiByeD0iMi41IiByeT0iMi41IiBzdHlsZT0ic3Ryb2tlOiMwMDAwOEI7c3Ryb2tlLXdpZHRoOjAuNTsiIHdpZHRoPSIxMjYiIHg9IjEzNDguNSIgeT0iMzgyIi8+PHRleHQgZmlsbD0iIzAwMDAwMCIgZm9udC1mYW1pbHk9InNhbnMtc2VyaWYiIGZvbnQtc2l6ZT0iMTQiIGZvbnQtc3R5bGU9Iml0YWxpYyIgbGVuZ3RoQWRqdXN0PSJzcGFjaW5nIiB0ZXh0TGVuZ3RoPSI4MCIgeD0iMTM3MS41IiB5PSI0MDUuMjM0NCI+JiMxNzE7Y29tcG9uZW50JiMxODc7PC90ZXh0Pjx0ZXh0IGZpbGw9IiMwMDAwMDAiIGZvbnQtZmFtaWx5PSJzYW5zLXNlcmlmIiBmb250LXNpemU9IjE0IiBsZW5ndGhBZGp1c3Q9InNwYWNpbmciIHRleHRMZW5ndGg9IjEwNiIgeD0iMTM1OC41IiB5PSI0MjAuMjE4OCI+SW1wYWN0IGFuYWx5c2lzPC90ZXh0PjwvZz48IS0tZW50aXR5IGRhdGFPcmdhbml6YXRpb24tLT48ZyBpZD0iZWxlbV9kYXRhT3JnYW5pemF0aW9uIj48cmVjdCBmaWxsPSIjQUREOEU2IiBoZWlnaHQ9IjQ5Ljk2ODgiIHJ4PSIyLjUiIHJ5PSIyLjUiIHN0eWxlPSJzdHJva2U6IzAwMDA4QjtzdHJva2Utd2lkdGg6MC41OyIgd2lkdGg9IjEzOSIgeD0iOTI5IiB5PSI1MDciLz48dGV4dCBmaWxsPSIjMDAwMDAwIiBmb250LWZhbWlseT0ic2Fucy1zZXJpZiIgZm9udC1zaXplPSIxNCIgZm9udC1zdHlsZT0iaXRhbGljIiBsZW5ndGhBZGp1c3Q9InNwYWNpbmciIHRleHRMZW5ndGg9IjgwIiB4PSI5NTguNSIgeT0iNTMwLjIzNDQiPiYjMTcxO2NvbXBvbmVudCYjMTg3OzwvdGV4dD48dGV4dCBmaWxsPSIjMDAwMDAwIiBmb250LWZhbWlseT0ic2Fucy1zZXJpZiIgZm9udC1zaXplPSIxNCIgbGVuZ3RoQWRqdXN0PSJzcGFjaW5nIiB0ZXh0TGVuZ3RoPSIxMTkiIHg9IjkzOSIgeT0iNTQ1LjIxODgiPkRhdGEgb3JnYW5pemF0aW9uPC90ZXh0PjwvZz48IS0tZW50aXR5IGRhdGFTdG9yYWdlLS0+PGcgaWQ9ImVsZW1fZGF0YVN0b3JhZ2UiPjxyZWN0IGZpbGw9IiNBREQ4RTYiIGhlaWdodD0iNDkuOTY4OCIgcng9IjIuNSIgcnk9IjIuNSIgc3R5bGU9InN0cm9rZTojMDAwMDhCO3N0cm9rZS13aWR0aDowLjU7IiB3aWR0aD0iMTA0IiB4PSIxMTAzLjUiIHk9IjUwNyIvPjx0ZXh0IGZpbGw9IiMwMDAwMDAiIGZvbnQtZmFtaWx5PSJzYW5zLXNlcmlmIiBmb250LXNpemU9IjE0IiBmb250LXN0eWxlPSJpdGFsaWMiIGxlbmd0aEFkanVzdD0ic3BhY2luZyIgdGV4dExlbmd0aD0iODAiIHg9IjExMTUuNSIgeT0iNTMwLjIzNDQiPiYjMTcxO2NvbXBvbmVudCYjMTg3OzwvdGV4dD48dGV4dCBmaWxsPSIjMDAwMDAwIiBmb250LWZhbWlseT0ic2Fucy1zZXJpZiIgZm9udC1zaXplPSIxNCIgbGVuZ3RoQWRqdXN0PSJzcGFjaW5nIiB0ZXh0TGVuZ3RoPSI4NCIgeD0iMTExMy41IiB5PSI1NDUuMjE4OCI+RGF0YSBzdG9yYWdlPC90ZXh0PjwvZz48IS0tZW50aXR5IGRhdGFBbmFseXNpcy0tPjxnIGlkPSJlbGVtX2RhdGFBbmFseXNpcyI+PHJlY3QgZmlsbD0iI0FERDhFNiIgaGVpZ2h0PSI0OS45Njg4IiByeD0iMi41IiByeT0iMi41IiBzdHlsZT0ic3Ryb2tlOiMwMDAwOEI7c3Ryb2tlLXdpZHRoOjAuNTsiIHdpZHRoPSIxMTEiIHg9IjEyNDMiIHk9IjUwNyIvPjx0ZXh0IGZpbGw9IiMwMDAwMDAiIGZvbnQtZmFtaWx5PSJzYW5zLXNlcmlmIiBmb250LXNpemU9IjE0IiBmb250LXN0eWxlPSJpdGFsaWMiIGxlbmd0aEFkanVzdD0ic3BhY2luZyIgdGV4dExlbmd0aD0iODAiIHg9IjEyNTguNSIgeT0iNTMwLjIzNDQiPiYjMTcxO2NvbXBvbmVudCYjMTg3OzwvdGV4dD48dGV4dCBmaWxsPSIjMDAwMDAwIiBmb250LWZhbWlseT0ic2Fucy1zZXJpZiIgZm9udC1zaXplPSIxNCIgbGVuZ3RoQWRqdXN0PSJzcGFjaW5nIiB0ZXh0TGVuZ3RoPSI5MSIgeD0iMTI1MyIgeT0iNTQ1LjIxODgiPkRhdGEgYW5hbHlzaXM8L3RleHQ+PC9nPjwhLS1lbnRpdHkgZ2lzU29mdHdhcmUtLT48ZyBpZD0iZWxlbV9naXNTb2Z0d2FyZSI+PHJlY3QgZmlsbD0iI0FERDhFNiIgaGVpZ2h0PSI0OS45Njg4IiByeD0iMi41IiByeT0iMi41IiBzdHlsZT0ic3Ryb2tlOiMwMDAwOEI7c3Ryb2tlLXdpZHRoOjAuNTsiIHdpZHRoPSIxMDUiIHg9Ijg0OSIgeT0iNjMyIi8+PHRleHQgZmlsbD0iIzAwMDAwMCIgZm9udC1mYW1pbHk9InNhbnMtc2VyaWYiIGZvbnQtc2l6ZT0iMTQiIGZvbnQtc3R5bGU9Iml0YWxpYyIgbGVuZ3RoQWRqdXN0PSJzcGFjaW5nIiB0ZXh0TGVuZ3RoPSI4MCIgeD0iODYxLjUiIHk9IjY1NS4yMzQ0Ij4mIzE3MTtjb21wb25lbnQmIzE4Nzs8L3RleHQ+PHRleHQgZmlsbD0iIzAwMDAwMCIgZm9udC1mYW1pbHk9InNhbnMtc2VyaWYiIGZvbnQtc2l6ZT0iMTQiIGxlbmd0aEFkanVzdD0ic3BhY2luZyIgdGV4dExlbmd0aD0iODUiIHg9Ijg1OSIgeT0iNjcwLjIxODgiPkdJUyBzb2Z0d2FyZTwvdGV4dD48L2c+PCEtLWVudGl0eSBldmFjdWF0aW9uUGxhbm5pbmctLT48ZyBpZD0iZWxlbV9ldmFjdWF0aW9uUGxhbm5pbmciPjxyZWN0IGZpbGw9IiNBREQ4RTYiIGhlaWdodD0iNDkuOTY4OCIgcng9IjIuNSIgcnk9IjIuNSIgc3R5bGU9InN0cm9rZTojMDAwMDhCO3N0cm9rZS13aWR0aDowLjU7IiB3aWR0aD0iMTUzIiB4PSI3IiB5PSI3NTciLz48dGV4dCBmaWxsPSIjMDAwMDAwIiBmb250LWZhbWlseT0ic2Fucy1zZXJpZiIgZm9udC1zaXplPSIxNCIgZm9udC1zdHlsZT0iaXRhbGljIiBsZW5ndGhBZGp1c3Q9InNwYWNpbmciIHRleHRMZW5ndGg9IjgwIiB4PSI0My41IiB5PSI3ODAuMjM0NCI+JiMxNzE7Y29tcG9uZW50JiMxODc7PC90ZXh0Pjx0ZXh0IGZpbGw9IiMwMDAwMDAiIGZvbnQtZmFtaWx5PSJzYW5zLXNlcmlmIiBmb250LXNpemU9IjE0IiBsZW5ndGhBZGp1c3Q9InNwYWNpbmciIHRleHRMZW5ndGg9IjEzMyIgeD0iMTciIHk9Ijc5NS4yMTg4Ij5FdmFjdWF0aW9uIHBsYW5uaW5nPC90ZXh0PjwvZz48IS0tZW50aXR5IGVtZXJnZW5jeVJlc3BvbnNlUmVzb3VyY2VJZGVudGlmaWNhdGlvbi0tPjxnIGlkPSJlbGVtX2VtZXJnZW5jeVJlc3BvbnNlUmVzb3VyY2VJZGVudGlmaWNhdGlvbiI+PHJlY3QgZmlsbD0iI0FERDhFNiIgaGVpZ2h0PSI0OS45Njg4IiByeD0iMi41IiByeT0iMi41IiBzdHlsZT0ic3Ryb2tlOiMwMDAwOEI7c3Ryb2tlLXdpZHRoOjAuNTsiIHdpZHRoPSIzMTUiIHg9IjE5NSIgeT0iNzU3Ii8+PHRleHQgZmlsbD0iIzAwMDAwMCIgZm9udC1mYW1pbHk9InNhbnMtc2VyaWYiIGZvbnQtc2l6ZT0iMTQiIGZvbnQtc3R5bGU9Iml0YWxpYyIgbGVuZ3RoQWRqdXN0PSJzcGFjaW5nIiB0ZXh0TGVuZ3RoPSI4MCIgeD0iMzEyLjUiIHk9Ijc4MC4yMzQ0Ij4mIzE3MTtjb21wb25lbnQmIzE4Nzs8L3RleHQ+PHRleHQgZmlsbD0iIzAwMDAwMCIgZm9udC1mYW1pbHk9InNhbnMtc2VyaWYiIGZvbnQtc2l6ZT0iMTQiIGxlbmd0aEFkanVzdD0ic3BhY2luZyIgdGV4dExlbmd0aD0iMjk1IiB4PSIyMDUiIHk9Ijc5NS4yMTg4Ij5FbWVyZ2VuY3kgcmVzcG9uc2UgcmVzb3VyY2UgaWRlbnRpZmljYXRpb248L3RleHQ+PC9nPjwhLS1lbnRpdHkgY29tbXVuaWNhdGlvblByb3RvY29sRXN0YWJsaXNobWVudC0tPjxnIGlkPSJlbGVtX2NvbW11bmljYXRpb25Qcm90b2NvbEVzdGFibGlzaG1lbnQiPjxyZWN0IGZpbGw9IiNBREQ4RTYiIGhlaWdodD0iNDkuOTY4OCIgcng9IjIuNSIgcnk9IjIuNSIgc3R5bGU9InN0cm9rZTojMDAwMDhCO3N0cm9rZS13aWR0aDowLjU7IiB3aWR0aD0iMjc1IiB4PSI1NDUiIHk9Ijc1NyIvPjx0ZXh0IGZpbGw9IiMwMDAwMDAiIGZvbnQtZmFtaWx5PSJzYW5zLXNlcmlmIiBmb250LXNpemU9IjE0IiBmb250LXN0eWxlPSJpdGFsaWMiIGxlbmd0aEFkanVzdD0ic3BhY2luZyIgdGV4dExlbmd0aD0iODAiIHg9IjY0Mi41IiB5PSI3ODAuMjM0NCI+JiMxNzE7Y29tcG9uZW50JiMxODc7PC90ZXh0Pjx0ZXh0IGZpbGw9IiMwMDAwMDAiIGZvbnQtZmFtaWx5PSJzYW5zLXNlcmlmIiBmb250LXNpemU9IjE0IiBsZW5ndGhBZGp1c3Q9InNwYWNpbmciIHRleHRMZW5ndGg9IjI1NSIgeD0iNTU1IiB5PSI3OTUuMjE4OCI+Q29tbXVuaWNhdGlvbiBwcm90b2NvbCBlc3RhYmxpc2htZW50PC90ZXh0PjwvZz48IS0tZW50aXR5IGFyY2dpc1NvZnR3YXJlLS0+PGcgaWQ9ImVsZW1fYXJjZ2lzU29mdHdhcmUiPjxyZWN0IGZpbGw9IiNGMUYxRjEiIGhlaWdodD0iNDkuOTY4OCIgcng9IjIuNSIgcnk9IjIuNSIgc3R5bGU9InN0cm9rZTojMTgxODE4O3N0cm9rZS13aWR0aDowLjU7IiB3aWR0aD0iOTMiIHg9Ijg1NSIgeT0iNzU3Ii8+PHRleHQgZmlsbD0iIzAwMDAwMCIgZm9udC1mYW1pbHk9InNhbnMtc2VyaWYiIGZvbnQtc2l6ZT0iMTQiIGZvbnQtc3R5bGU9Iml0YWxpYyIgbGVuZ3RoQWRqdXN0PSJzcGFjaW5nIiB0ZXh0TGVuZ3RoPSI3MyIgeD0iODY1IiB5PSI3ODAuMjM0NCI+JiMxNzE7c29mdHdhcmUmIzE4Nzs8L3RleHQ+PHRleHQgZmlsbD0iIzAwMDAwMCIgZm9udC1mYW1pbHk9InNhbnMtc2VyaWYiIGZvbnQtc2l6ZT0iMTQiIGxlbmd0aEFkanVzdD0ic3BhY2luZyIgdGV4dExlbmd0aD0iNDIiIHg9Ijg4MC41IiB5PSI3OTUuMjE4OCI+QXJjR0lTPC90ZXh0PjwvZz48IS0tZW50aXR5IHFnaXNTb2Z0d2FyZS0tPjxnIGlkPSJlbGVtX3FnaXNTb2Z0d2FyZSI+PHJlY3QgZmlsbD0iI0YxRjFGMSIgaGVpZ2h0PSI0OS45Njg4IiByeD0iMi41IiByeT0iMi41IiBzdHlsZT0ic3Ryb2tlOiMxODE4MTg7c3Ryb2tlLXdpZHRoOjAuNTsiIHdpZHRoPSI5MyIgeD0iOTgzIiB5PSI3NTciLz48dGV4dCBmaWxsPSIjMDAwMDAwIiBmb250LWZhbWlseT0ic2Fucy1zZXJpZiIgZm9udC1zaXplPSIxNCIgZm9udC1zdHlsZT0iaXRhbGljIiBsZW5ndGhBZGp1c3Q9InNwYWNpbmciIHRleHRMZW5ndGg9IjczIiB4PSI5OTMiIHk9Ijc4MC4yMzQ0Ij4mIzE3MTtzb2Z0d2FyZSYjMTg3OzwvdGV4dD48dGV4dCBmaWxsPSIjMDAwMDAwIiBmb250LWZhbWlseT0ic2Fucy1zZXJpZiIgZm9udC1zaXplPSIxNCIgbGVuZ3RoQWRqdXN0PSJzcGFjaW5nIiB0ZXh0TGVuZ3RoPSIyOCIgeD0iMTAxNS41IiB5PSI3OTUuMjE4OCI+UUdJUzwvdGV4dD48L2c+PCEtLWVudGl0eSBkYXRhYmFzZVNlcnZlckhhcmR3YXJlLS0+PGcgaWQ9ImVsZW1fZGF0YWJhc2VTZXJ2ZXJIYXJkd2FyZSI+PHJlY3QgZmlsbD0iI0YxRjFGMSIgaGVpZ2h0PSI0OS45Njg4IiByeD0iMi41IiByeT0iMi41IiBzdHlsZT0ic3Ryb2tlOiMxODE4MTg7c3Ryb2tlLXdpZHRoOjAuNTsiIHdpZHRoPSIxMjUiIHg9IjEwOTMiIHk9IjYzMiIvPjx0ZXh0IGZpbGw9IiMwMDAwMDAiIGZvbnQtZmFtaWx5PSJzYW5zLXNlcmlmIiBmb250LXNpemU9IjE0IiBmb250LXN0eWxlPSJpdGFsaWMiIGxlbmd0aEFkanVzdD0ic3BhY2luZyIgdGV4dExlbmd0aD0iNzMiIHg9IjExMTkiIHk9IjY1NS4yMzQ0Ij4mIzE3MTtoYXJkd2FyZSYjMTg3OzwvdGV4dD48dGV4dCBmaWxsPSIjMDAwMDAwIiBmb250LWZhbWlseT0ic2Fucy1zZXJpZiIgZm9udC1zaXplPSIxNCIgbGVuZ3RoQWRqdXN0PSJzcGFjaW5nIiB0ZXh0TGVuZ3RoPSIxMDUiIHg9IjExMDMiIHk9IjY3MC4yMTg4Ij5EYXRhYmFzZSBzZXJ2ZXI8L3RleHQ+PC9nPjwhLS1saW5rIGhhemFyZElkZW50aWZpY2F0aW9uIHRvIHJpc2tBc3Nlc3NtZW50LS0+PGcgaWQ9ImxpbmtfaGF6YXJkSWRlbnRpZmljYXRpb25fcmlza0Fzc2Vzc21lbnQiPjxwYXRoIGQ9Ik0xMDgyLjgsNDAuNzIgQzk2NC4zNiw1NC45NiA3NjkuNiw5Mi41MyA4MzkuNSwxODIgQzg3OS41NSwyMzMuMjYgMTA2NS41MSwyNjEuODUgMTE2OC4wOSwyNzMuOTcgIiBmaWxsPSJub25lIiBpZD0iaGF6YXJkSWRlbnRpZmljYXRpb24tdG8tcmlza0Fzc2Vzc21lbnQiIHN0eWxlPSJzdHJva2U6IzE4MTgxODtzdHJva2Utd2lkdGg6MS4wOyIvPjxwb2x5Z29uIGZpbGw9IiMxODE4MTgiIHBvaW50cz0iMTE3My4yMiwyNzQuNTcsMTE2NC43MzczLDI2OS41NjU3LDExNjguMjUyOSwyNzMuOTk3NCwxMTYzLjgyMTEsMjc3LjUxMywxMTczLjIyLDI3NC41NyIgc3R5bGU9InN0cm9rZTojMTgxODE4O3N0cm9rZS13aWR0aDoxLjA7Ii8+PHRleHQgZmlsbD0iIzAwMDAwMCIgZm9udC1mYW1pbHk9InNhbnMtc2VyaWYiIGZvbnQtc2l6ZT0iMTMiIGxlbmd0aEFkanVzdD0ic3BhY2luZyIgdGV4dExlbmd0aD0iNDYiIHg9Ijg0MC41IiB5PSIxNjIuNzg5MSI+aW5mb3JtczwvdGV4dD48L2c+PCEtLWxpbmsgcmlza0Fzc2Vzc21lbnQgdG8gZGF0YU1hbmFnZW1lbnQtLT48ZyBpZD0ibGlua19yaXNrQXNzZXNzbWVudF9kYXRhTWFuYWdlbWVudCI+PHBhdGggZD0iTTEyMDIuMzQsMzA3LjAxIEMxMTczLjA1LDMyNy42IDExMzAuODUsMzU3LjI2IDExMDAuMjksMzc4Ljc0ICIgZmlsbD0ibm9uZSIgaWQ9InJpc2tBc3Nlc3NtZW50LXRvLWRhdGFNYW5hZ2VtZW50IiBzdHlsZT0ic3Ryb2tlOiMxODE4MTg7c3Ryb2tlLXdpZHRoOjEuMDsiLz48cG9seWdvbiBmaWxsPSIjMTgxODE4IiBwb2ludHM9IjEwOTUuODcsMzgxLjg0LDExMDUuNTI4OSwzNzkuOTE1MSwxMDk5Ljk1NCwzNzguOTU1NSwxMTAwLjkxMzcsMzczLjM4MDYsMTA5NS44NywzODEuODQiIHN0eWxlPSJzdHJva2U6IzE4MTgxODtzdHJva2Utd2lkdGg6MS4wOyIvPjx0ZXh0IGZpbGw9IiMwMDAwMDAiIGZvbnQtZmFtaWx5PSJzYW5zLXNlcmlmIiBmb250LXNpemU9IjEzIiBsZW5ndGhBZGp1c3Q9InNwYWNpbmciIHRleHRMZW5ndGg9IjI4IiB4PSIxMTYwLjUiIHk9IjM1MC4yODkxIj51c2VzPC90ZXh0PjwvZz48IS0tbGluayBkYXRhTWFuYWdlbWVudCB0byBtYXBwaW5nVmlzdWFsaXphdGlvbi0tPjxnIGlkPSJsaW5rX2RhdGFNYW5hZ2VtZW50X21hcHBpbmdWaXN1YWxpemF0aW9uIj48cGF0aCBkPSJNOTk3Ljg2LDQyMy40NyBDOTY1LjY2LDQzMi41MiA5MjYuNSw0NDUuNDYgODkzLjUsNDYyIEM4NzAuODMsNDczLjM2IDg0Ny42LDQ4OS42OSA4MjkuNTYsNTAzLjYxICIgZmlsbD0ibm9uZSIgaWQ9ImRhdGFNYW5hZ2VtZW50LXRvLW1hcHBpbmdWaXN1YWxpemF0aW9uIiBzdHlsZT0ic3Ryb2tlOiMxODE4MTg7c3Ryb2tlLXdpZHRoOjEuMDsiLz48cG9seWdvbiBmaWxsPSIjMTgxODE4IiBwb2ludHM9IjgyNS41Niw1MDYuNzIsODM1LjExODEsNTA0LjM0NDgsODI5LjUwNDUsNTAzLjY0NzMsODMwLjIwMTksNDk4LjAzMzYsODI1LjU2LDUwNi43MiIgc3R5bGU9InN0cm9rZTojMTgxODE4O3N0cm9rZS13aWR0aDoxLjA7Ii8+PHRleHQgZmlsbD0iIzAwMDAwMCIgZm9udC1mYW1pbHk9InNhbnMtc2VyaWYiIGZvbnQtc2l6ZT0iMTMiIGxlbmd0aEFkanVzdD0ic3BhY2luZyIgdGV4dExlbmd0aD0iMTE2IiB4PSI4OTQuNSIgeT0iNDc1LjI4OTEiPnByb3ZpZGVzIGRhdGEgZm9yPC90ZXh0PjwvZz48IS0tbGluayBtYXBwaW5nVmlzdWFsaXphdGlvbiB0byBtaXRpZ2F0aW9uUmVzcG9uc2VQbGFubmluZy0tPjxnIGlkPSJsaW5rX21hcHBpbmdWaXN1YWxpemF0aW9uX21pdGlnYXRpb25SZXNwb25zZVBsYW5uaW5nIj48cGF0aCBkPSJNNzQyLjA0LDU1Ny4wMSBDNjk0LjU3LDU3Ny45NCA2MjUuODYsNjA4LjIzIDU3Ni45Niw2MjkuNzggIiBmaWxsPSJub25lIiBpZD0ibWFwcGluZ1Zpc3VhbGl6YXRpb24tdG8tbWl0aWdhdGlvblJlc3BvbnNlUGxhbm5pbmciIHN0eWxlPSJzdHJva2U6IzE4MTgxODtzdHJva2Utd2lkdGg6MS4wOyIvPjxwb2x5Z29uIGZpbGw9IiMxODE4MTgiIHBvaW50cz0iNTcyLjMsNjMxLjg0LDU4Mi4xNDg4LDYzMS44NTcxLDU3Ni44NzI2LDYyOS44MTcyLDU3OC45MTI0LDYyNC41NDEsNTcyLjMsNjMxLjg0IiBzdHlsZT0ic3Ryb2tlOiMxODE4MTg7c3Ryb2tlLXdpZHRoOjEuMDsiLz48dGV4dCBmaWxsPSIjMDAwMDAwIiBmb250LWZhbWlseT0ic2Fucy1zZXJpZiIgZm9udC1zaXplPSIxMyIgbGVuZ3RoQWRqdXN0PSJzcGFjaW5nIiB0ZXh0TGVuZ3RoPSI0NiIgeD0iNjc1LjUiIHk9IjYwMC4yODkxIj5pbmZvcm1zPC90ZXh0PjwvZz48IS0tbGluayBoYXphcmRJZGVudGlmaWNhdGlvbiB0byBjaGVtaWNhbFBsYW50TG9jYXRpb25JZGVudGlmaWNhdGlvbi0tPjxnIGlkPSJsaW5rX2hhemFyZElkZW50aWZpY2F0aW9uX2NoZW1pY2FsUGxhbnRMb2NhdGlvbklkZW50aWZpY2F0aW9uIj48cGF0aCBkPSJNMTE0My40Nyw1Ny4wMSBDMTEyMy45NCw3Ny4zNiAxMDk1LjkxLDEwNi41OCAxMDc1LjM2LDEyOCAiIGZpbGw9Im5vbmUiIGlkPSJoYXphcmRJZGVudGlmaWNhdGlvbi10by1jaGVtaWNhbFBsYW50TG9jYXRpb25JZGVudGlmaWNhdGlvbiIgc3R5bGU9InN0cm9rZTojMTgxODE4O3N0cm9rZS13aWR0aDoxLjA7Ii8+PHBvbHlnb24gZmlsbD0iIzE4MTgxOCIgcG9pbnRzPSIxMDcxLjg4LDEzMS42MywxMDgxLjAwNjYsMTI3LjkyNzksMTA3NS4zNTA3LDEyOC4wMzA4LDEwNzUuMjQ3OCwxMjIuMzc0OSwxMDcxLjg4LDEzMS42MyIgc3R5bGU9InN0cm9rZTojMTgxODE4O3N0cm9rZS13aWR0aDoxLjA7Ii8+PHRleHQgZmlsbD0iIzAwMDAwMCIgZm9udC1mYW1pbHk9InNhbnMtc2VyaWYiIGZvbnQtc2l6ZT0iMTMiIGxlbmd0aEFkanVzdD0ic3BhY2luZyIgdGV4dExlbmd0aD0iNTQiIHg9IjExMTYuNSIgeT0iMTAwLjI4OTEiPmluY2x1ZGVzPC90ZXh0PjwvZz48IS0tbGluayBoYXphcmRJZGVudGlmaWNhdGlvbiB0byBoYXphcmRvdXNNYXRlcmlhbFRyYW5zcG9ydGF0aW9uUm91dGVJZGVudGlmaWNhdGlvbi0tPjxnIGlkPSJsaW5rX2hhemFyZElkZW50aWZpY2F0aW9uX2hhemFyZG91c01hdGVyaWFsVHJhbnNwb3J0YXRpb25Sb3V0ZUlkZW50aWZpY2F0aW9uIj48cGF0aCBkPSJNMTIxNy4yNSw1Ny4wMSBDMTI2MS40LDc3Ljg5IDEzMjUuMjYsMTA4LjExIDEzNzAuODEsMTI5LjY1ICIgZmlsbD0ibm9uZSIgaWQ9ImhhemFyZElkZW50aWZpY2F0aW9uLXRvLWhhemFyZG91c01hdGVyaWFsVHJhbnNwb3J0YXRpb25Sb3V0ZUlkZW50aWZpY2F0aW9uIiBzdHlsZT0ic3Ryb2tlOiMxODE4MTg7c3Ryb2tlLXdpZHRoOjEuMDsiLz48cG9seWdvbiBmaWxsPSIjMTgxODE4IiBwb2ludHM9IjEzNzUuNDQsMTMxLjg0LDEzNjkuMDE1NywxMjQuMzc0OSwxMzcwLjkyMDQsMTI5LjcwMTQsMTM2NS41OTM5LDEzMS42MDYyLDEzNzUuNDQsMTMxLjg0IiBzdHlsZT0ic3Ryb2tlOiMxODE4MTg7c3Ryb2tlLXdpZHRoOjEuMDsiLz48dGV4dCBmaWxsPSIjMDAwMDAwIiBmb250LWZhbWlseT0ic2Fucy1zZXJpZiIgZm9udC1zaXplPSIxMyIgbGVuZ3RoQWRqdXN0PSJzcGFjaW5nIiB0ZXh0TGVuZ3RoPSI1NCIgeD0iMTMxMy41IiB5PSIxMDAuMjg5MSI+aW5jbHVkZXM8L3RleHQ+PC9nPjwhLS1saW5rIGhhemFyZElkZW50aWZpY2F0aW9uIHRvIG90aGVyUG90ZW50aWFsU291cmNlc09mQ2hlbWljYWxIYXphcmRzSWRlbnRpZmljYXRpb24tLT48ZyBpZD0ibGlua19oYXphcmRJZGVudGlmaWNhdGlvbl9vdGhlclBvdGVudGlhbFNvdXJjZXNPZkNoZW1pY2FsSGF6YXJkc0lkZW50aWZpY2F0aW9uIj48cGF0aCBkPSJNMTI1MC4xNSw0Ny41MyBDMTM2OC40OSw2OC4wOSAxNTg2LjQ1LDEwNS45NiAxNzMwLjk1LDEzMS4wNiAiIGZpbGw9Im5vbmUiIGlkPSJoYXphcmRJZGVudGlmaWNhdGlvbi10by1vdGhlclBvdGVudGlhbFNvdXJjZXNPZkNoZW1pY2FsSGF6YXJkc0lkZW50aWZpY2F0aW9uIiBzdHlsZT0ic3Ryb2tlOiMxODE4MTg7c3Ryb2tlLXdpZHRoOjEuMDsiLz48cG9seWdvbiBmaWxsPSIjMTgxODE4IiBwb2ludHM9IjE3MzYuMDYsMTMxLjk1LDE3MjcuODc4NSwxMjYuNDY3MSwxNzMxLjEzMzksMTMxLjA5MzMsMTcyNi41MDc3LDEzNC4zNDg4LDE3MzYuMDYsMTMxLjk1IiBzdHlsZT0ic3Ryb2tlOiMxODE4MTg7c3Ryb2tlLXdpZHRoOjEuMDsiLz48dGV4dCBmaWxsPSIjMDAwMDAwIiBmb250LWZhbWlseT0ic2Fucy1zZXJpZiIgZm9udC1zaXplPSIxMyIgbGVuZ3RoQWRqdXN0PSJzcGFjaW5nIiB0ZXh0TGVuZ3RoPSI1NCIgeD0iMTU2NC41IiB5PSIxMDAuMjg5MSI+aW5jbHVkZXM8L3RleHQ+PC9nPjwhLS1saW5rIGNoZW1pY2FsUGxhbnRMb2NhdGlvbklkZW50aWZpY2F0aW9uIHRvIHJpc2tBc3Nlc3NtZW50LS0+PGcgaWQ9ImxpbmtfY2hlbWljYWxQbGFudExvY2F0aW9uSWRlbnRpZmljYXRpb25fcmlza0Fzc2Vzc21lbnQiPjxwYXRoIGQ9Ik0xMDg1LjE5LDE4Mi4wMSBDMTExNi43OSwyMDIuNjggMTE2Mi4zNywyMzIuNSAxMTk1LjIzLDI1NCAiIGZpbGw9Im5vbmUiIGlkPSJjaGVtaWNhbFBsYW50TG9jYXRpb25JZGVudGlmaWNhdGlvbi10by1yaXNrQXNzZXNzbWVudCIgc3R5bGU9InN0cm9rZTojMTgxODE4O3N0cm9rZS13aWR0aDoxLjA7c3Ryb2tlLWRhc2hhcnJheTo3LjAsNy4wOyIvPjxwb2x5Z29uIGZpbGw9IiMxODE4MTgiIHBvaW50cz0iMTE5OS41OCwyNTYuODQsMTE5NC4yNDQ2LDI0OC41NjE1LDExOTUuMzk3OSwyNTQuMDk5NSwxMTg5Ljg1OTksMjU1LjI1MjgsMTE5OS41OCwyNTYuODQiIHN0eWxlPSJzdHJva2U6IzE4MTgxODtzdHJva2Utd2lkdGg6MS4wOyIvPjx0ZXh0IGZpbGw9IiMwMDAwMDAiIGZvbnQtZmFtaWx5PSJzYW5zLXNlcmlmIiBmb250LXNpemU9IjEzIiBsZW5ndGhBZGp1c3Q9InNwYWNpbmciIHRleHRMZW5ndGg9IjQ2IiB4PSIxMTU1LjUiIHk9IjIyNS4yODkxIj5pbmZvcm1zPC90ZXh0PjwvZz48IS0tbGluayBoYXphcmRvdXNNYXRlcmlhbFRyYW5zcG9ydGF0aW9uUm91dGVJZGVudGlmaWNhdGlvbiB0byByaXNrQXNzZXNzbWVudC0tPjxnIGlkPSJsaW5rX2hhemFyZG91c01hdGVyaWFsVHJhbnNwb3J0YXRpb25Sb3V0ZUlkZW50aWZpY2F0aW9uX3Jpc2tBc3Nlc3NtZW50Ij48cGF0aCBkPSJNMTM4OS40MiwxODIuMDEgQzEzNTcuNDgsMjAyLjY4IDEzMTEuNDIsMjMyLjUgMTI3OC4yMSwyNTQgIiBmaWxsPSJub25lIiBpZD0iaGF6YXJkb3VzTWF0ZXJpYWxUcmFuc3BvcnRhdGlvblJvdXRlSWRlbnRpZmljYXRpb24tdG8tcmlza0Fzc2Vzc21lbnQiIHN0eWxlPSJzdHJva2U6IzE4MTgxODtzdHJva2Utd2lkdGg6MS4wO3N0cm9rZS1kYXNoYXJyYXk6Ny4wLDcuMDsiLz48cG9seWdvbiBmaWxsPSIjMTgxODE4IiBwb2ludHM9IjEyNzMuODIsMjU2Ljg0LDEyODMuNTQ3NiwyNTUuMjk5NCwxMjc4LjAxNTIsMjU0LjExOTYsMTI3OS4xOTUsMjQ4LjU4NzEsMTI3My44MiwyNTYuODQiIHN0eWxlPSJzdHJva2U6IzE4MTgxODtzdHJva2Utd2lkdGg6MS4wOyIvPjx0ZXh0IGZpbGw9IiMwMDAwMDAiIGZvbnQtZmFtaWx5PSJzYW5zLXNlcmlmIiBmb250LXNpemU9IjEzIiBsZW5ndGhBZGp1c3Q9InNwYWNpbmciIHRleHRMZW5ndGg9IjQ2IiB4PSIxMzQ0LjUiIHk9IjIyNS4yODkxIj5pbmZvcm1zPC90ZXh0PjwvZz48IS0tbGluayBvdGhlclBvdGVudGlhbFNvdXJjZXNPZkNoZW1pY2FsSGF6YXJkc0lkZW50aWZpY2F0aW9uIHRvIHJpc2tBc3Nlc3NtZW50LS0+PGcgaWQ9Imxpbmtfb3RoZXJQb3RlbnRpYWxTb3VyY2VzT2ZDaGVtaWNhbEhhemFyZHNJZGVudGlmaWNhdGlvbl9yaXNrQXNzZXNzbWVudCI+PHBhdGggZD0iTTE3NDkuOTcsMTgyLjAxIEMxNjE2LjgyLDIwNy42OCAxNDEwLjU4LDI0Ny40NCAxMzA0LjU1LDI2Ny44OCAiIGZpbGw9Im5vbmUiIGlkPSJvdGhlclBvdGVudGlhbFNvdXJjZXNPZkNoZW1pY2FsSGF6YXJkc0lkZW50aWZpY2F0aW9uLXRvLXJpc2tBc3Nlc3NtZW50IiBzdHlsZT0ic3Ryb2tlOiMxODE4MTg7c3Ryb2tlLXdpZHRoOjEuMDtzdHJva2UtZGFzaGFycmF5OjcuMCw3LjA7Ii8+PHBvbHlnb24gZmlsbD0iIzE4MTgxOCIgcG9pbnRzPSIxMjk5LjU4LDI2OC44NCwxMzA5LjE3MjUsMjcxLjA3MjUsMTMwNC40OTA0LDI2Ny44OTc5LDEzMDcuNjY1MSwyNjMuMjE1OCwxMjk5LjU4LDI2OC44NCIgc3R5bGU9InN0cm9rZTojMTgxODE4O3N0cm9rZS13aWR0aDoxLjA7Ii8+PHRleHQgZmlsbD0iIzAwMDAwMCIgZm9udC1mYW1pbHk9InNhbnMtc2VyaWYiIGZvbnQtc2l6ZT0iMTMiIGxlbmd0aEFkanVzdD0ic3BhY2luZyIgdGV4dExlbmd0aD0iNDYiIHg9IjE1OTUuNSIgeT0iMjI1LjI4OTEiPmluZm9ybXM8L3RleHQ+PC9nPjwhLS1saW5rIHJpc2tBc3Nlc3NtZW50IHRvIGxpa2VsaWhvb2RBbmFseXNpcy0tPjxnIGlkPSJsaW5rX3Jpc2tBc3Nlc3NtZW50X2xpa2VsaWhvb2RBbmFseXNpcyI+PHBhdGggZD0iTTEyMzYuNSwzMDcuMDEgQzEyMzYuNSwzMjYuODYgMTIzNi41LDM1NS4xNCAxMjM2LjUsMzc2LjM5ICIgZmlsbD0ibm9uZSIgaWQ9InJpc2tBc3Nlc3NtZW50LXRvLWxpa2VsaWhvb2RBbmFseXNpcyIgc3R5bGU9InN0cm9rZTojMTgxODE4O3N0cm9rZS13aWR0aDoxLjA7Ii8+PHBvbHlnb24gZmlsbD0iIzE4MTgxOCIgcG9pbnRzPSIxMjM2LjUsMzgxLjYzLDEyNDAuNSwzNzIuNjMsMTIzNi41LDM3Ni42MywxMjMyLjUsMzcyLjYzLDEyMzYuNSwzODEuNjMiIHN0eWxlPSJzdHJva2U6IzE4MTgxODtzdHJva2Utd2lkdGg6MS4wOyIvPjx0ZXh0IGZpbGw9IiMwMDAwMDAiIGZvbnQtZmFtaWx5PSJzYW5zLXNlcmlmIiBmb250LXNpemU9IjEzIiBsZW5ndGhBZGp1c3Q9InNwYWNpbmciIHRleHRMZW5ndGg9IjU0IiB4PSIxMjM3LjUiIHk9IjM1MC4yODkxIj5pbmNsdWRlczwvdGV4dD48L2c+PCEtLWxpbmsgcmlza0Fzc2Vzc21lbnQgdG8gaW1wYWN0QW5hbHlzaXMtLT48ZyBpZD0ibGlua19yaXNrQXNzZXNzbWVudF9pbXBhY3RBbmFseXNpcyI+PHBhdGggZD0iTTEyNzAuNjYsMzA3LjAxIEMxMjk5Ljk1LDMyNy42IDEzNDIuMTUsMzU3LjI2IDEzNzIuNzEsMzc4Ljc0ICIgZmlsbD0ibm9uZSIgaWQ9InJpc2tBc3Nlc3NtZW50LXRvLWltcGFjdEFuYWx5c2lzIiBzdHlsZT0ic3Ryb2tlOiMxODE4MTg7c3Ryb2tlLXdpZHRoOjEuMDsiLz48cG9seWdvbiBmaWxsPSIjMTgxODE4IiBwb2ludHM9IjEzNzcuMTMsMzgxLjg0LDEzNzIuMDg2MywzNzMuMzgwNiwxMzczLjA0NiwzNzguOTU1NSwxMzY3LjQ3MTEsMzc5LjkxNTEsMTM3Ny4xMywzODEuODQiIHN0eWxlPSJzdHJva2U6IzE4MTgxODtzdHJva2Utd2lkdGg6MS4wOyIvPjx0ZXh0IGZpbGw9IiMwMDAwMDAiIGZvbnQtZmFtaWx5PSJzYW5zLXNlcmlmIiBmb250LXNpemU9IjEzIiBsZW5ndGhBZGp1c3Q9InNwYWNpbmciIHRleHRMZW5ndGg9IjU0IiB4PSIxMzM1LjUiIHk9IjM1MC4yODkxIj5pbmNsdWRlczwvdGV4dD48L2c+PCEtLWxpbmsgZGF0YU1hbmFnZW1lbnQgdG8gZGF0YU9yZ2FuaXphdGlvbi0tPjxnIGlkPSJsaW5rX2RhdGFNYW5hZ2VtZW50X2RhdGFPcmdhbml6YXRpb24iPjxwYXRoIGQ9Ik0xMDQ0LjQ2LDQzMi4xNCBDMTAzOC4zOSw0NDEuMjcgMTAzMS43Nyw0NTEuODkgMTAyNi41LDQ2MiBDMTAxOS44Niw0NzQuNzUgMTAxMy43LDQ4OS40NSAxMDA4Ljg2LDUwMiAiIGZpbGw9Im5vbmUiIGlkPSJkYXRhTWFuYWdlbWVudC10by1kYXRhT3JnYW5pemF0aW9uIiBzdHlsZT0ic3Ryb2tlOiMxODE4MTg7c3Ryb2tlLXdpZHRoOjEuMDsiLz48cG9seWdvbiBmaWxsPSIjMTgxODE4IiBwb2ludHM9IjEwMDcuMDEsNTA2Ljg3LDEwMTMuOTU5OSw0OTkuODkxNSwxMDA4Ljc5NTMsNTAyLjE5OTYsMTAwNi40ODczLDQ5Ny4wMzUsMTAwNy4wMSw1MDYuODciIHN0eWxlPSJzdHJva2U6IzE4MTgxODtzdHJva2Utd2lkdGg6MS4wOyIvPjx0ZXh0IGZpbGw9IiMwMDAwMDAiIGZvbnQtZmFtaWx5PSJzYW5zLXNlcmlmIiBmb250LXNpemU9IjEzIiBsZW5ndGhBZGp1c3Q9InNwYWNpbmciIHRleHRMZW5ndGg9IjU0IiB4PSIxMDI3LjUiIHk9IjQ3NS4yODkxIj5pbmNsdWRlczwvdGV4dD48L2c+PCEtLWxpbmsgZGF0YU1hbmFnZW1lbnQgdG8gZGF0YVN0b3JhZ2UtLT48ZyBpZD0ibGlua19kYXRhTWFuYWdlbWVudF9kYXRhU3RvcmFnZSI+PHBhdGggZD0iTTEwNzkuODUsNDMyLjAxIEMxMDk1LjI3LDQ1Mi4xOSAxMTE3LjM2LDQ4MS4xIDExMzMuNjksNTAyLjQ2ICIgZmlsbD0ibm9uZSIgaWQ9ImRhdGFNYW5hZ2VtZW50LXRvLWRhdGFTdG9yYWdlIiBzdHlsZT0ic3Ryb2tlOiMxODE4MTg7c3Ryb2tlLXdpZHRoOjEuMDsiLz48cG9seWdvbiBmaWxsPSIjMTgxODE4IiBwb2ludHM9IjExMzYuODgsNTA2LjYzLDExMzQuNjAzMiw0OTcuMDQ3OSwxMTMzLjg0ODEsNTAyLjY1NDIsMTEyOC4yNDE4LDUwMS44OTksMTEzNi44OCw1MDYuNjMiIHN0eWxlPSJzdHJva2U6IzE4MTgxODtzdHJva2Utd2lkdGg6MS4wOyIvPjx0ZXh0IGZpbGw9IiMwMDAwMDAiIGZvbnQtZmFtaWx5PSJzYW5zLXNlcmlmIiBmb250LXNpemU9IjEzIiBsZW5ndGhBZGp1c3Q9InNwYWNpbmciIHRleHRMZW5ndGg9IjU0IiB4PSIxMTE1LjUiIHk9IjQ3NS4yODkxIj5pbmNsdWRlczwvdGV4dD48L2c+PCEtLWxpbmsgZGF0YU1hbmFnZW1lbnQgdG8gZGF0YUFuYWx5c2lzLS0+PGcgaWQ9ImxpbmtfZGF0YU1hbmFnZW1lbnRfZGF0YUFuYWx5c2lzIj48cGF0aCBkPSJNMTExNi4xNiw0MzIgQzExMzUuOTgsNDQxLjAzIDExNTguNDMsNDUxLjYyIDExNzguNSw0NjIgQzEyMDQuMDIsNDc1LjE5IDEyMzEuODcsNDkxLjExIDEyNTQuMzEsNTA0LjMzICIgZmlsbD0ibm9uZSIgaWQ9ImRhdGFNYW5hZ2VtZW50LXRvLWRhdGFBbmFseXNpcyIgc3R5bGU9InN0cm9rZTojMTgxODE4O3N0cm9rZS13aWR0aDoxLjA7Ii8+PHBvbHlnb24gZmlsbD0iIzE4MTgxOCIgcG9pbnRzPSIxMjU4LjcyLDUwNi45MywxMjUyLjk5NzYsNDk4LjkxNDEsMTI1NC40MTI1LDUwNC4zOTEyLDEyNDguOTM1NSw1MDUuODA2MSwxMjU4LjcyLDUwNi45MyIgc3R5bGU9InN0cm9rZTojMTgxODE4O3N0cm9rZS13aWR0aDoxLjA7Ii8+PHRleHQgZmlsbD0iIzAwMDAwMCIgZm9udC1mYW1pbHk9InNhbnMtc2VyaWYiIGZvbnQtc2l6ZT0iMTMiIGxlbmd0aEFkanVzdD0ic3BhY2luZyIgdGV4dExlbmd0aD0iNTQiIHg9IjEyMDYuNSIgeT0iNDc1LjI4OTEiPmluY2x1ZGVzPC90ZXh0PjwvZz48IS0tbGluayBtYXBwaW5nVmlzdWFsaXphdGlvbiB0byBnaXNTb2Z0d2FyZS0tPjxnIGlkPSJsaW5rX21hcHBpbmdWaXN1YWxpemF0aW9uX2dpc1NvZnR3YXJlIj48cGF0aCBkPSJNODE2Ljk5LDU1Ny4wMSBDODM0LjMsNTc3LjI4IDg1OS4xMSw2MDYuMzQgODc3LjM3LDYyNy43MyAiIGZpbGw9Im5vbmUiIGlkPSJtYXBwaW5nVmlzdWFsaXphdGlvbi10by1naXNTb2Z0d2FyZSIgc3R5bGU9InN0cm9rZTojMTgxODE4O3N0cm9rZS13aWR0aDoxLjA7Ii8+PHBvbHlnb24gZmlsbD0iIzE4MTgxOCIgcG9pbnRzPSI4ODAuNyw2MzEuNjMsODc3Ljg3OTksNjIyLjE5MzUsODc3LjQ0Niw2MjcuODMzNyw4NzEuODA1OSw2MjcuMzk5OSw4ODAuNyw2MzEuNjMiIHN0eWxlPSJzdHJva2U6IzE4MTgxODtzdHJva2Utd2lkdGg6MS4wOyIvPjx0ZXh0IGZpbGw9IiMwMDAwMDAiIGZvbnQtZmFtaWx5PSJzYW5zLXNlcmlmIiBmb250LXNpemU9IjEzIiBsZW5ndGhBZGp1c3Q9InNwYWNpbmciIHRleHRMZW5ndGg9IjI4IiB4PSI4NTYuNSIgeT0iNjAwLjI4OTEiPnVzZXM8L3RleHQ+PC9nPjwhLS1saW5rIG1pdGlnYXRpb25SZXNwb25zZVBsYW5uaW5nIHRvIGV2YWN1YXRpb25QbGFubmluZy0tPjxnIGlkPSJsaW5rX21pdGlnYXRpb25SZXNwb25zZVBsYW5uaW5nX2V2YWN1YXRpb25QbGFubmluZyI+PHBhdGggZD0iTTQzMi43OSw2ODIuMDEgQzM1NS40Myw3MDMuOTMgMjQxLjc5LDczNi4xNCAxNjUuMzQsNzU3LjgxICIgZmlsbD0ibm9uZSIgaWQ9Im1pdGlnYXRpb25SZXNwb25zZVBsYW5uaW5nLXRvLWV2YWN1YXRpb25QbGFubmluZyIgc3R5bGU9InN0cm9rZTojMTgxODE4O3N0cm9rZS13aWR0aDoxLjA7Ii8+PHBvbHlnb24gZmlsbD0iIzE4MTgxOCIgcG9pbnRzPSIxNjAuMzYsNzU5LjIyLDE3MC4xMTE1LDc2MC42MDEzLDE2NS4xNjg3LDc1Ny44NTAyLDE2Ny45MTk4LDc1Mi45MDczLDE2MC4zNiw3NTkuMjIiIHN0eWxlPSJzdHJva2U6IzE4MTgxODtzdHJva2Utd2lkdGg6MS4wOyIvPjx0ZXh0IGZpbGw9IiMwMDAwMDAiIGZvbnQtZmFtaWx5PSJzYW5zLXNlcmlmIiBmb250LXNpemU9IjEzIiBsZW5ndGhBZGp1c3Q9InNwYWNpbmciIHRleHRMZW5ndGg9IjU0IiB4PSIzMjcuNSIgeT0iNzI1LjI4OTEiPmluY2x1ZGVzPC90ZXh0PjwvZz48IS0tbGluayBtaXRpZ2F0aW9uUmVzcG9uc2VQbGFubmluZyB0byBlbWVyZ2VuY3lSZXNwb25zZVJlc291cmNlSWRlbnRpZmljYXRpb24tLT48ZyBpZD0ibGlua19taXRpZ2F0aW9uUmVzcG9uc2VQbGFubmluZ19lbWVyZ2VuY3lSZXNwb25zZVJlc291cmNlSWRlbnRpZmljYXRpb24iPjxwYXRoIGQ9Ik00ODUuMjksNjgyLjAxIEM0NTcuNjcsNzAyLjYgNDE3Ljg5LDczMi4yNiAzODkuMDcsNzUzLjc0ICIgZmlsbD0ibm9uZSIgaWQ9Im1pdGlnYXRpb25SZXNwb25zZVBsYW5uaW5nLXRvLWVtZXJnZW5jeVJlc3BvbnNlUmVzb3VyY2VJZGVudGlmaWNhdGlvbiIgc3R5bGU9InN0cm9rZTojMTgxODE4O3N0cm9rZS13aWR0aDoxLjA7Ii8+PHBvbHlnb24gZmlsbD0iIzE4MTgxOCIgcG9pbnRzPSIzODQuOTEsNzU2Ljg0LDM5NC41MTg3LDc1NC42Nzg0LDM4OC45MjIsNzUzLjg1NiwzODkuNzQ0Myw3NDguMjU5MywzODQuOTEsNzU2Ljg0IiBzdHlsZT0ic3Ryb2tlOiMxODE4MTg7c3Ryb2tlLXdpZHRoOjEuMDsiLz48dGV4dCBmaWxsPSIjMDAwMDAwIiBmb250LWZhbWlseT0ic2Fucy1zZXJpZiIgZm9udC1zaXplPSIxMyIgbGVuZ3RoQWRqdXN0PSJzcGFjaW5nIiB0ZXh0TGVuZ3RoPSI1NCIgeD0iNDQ2LjUiIHk9IjcyNS4yODkxIj5pbmNsdWRlczwvdGV4dD48L2c+PCEtLWxpbmsgbWl0aWdhdGlvblJlc3BvbnNlUGxhbm5pbmcgdG8gY29tbXVuaWNhdGlvblByb3RvY29sRXN0YWJsaXNobWVudC0tPjxnIGlkPSJsaW5rX21pdGlnYXRpb25SZXNwb25zZVBsYW5uaW5nX2NvbW11bmljYXRpb25Qcm90b2NvbEVzdGFibGlzaG1lbnQiPjxwYXRoIGQ9Ik01NDkuNzEsNjgyLjAxIEM1NzcuMzMsNzAyLjYgNjE3LjExLDczMi4yNiA2NDUuOTMsNzUzLjc0ICIgZmlsbD0ibm9uZSIgaWQ9Im1pdGlnYXRpb25SZXNwb25zZVBsYW5uaW5nLXRvLWNvbW11bmljYXRpb25Qcm90b2NvbEVzdGFibGlzaG1lbnQiIHN0eWxlPSJzdHJva2U6IzE4MTgxODtzdHJva2Utd2lkdGg6MS4wOyIvPjxwb2x5Z29uIGZpbGw9IiMxODE4MTgiIHBvaW50cz0iNjUwLjA5LDc1Ni44NCw2NDUuMjU1Nyw3NDguMjU5Myw2NDYuMDc4LDc1My44NTYsNjQwLjQ4MTMsNzU0LjY3ODQsNjUwLjA5LDc1Ni44NCIgc3R5bGU9InN0cm9rZTojMTgxODE4O3N0cm9rZS13aWR0aDoxLjA7Ii8+PHRleHQgZmlsbD0iIzAwMDAwMCIgZm9udC1mYW1pbHk9InNhbnMtc2VyaWYiIGZvbnQtc2l6ZT0iMTMiIGxlbmd0aEFkanVzdD0ic3BhY2luZyIgdGV4dExlbmd0aD0iNTQiIHg9IjYxMS41IiB5PSI3MjUuMjg5MSI+aW5jbHVkZXM8L3RleHQ+PC9nPjwhLS1saW5rIGdpc1NvZnR3YXJlIHRvIGFyY2dpc1NvZnR3YXJlLS0+PGcgaWQ9ImxpbmtfZ2lzU29mdHdhcmVfYXJjZ2lzU29mdHdhcmUiPjxwYXRoIGQ9Ik05MDEuNSw2ODIuMDEgQzkwMS41LDcwMS44NiA5MDEuNSw3MzAuMTQgOTAxLjUsNzUxLjM5ICIgZmlsbD0ibm9uZSIgaWQ9Imdpc1NvZnR3YXJlLXRvLWFyY2dpc1NvZnR3YXJlIiBzdHlsZT0ic3Ryb2tlOiMxODE4MTg7c3Ryb2tlLXdpZHRoOjEuMDsiLz48cG9seWdvbiBmaWxsPSIjMTgxODE4IiBwb2ludHM9IjkwMS41LDc1Ni42Myw5MDUuNSw3NDcuNjMsOTAxLjUsNzUxLjYzLDg5Ny41LDc0Ny42Myw5MDEuNSw3NTYuNjMiIHN0eWxlPSJzdHJva2U6IzE4MTgxODtzdHJva2Utd2lkdGg6MS4wOyIvPjx0ZXh0IGZpbGw9IiMwMDAwMDAiIGZvbnQtZmFtaWx5PSJzYW5zLXNlcmlmIiBmb250LXNpemU9IjEzIiBsZW5ndGhBZGp1c3Q9InNwYWNpbmciIHRleHRMZW5ndGg9IjU0IiB4PSI5MDIuNSIgeT0iNzI1LjI4OTEiPmluY2x1ZGVzPC90ZXh0PjwvZz48IS0tbGluayBnaXNTb2Z0d2FyZSB0byBxZ2lzU29mdHdhcmUtLT48ZyBpZD0ibGlua19naXNTb2Z0d2FyZV9xZ2lzU29mdHdhcmUiPjxwYXRoIGQ9Ik05MzEuNDcsNjgyIEM5NDIuNDMsNjkxLjExIDk1NC43Nyw3MDEuNzYgOTY1LjUsNzEyIEM5NzksNzI0Ljg4IDk5My4xOSw3NDAgMTAwNC43Nyw3NTIuNzkgIiBmaWxsPSJub25lIiBpZD0iZ2lzU29mdHdhcmUtdG8tcWdpc1NvZnR3YXJlIiBzdHlsZT0ic3Ryb2tlOiMxODE4MTg7c3Ryb2tlLXdpZHRoOjEuMDsiLz48cG9seWdvbiBmaWxsPSIjMTgxODE4IiBwb2ludHM9IjEwMDguMjcsNzU2LjY5LDEwMDUuMjIyNSw3NDcuMzI0NSwxMDA0LjkyNTIsNzUyLjk3MzUsOTk5LjI3NjEsNzUyLjY3NjIsMTAwOC4yNyw3NTYuNjkiIHN0eWxlPSJzdHJva2U6IzE4MTgxODtzdHJva2Utd2lkdGg6MS4wOyIvPjx0ZXh0IGZpbGw9IiMwMDAwMDAiIGZvbnQtZmFtaWx5PSJzYW5zLXNlcmlmIiBmb250LXNpemU9IjEzIiBsZW5ndGhBZGp1c3Q9InNwYWNpbmciIHRleHRMZW5ndGg9IjU0IiB4PSI5ODEuNSIgeT0iNzI1LjI4OTEiPmluY2x1ZGVzPC90ZXh0PjwvZz48IS0tbGluayBkYXRhU3RvcmFnZSB0byBkYXRhYmFzZVNlcnZlckhhcmR3YXJlLS0+PGcgaWQ9ImxpbmtfZGF0YVN0b3JhZ2VfZGF0YWJhc2VTZXJ2ZXJIYXJkd2FyZSI+PHBhdGggZD0iTTExNTUuNSw1NTcuMDEgQzExNTUuNSw1NzYuODYgMTE1NS41LDYwNS4xNCAxMTU1LjUsNjI2LjM5ICIgZmlsbD0ibm9uZSIgaWQ9ImRhdGFTdG9yYWdlLXRvLWRhdGFiYXNlU2VydmVySGFyZHdhcmUiIHN0eWxlPSJzdHJva2U6IzE4MTgxODtzdHJva2Utd2lkdGg6MS4wO3N0cm9rZS1kYXNoYXJyYXk6Ny4wLDcuMDsiLz48cG9seWdvbiBmaWxsPSIjMTgxODE4IiBwb2ludHM9IjExNTUuNSw2MzEuNjMsMTE1OS41LDYyMi42MywxMTU1LjUsNjI2LjYzLDExNTEuNSw2MjIuNjMsMTE1NS41LDYzMS42MyIgc3R5bGU9InN0cm9rZTojMTgxODE4O3N0cm9rZS13aWR0aDoxLjA7Ii8+PHRleHQgZmlsbD0iIzAwMDAwMCIgZm9udC1mYW1pbHk9InNhbnMtc2VyaWYiIGZvbnQtc2l6ZT0iMTMiIGxlbmd0aEFkanVzdD0ic3BhY2luZyIgdGV4dExlbmd0aD0iMjgiIHg9IjExNTYuNSIgeT0iNjAwLjI4OTEiPnVzZXM8L3RleHQ+PC9nPjwhLS1TUkM9W2hMVEhKemltNDd4RmhfM1dQTmplb3lpR0dXWWZBenNlckF2VDB6a3BjcFlmclNHRWpiQzRxX3h4cGVjSkVjZFM1V0hGQUZ3LXgtdS10dnRYS3FXWW9XWm81eWw5bXpYX040eEhNZ2JDTld5NjBaX3RPd2hNLUlnTkgwSVNBUzlLRi0zZkcwWS1NWDR2TTJJT2dTVlBqMlRMN2FNMzU0ajVYRVR6Q2ZnSnFWcGQxbVdFQTQzYkpkUnVQLXBGUC1FRks4dTBzU0ZGSEZBS3pCdXNDX19DUzRnLU1ENDYtYUNfb3pEYTFvbmpDejJUWHBQS1JZWkJpQzBmNFlIR2NDSzlrUmMxcjNCRThDZFJNX0pOR3NZNVdxcWlVQ3gyNEstdVEwQkVYdFR0TC1EQjNVQ1k5QThCU1c0X0x6LXlWdXZ1Mk1LUkxvWHBUbHh6T2RudkRNZjdnS3Z0ME1mUFQ3UUZOeDQ4NEdxWDJuaEgwMmxBc0hiZ3ZlT2JNWFV1SUdEY3dvb2Z0MDFFNFliSm03R2UyNDBDUXUzRGxTQ0FlbkdwNzFDN0RtSjRoMFJPdDFkRUNpZllYNWM4amJKY0VBNmxoWGhJNGxsUlhaTXFnQTlueVJNRzRxRzJNbkFLR1VTbjg3UDlyZkliR0l5Q3NGRXdCNEV6dGN0QjJOSURBOGt1SUFOTkVqM09Qa00wWFY2R05ra2gxZE9MMV8xQ3kyclNSY2FYV1oxVTl4MUdTRFBZZk1aeERMZ0o1RWZBMmVDS0loWWZ5TVdwMU9QT1pGSktxRG96TFZPZXBfS0RtaW5KWUFXNFBmMlpLNkw0NjBQNUpjclk0OWVQZE9VNnA1QWhrREVPZ3BLSEFFRHdDLWFTOUN6NTBDeG9nMng4SDkzN0stNVFSNTVmLVFOS0ZBZWlCS2tNaE1KU0JOTTJleUtiMWFhRXBVM01VUmozOXljLWZyZlJzM2tibGR4X202WXpleDIzVWstZ3dBMll0TWZKa1k0OU5OQ1VtWVIyb09rYWlnRTdhWGVyRDIxUk92OWNFNTI3LUJIMHJEb2t6UkNWbWh3TTNhOUppdDY3eE90RkhPb1BVcmxoWEpNdDg3anlnUlkwM1VZVy1rTmY3a2swN3Znc1N3RFpueFBKaWlqcG00cVE5bzJGVVZQWnVpRkFZVEdwNWJxcm5ySnd2akhweHRXQkxScWJUZXBuNVdUdllKeG13OTRRTEp6c2phUEFING5PeUI5eEdFNk5PYTJFaHFMSWFRaWRRNmNleGhLeXVjY1Fpc2g0dUJySkZFMDk4YkJYTEtCYnNsNGRITTNKNWVPcmphYldlX2o1cjZSay1zM1Z0SjdvUVBNLUdWNXVIUXhNNmVlMGtha1JMM0xPd0g0TVdUck01a0ROOV93ZnFPSHNoLWR5Y2Nmc0JjdGFhbUZON2tPTFhrUTJWblVzSEVYYXJoMW9UeWM0MWswTnZfVmNoOXBoUVlockdreDZjVWR1M20wMF0tLT48L2c+PC9zdmc+;container=1;" vertex="1" parent="1">
            <mxGeometry x="-1010" y="15" width="2094" height="812" as="geometry" />
          </mxCell>
        </UserObject>
        <UserObject label="" mermaidData="{&#xa;  &quot;data&quot;: &quot;graph LR\n    hazardIdentification[Hazard identification] --&gt; riskAssessment[Risk assessment]\n    riskAssessment --&gt; dataManagement[Data management]\n    dataManagement --&gt; mappingVisualization[Mapping and visualization]\n    mappingVisualization --&gt; mitigationResponsePlanning[Mitigation and response planning]\n\n    subgraph Hazard identification\n        hazardIdentification --&gt; chemicalPlantLocationIdentification[Chemical plant location identification]\n        hazardIdentification --&gt; hazardousMaterialTransportationRouteIdentification[Hazardous material transportation route identification]\n        hazardIdentification --&gt; otherPotentialSourcesOfChemicalHazardsIdentification[Other potential sources of chemical hazards identification]\n\n        hazardIdentification --&gt; informationCollection[Information collection]\n        hazardIdentification --&gt; workplaceInspections[Workplace inspections]\n        hazardIdentification --&gt; incidentInvestigations[Incident investigations]\n        hazardIdentification --&gt; trendAnalysis[Trend analysis]\n        hazardIdentification --&gt; emergencySituationConsideration[Emergency situation consideration]\n\n        hazardIdentification --&gt; remoteSensingTechnologies[Remote sensing technologies]\n        hazardIdentification --&gt; earthObservationTechnologies[Earth observation technologies]\n    end\n\n    subgraph Risk assessment\n        riskAssessment --&gt; likelihoodAnalysis[Likelihood analysis]\n        riskAssessment --&gt; impactAnalysis[Impact analysis]\n\n        riskAssessment --&gt; strideMethodology[STRIDE methodology]\n        riskAssessment --&gt; acsmSarMethodology[ACSM/SAR methodology]\n        riskAssessment --&gt; crammMethodology[CRAMM methodology]\n        riskAssessment --&gt; sqmMethodology[SQM methodology]\n        riskAssessment --&gt; assetMethodology[ASSET methodology]\n        riskAssessment --&gt; octaveMethodology[OCTAVE methodology]\n\n        riskAssessment --&gt; riskAssessmentSoftware[Risk assessment software]\n    end\n\n    subgraph Data management\n        dataManagement --&gt; dataOrganization[Data organization]\n        dataManagement --&gt; dataStorage[Data storage]\n        dataManagement --&gt; dataAnalysis[Data analysis]\n    end\n\n    subgraph Mapping and visualization\n        mappingVisualization --&gt; gisSoftware[GIS software]\n    end\n\n    subgraph Mitigation and response planning\n        mitigationResponsePlanning --&gt; evacuationPlanning[Evacuation planning]\n        mitigationResponsePlanning --&gt; emergencyResponseResourceIdentification[Emergency response resource identification]\n        mitigationResponsePlanning --&gt; communicationProtocolEstablishment[Communication protocol establishment]\n    end\n\n    subgraph GIS software\n        gisSoftware --&gt; arcgisSoftware[ArcGIS]\n        gisSoftware --&gt; qgisSoftware[QGIS]\n    end\n\n    subgraph Data storage\n        dataStorage --&gt; databaseServerHardware[Database server]\n    end&quot;,&#xa;  &quot;config&quot;: {&#xa;    &quot;theme&quot;: &quot;neutral&quot;,&#xa;    &quot;arrowMarkerAbsolute&quot;: false,&#xa;    &quot;flowchart&quot;: {&#xa;      &quot;htmlLabels&quot;: false&#xa;    },&#xa;    &quot;sequence&quot;: {&#xa;      &quot;diagramMarginX&quot;: 50,&#xa;      &quot;diagramMarginY&quot;: 10,&#xa;      &quot;actorMargin&quot;: 50,&#xa;      &quot;width&quot;: 150,&#xa;      &quot;height&quot;: 65,&#xa;      &quot;boxMargin&quot;: 10,&#xa;      &quot;boxTextMargin&quot;: 5,&#xa;      &quot;noteMargin&quot;: 10,&#xa;      &quot;messageMargin&quot;: 35,&#xa;      &quot;mirrorActors&quot;: true,&#xa;      &quot;bottomMarginAdj&quot;: 1,&#xa;      &quot;useMaxWidth&quot;: true,&#xa;      &quot;rightAngles&quot;: false,&#xa;      &quot;showSequenceNumbers&quot;: false&#xa;    },&#xa;    &quot;gantt&quot;: {&#xa;      &quot;titleTopMargin&quot;: 25,&#xa;      &quot;barHeight&quot;: 20,&#xa;      &quot;barGap&quot;: 4,&#xa;      &quot;topPadding&quot;: 50,&#xa;      &quot;leftPadding&quot;: 75,&#xa;      &quot;gridLineStartPadding&quot;: 35,&#xa;      &quot;fontSize&quot;: 11,&#xa;      &quot;fontFamily&quot;: &quot;\&quot;Open-Sans\&quot;, \&quot;sans-serif\&quot;&quot;,&#xa;      &quot;numberSectionStyles&quot;: 4,&#xa;      &quot;axisFormat&quot;: &quot;%Y-%m-%d&quot;&#xa;    }&#xa;  }&#xa;}" id="YwqaIVko-Qlb3BSDccb9-4">
          <mxCell style="shape=image;noLabel=1;verticalAlign=top;imageAspect=1;image=data:image/svg+xml,PHN2ZyBhcmlhLXJvbGVkZXNjcmlwdGlvbj0iZmxvd2NoYXJ0LXYyIiB2aWV3Qm94PSItOCAtOCAyMTE5LjMxMjUgMTk2NCIgc3R5bGU9Im1heC13aWR0aDogMjExOS4zMTI1cHg7IiB4bWxucz0iaHR0cDovL3d3dy53My5vcmcvMjAwMC9zdmciIHdpZHRoPSIxMDAlIiBpZD0iZ2VNZXJtYWlkT3V0cHV0LTE2ODEyMTU4MDcwMjciPjxzdHlsZT4jZ2VNZXJtYWlkT3V0cHV0LTE2ODEyMTU4MDcwMjd7Zm9udC1mYW1pbHk6InRyZWJ1Y2hldCBtcyIsdmVyZGFuYSxhcmlhbCxzYW5zLXNlcmlmO2ZvbnQtc2l6ZToxNnB4O2ZpbGw6IzAwMDAwMDt9I2dlTWVybWFpZE91dHB1dC0xNjgxMjE1ODA3MDI3IC5lcnJvci1pY29ue2ZpbGw6IzU1MjIyMjt9I2dlTWVybWFpZE91dHB1dC0xNjgxMjE1ODA3MDI3IC5lcnJvci10ZXh0e2ZpbGw6IzU1MjIyMjtzdHJva2U6IzU1MjIyMjt9I2dlTWVybWFpZE91dHB1dC0xNjgxMjE1ODA3MDI3IC5lZGdlLXRoaWNrbmVzcy1ub3JtYWx7c3Ryb2tlLXdpZHRoOjJweDt9I2dlTWVybWFpZE91dHB1dC0xNjgxMjE1ODA3MDI3IC5lZGdlLXRoaWNrbmVzcy10aGlja3tzdHJva2Utd2lkdGg6My41cHg7fSNnZU1lcm1haWRPdXRwdXQtMTY4MTIxNTgwNzAyNyAuZWRnZS1wYXR0ZXJuLXNvbGlke3N0cm9rZS1kYXNoYXJyYXk6MDt9I2dlTWVybWFpZE91dHB1dC0xNjgxMjE1ODA3MDI3IC5lZGdlLXBhdHRlcm4tZGFzaGVke3N0cm9rZS1kYXNoYXJyYXk6Mzt9I2dlTWVybWFpZE91dHB1dC0xNjgxMjE1ODA3MDI3IC5lZGdlLXBhdHRlcm4tZG90dGVke3N0cm9rZS1kYXNoYXJyYXk6Mjt9I2dlTWVybWFpZE91dHB1dC0xNjgxMjE1ODA3MDI3IC5tYXJrZXJ7ZmlsbDojNjY2O3N0cm9rZTojNjY2O30jZ2VNZXJtYWlkT3V0cHV0LTE2ODEyMTU4MDcwMjcgLm1hcmtlci5jcm9zc3tzdHJva2U6IzY2Njt9I2dlTWVybWFpZE91dHB1dC0xNjgxMjE1ODA3MDI3IHN2Z3tmb250LWZhbWlseToidHJlYnVjaGV0IG1zIix2ZXJkYW5hLGFyaWFsLHNhbnMtc2VyaWY7Zm9udC1zaXplOjE2cHg7fSNnZU1lcm1haWRPdXRwdXQtMTY4MTIxNTgwNzAyNyAubGFiZWx7Zm9udC1mYW1pbHk6InRyZWJ1Y2hldCBtcyIsdmVyZGFuYSxhcmlhbCxzYW5zLXNlcmlmO2NvbG9yOiMwMDAwMDA7fSNnZU1lcm1haWRPdXRwdXQtMTY4MTIxNTgwNzAyNyAuY2x1c3Rlci1sYWJlbCB0ZXh0e2ZpbGw6IzMzMzt9I2dlTWVybWFpZE91dHB1dC0xNjgxMjE1ODA3MDI3IC5jbHVzdGVyLWxhYmVsIHNwYW57Y29sb3I6IzMzMzt9I2dlTWVybWFpZE91dHB1dC0xNjgxMjE1ODA3MDI3IC5sYWJlbCB0ZXh0LCNnZU1lcm1haWRPdXRwdXQtMTY4MTIxNTgwNzAyNyBzcGFue2ZpbGw6IzAwMDAwMDtjb2xvcjojMDAwMDAwO30jZ2VNZXJtYWlkT3V0cHV0LTE2ODEyMTU4MDcwMjcgLm5vZGUgcmVjdCwjZ2VNZXJtYWlkT3V0cHV0LTE2ODEyMTU4MDcwMjcgLm5vZGUgY2lyY2xlLCNnZU1lcm1haWRPdXRwdXQtMTY4MTIxNTgwNzAyNyAubm9kZSBlbGxpcHNlLCNnZU1lcm1haWRPdXRwdXQtMTY4MTIxNTgwNzAyNyAubm9kZSBwb2x5Z29uLCNnZU1lcm1haWRPdXRwdXQtMTY4MTIxNTgwNzAyNyAubm9kZSBwYXRoe2ZpbGw6I2VlZTtzdHJva2U6Izk5OTtzdHJva2Utd2lkdGg6MXB4O30jZ2VNZXJtYWlkT3V0cHV0LTE2ODEyMTU4MDcwMjcgLm5vZGUgLmxhYmVse3RleHQtYWxpZ246Y2VudGVyO30jZ2VNZXJtYWlkT3V0cHV0LTE2ODEyMTU4MDcwMjcgLm5vZGUuY2xpY2thYmxle2N1cnNvcjpwb2ludGVyO30jZ2VNZXJtYWlkT3V0cHV0LTE2ODEyMTU4MDcwMjcgLmFycm93aGVhZFBhdGh7ZmlsbDojMzMzMzMzO30jZ2VNZXJtYWlkT3V0cHV0LTE2ODEyMTU4MDcwMjcgLmVkZ2VQYXRoIC5wYXRoe3N0cm9rZTojNjY2O3N0cm9rZS13aWR0aDoyLjBweDt9I2dlTWVybWFpZE91dHB1dC0xNjgxMjE1ODA3MDI3IC5mbG93Y2hhcnQtbGlua3tzdHJva2U6IzY2NjtmaWxsOm5vbmU7fSNnZU1lcm1haWRPdXRwdXQtMTY4MTIxNTgwNzAyNyAuZWRnZUxhYmVse2JhY2tncm91bmQtY29sb3I6d2hpdGU7dGV4dC1hbGlnbjpjZW50ZXI7fSNnZU1lcm1haWRPdXRwdXQtMTY4MTIxNTgwNzAyNyAuZWRnZUxhYmVsIHJlY3R7b3BhY2l0eTowLjU7YmFja2dyb3VuZC1jb2xvcjp3aGl0ZTtmaWxsOndoaXRlO30jZ2VNZXJtYWlkT3V0cHV0LTE2ODEyMTU4MDcwMjcgLmNsdXN0ZXIgcmVjdHtmaWxsOmhzbCgwLCAwJSwgOTguOTIxNTY4NjI3NSUpO3N0cm9rZTojNzA3MDcwO3N0cm9rZS13aWR0aDoxcHg7fSNnZU1lcm1haWRPdXRwdXQtMTY4MTIxNTgwNzAyNyAuY2x1c3RlciB0ZXh0e2ZpbGw6IzMzMzt9I2dlTWVybWFpZE91dHB1dC0xNjgxMjE1ODA3MDI3IC5jbHVzdGVyIHNwYW57Y29sb3I6IzMzMzt9I2dlTWVybWFpZE91dHB1dC0xNjgxMjE1ODA3MDI3IGRpdi5tZXJtYWlkVG9vbHRpcHtwb3NpdGlvbjphYnNvbHV0ZTt0ZXh0LWFsaWduOmNlbnRlcjttYXgtd2lkdGg6MjAwcHg7cGFkZGluZzoycHg7Zm9udC1mYW1pbHk6InRyZWJ1Y2hldCBtcyIsdmVyZGFuYSxhcmlhbCxzYW5zLXNlcmlmO2ZvbnQtc2l6ZToxMnB4O2JhY2tncm91bmQ6aHNsKC0xNjAsIDAlLCA5My4zMzMzMzMzMzMzJSk7Ym9yZGVyOjFweCBzb2xpZCAjNzA3MDcwO2JvcmRlci1yYWRpdXM6MnB4O3BvaW50ZXItZXZlbnRzOm5vbmU7ei1pbmRleDoxMDA7fSNnZU1lcm1haWRPdXRwdXQtMTY4MTIxNTgwNzAyNyAuZmxvd2NoYXJ0VGl0bGVUZXh0e3RleHQtYW5jaG9yOm1pZGRsZTtmb250LXNpemU6MThweDtmaWxsOiMwMDAwMDA7fSNnZU1lcm1haWRPdXRwdXQtMTY4MTIxNTgwNzAyNyA6cm9vdHstLW1lcm1haWQtZm9udC1mYW1pbHk6InRyZWJ1Y2hldCBtcyIsdmVyZGFuYSxhcmlhbCxzYW5zLXNlcmlmO308L3N0eWxlPjxnPjxtYXJrZXIgb3JpZW50PSJhdXRvIiBtYXJrZXJIZWlnaHQ9IjEyIiBtYXJrZXJXaWR0aD0iMTIiIG1hcmtlclVuaXRzPSJ1c2VyU3BhY2VPblVzZSIgcmVmWT0iNSIgcmVmWD0iMTAiIHZpZXdCb3g9IjAgMCAxMCAxMCIgY2xhc3M9Im1hcmtlciBmbG93Y2hhcnQiIGlkPSJmbG93Y2hhcnQtcG9pbnRFbmQiPjxwYXRoIHN0eWxlPSJzdHJva2Utd2lkdGg6IDE7IHN0cm9rZS1kYXNoYXJyYXk6IDEsIDA7IiBjbGFzcz0iYXJyb3dNYXJrZXJQYXRoIiBkPSJNIDAgMCBMIDEwIDUgTCAwIDEwIHoiPjwvcGF0aD48L21hcmtlcj48bWFya2VyIG9yaWVudD0iYXV0byIgbWFya2VySGVpZ2h0PSIxMiIgbWFya2VyV2lkdGg9IjEyIiBtYXJrZXJVbml0cz0idXNlclNwYWNlT25Vc2UiIHJlZlk9IjUiIHJlZlg9IjAiIHZpZXdCb3g9IjAgMCAxMCAxMCIgY2xhc3M9Im1hcmtlciBmbG93Y2hhcnQiIGlkPSJmbG93Y2hhcnQtcG9pbnRTdGFydCI+PHBhdGggc3R5bGU9InN0cm9rZS13aWR0aDogMTsgc3Ryb2tlLWRhc2hhcnJheTogMSwgMDsiIGNsYXNzPSJhcnJvd01hcmtlclBhdGgiIGQ9Ik0gMCA1IEwgMTAgMTAgTCAxMCAwIHoiPjwvcGF0aD48L21hcmtlcj48bWFya2VyIG9yaWVudD0iYXV0byIgbWFya2VySGVpZ2h0PSIxMSIgbWFya2VyV2lkdGg9IjExIiBtYXJrZXJVbml0cz0idXNlclNwYWNlT25Vc2UiIHJlZlk9IjUiIHJlZlg9IjExIiB2aWV3Qm94PSIwIDAgMTAgMTAiIGNsYXNzPSJtYXJrZXIgZmxvd2NoYXJ0IiBpZD0iZmxvd2NoYXJ0LWNpcmNsZUVuZCI+PGNpcmNsZSBzdHlsZT0ic3Ryb2tlLXdpZHRoOiAxOyBzdHJva2UtZGFzaGFycmF5OiAxLCAwOyIgY2xhc3M9ImFycm93TWFya2VyUGF0aCIgcj0iNSIgY3k9IjUiIGN4PSI1Ij48L2NpcmNsZT48L21hcmtlcj48bWFya2VyIG9yaWVudD0iYXV0byIgbWFya2VySGVpZ2h0PSIxMSIgbWFya2VyV2lkdGg9IjExIiBtYXJrZXJVbml0cz0idXNlclNwYWNlT25Vc2UiIHJlZlk9IjUiIHJlZlg9Ii0xIiB2aWV3Qm94PSIwIDAgMTAgMTAiIGNsYXNzPSJtYXJrZXIgZmxvd2NoYXJ0IiBpZD0iZmxvd2NoYXJ0LWNpcmNsZVN0YXJ0Ij48Y2lyY2xlIHN0eWxlPSJzdHJva2Utd2lkdGg6IDE7IHN0cm9rZS1kYXNoYXJyYXk6IDEsIDA7IiBjbGFzcz0iYXJyb3dNYXJrZXJQYXRoIiByPSI1IiBjeT0iNSIgY3g9IjUiPjwvY2lyY2xlPjwvbWFya2VyPjxtYXJrZXIgb3JpZW50PSJhdXRvIiBtYXJrZXJIZWlnaHQ9IjExIiBtYXJrZXJXaWR0aD0iMTEiIG1hcmtlclVuaXRzPSJ1c2VyU3BhY2VPblVzZSIgcmVmWT0iNS4yIiByZWZYPSIxMiIgdmlld0JveD0iMCAwIDExIDExIiBjbGFzcz0ibWFya2VyIGNyb3NzIGZsb3djaGFydCIgaWQ9ImZsb3djaGFydC1jcm9zc0VuZCI+PHBhdGggc3R5bGU9InN0cm9rZS13aWR0aDogMjsgc3Ryb2tlLWRhc2hhcnJheTogMSwgMDsiIGNsYXNzPSJhcnJvd01hcmtlclBhdGgiIGQ9Ik0gMSwxIGwgOSw5IE0gMTAsMSBsIC05LDkiPjwvcGF0aD48L21hcmtlcj48bWFya2VyIG9yaWVudD0iYXV0byIgbWFya2VySGVpZ2h0PSIxMSIgbWFya2VyV2lkdGg9IjExIiBtYXJrZXJVbml0cz0idXNlclNwYWNlT25Vc2UiIHJlZlk9IjUuMiIgcmVmWD0iLTEiIHZpZXdCb3g9IjAgMCAxMSAxMSIgY2xhc3M9Im1hcmtlciBjcm9zcyBmbG93Y2hhcnQiIGlkPSJmbG93Y2hhcnQtY3Jvc3NTdGFydCI+PHBhdGggc3R5bGU9InN0cm9rZS13aWR0aDogMjsgc3Ryb2tlLWRhc2hhcnJheTogMSwgMDsiIGNsYXNzPSJhcnJvd01hcmtlclBhdGgiIGQ9Ik0gMSwxIGwgOSw5IE0gMTAsMSBsIC05LDkiPjwvcGF0aD48L21hcmtlcj48ZyBjbGFzcz0icm9vdCI+PGcgY2xhc3M9ImNsdXN0ZXJzIj48ZyBpZD0ic3ViR3JhcGg2IiBjbGFzcz0iY2x1c3RlciBkZWZhdWx0Ij48cmVjdCBoZWlnaHQ9IjEwNCIgd2lkdGg9IjMwMS43NSIgeT0iODQiIHg9IjEzNzIuMzU5Mzc1IiByeT0iMCIgcng9IjAiIHN0eWxlPSIiPjwvcmVjdD48ZyB0cmFuc2Zvcm09InRyYW5zbGF0ZSgxNDc3LjgwODU5Mzc1LCA4NCkiIGNsYXNzPSJjbHVzdGVyLWxhYmVsIj48dGV4dCBzdHlsZT0iIj48dHNwYW4gY2xhc3M9InJvdyIgeD0iMCIgZHk9IjFlbSIgeG1sOnNwYWNlPSJwcmVzZXJ2ZSI+RGF0YSBzdG9yYWdlPC90c3Bhbj48L3RleHQ+PC9nPjwvZz48ZyBpZD0ic3ViR3JhcGg1IiBjbGFzcz0iY2x1c3RlciBkZWZhdWx0Ij48cmVjdCBoZWlnaHQ9IjE4OCIgd2lkdGg9IjM3OS4yMDMxMjUiIHk9IjExMjAiIHg9IjE3MjQuMTA5Mzc1IiByeT0iMCIgcng9IjAiIHN0eWxlPSIiPjwvcmVjdD48ZyB0cmFuc2Zvcm09InRyYW5zbGF0ZSgxODY4LjM5MDYyNSwgMTEyMCkiIGNsYXNzPSJjbHVzdGVyLWxhYmVsIj48dGV4dCBzdHlsZT0iIj48dHNwYW4gY2xhc3M9InJvdyIgeD0iMCIgZHk9IjFlbSIgeG1sOnNwYWNlPSJwcmVzZXJ2ZSI+R0lTIHNvZnR3YXJlPC90c3Bhbj48L3RleHQ+PC9nPjwvZz48ZyBpZD0ic3ViR3JhcGg0IiBjbGFzcz0iY2x1c3RlciBkZWZhdWx0Ij48cmVjdCBoZWlnaHQ9IjI3MiIgd2lkdGg9IjczMC45NTMxMjUiIHk9IjgxOCIgeD0iMTM3Mi4zNTkzNzUiIHJ5PSIwIiByeD0iMCIgc3R5bGU9IiI+PC9yZWN0PjxnIHRyYW5zZm9ybT0idHJhbnNsYXRlKDE2MTkuNDYwOTM3NSwgODE4KSIgY2xhc3M9ImNsdXN0ZXItbGFiZWwiPjx0ZXh0IHN0eWxlPSIiPjx0c3BhbiBjbGFzcz0icm93IiB4PSIwIiBkeT0iMWVtIiB4bWw6c3BhY2U9InByZXNlcnZlIj5NaXRpZ2F0aW9uIGFuZCByZXNwb25zZSBwbGFubmluZzwvdHNwYW4+PC90ZXh0PjwvZz48L2c+PGcgaWQ9InN1YkdyYXBoMyIgY2xhc3M9ImNsdXN0ZXIgZGVmYXVsdCI+PHJlY3QgaGVpZ2h0PSIxNzYiIHdpZHRoPSI2MDIuMTcxODc1IiB5PSIxMTE2IiB4PSIxMDcxLjkzNzUiIHJ5PSIwIiByeD0iMCIgc3R5bGU9IiI+PC9yZWN0PjxnIHRyYW5zZm9ybT0idHJhbnNsYXRlKDEyODAuMzEyNSwgMTExNikiIGNsYXNzPSJjbHVzdGVyLWxhYmVsIj48dGV4dCBzdHlsZT0iIj48dHNwYW4gY2xhc3M9InJvdyIgeD0iMCIgZHk9IjFlbSIgeG1sOnNwYWNlPSJwcmVzZXJ2ZSI+TWFwcGluZyBhbmQgdmlzdWFsaXphdGlvbjwvdHNwYW4+PC90ZXh0PjwvZz48L2c+PGcgaWQ9InN1YkdyYXBoMiIgY2xhc3M9ImNsdXN0ZXIgZGVmYXVsdCI+PHJlY3QgaGVpZ2h0PSIyNzIiIHdpZHRoPSI1NDYuNDY4NzUiIHk9IjAiIHg9Ijc3NS44OTA2MjUiIHJ5PSIwIiByeD0iMCIgc3R5bGU9IiI+PC9yZWN0PjxnIHRyYW5zZm9ybT0idHJhbnNsYXRlKDk4My41NTg1OTM3NSwgMCkiIGNsYXNzPSJjbHVzdGVyLWxhYmVsIj48dGV4dCBzdHlsZT0iIj48dHNwYW4gY2xhc3M9InJvdyIgeD0iMCIgZHk9IjFlbSIgeG1sOnNwYWNlPSJwcmVzZXJ2ZSI+RGF0YSBtYW5hZ2VtZW50PC90c3Bhbj48L3RleHQ+PC9nPjwvZz48ZyBpZD0ic3ViR3JhcGgxIiBjbGFzcz0iY2x1c3RlciBkZWZhdWx0Ij48cmVjdCBoZWlnaHQ9Ijc3NiIgd2lkdGg9Ijc3OS45NjA5Mzc1IiB5PSIyOTIiIHg9IjI0MS45NzY1NjI1IiByeT0iMCIgcng9IjAiIHN0eWxlPSIiPjwvcmVjdD48ZyB0cmFuc2Zvcm09InRyYW5zbGF0ZSg1NzQuOTQxNDA2MjUsIDI5MikiIGNsYXNzPSJjbHVzdGVyLWxhYmVsIj48dGV4dCBzdHlsZT0iIj48dHNwYW4gY2xhc3M9InJvdyIgeD0iMCIgZHk9IjFlbSIgeG1sOnNwYWNlPSJwcmVzZXJ2ZSI+UmlzayBhc3Nlc3NtZW50PC90c3Bhbj48L3RleHQ+PC9nPjwvZz48ZyBpZD0ic3ViR3JhcGgwIiBjbGFzcz0iY2x1c3RlciBkZWZhdWx0Ij48cmVjdCBoZWlnaHQ9Ijg2MCIgd2lkdGg9IjcyNS44OTA2MjUiIHk9IjEwODgiIHg9IjAiIHJ5PSIwIiByeD0iMCIgc3R5bGU9IiI+PC9yZWN0PjxnIHRyYW5zZm9ybT0idHJhbnNsYXRlKDI4Ni45NTcwMzEyNSwgMTA4OCkiIGNsYXNzPSJjbHVzdGVyLWxhYmVsIj48dGV4dCBzdHlsZT0iIj48dHNwYW4gY2xhc3M9InJvdyIgeD0iMCIgZHk9IjFlbSIgeG1sOnNwYWNlPSJwcmVzZXJ2ZSI+SGF6YXJkIGlkZW50aWZpY2F0aW9uPC90c3Bhbj48L3RleHQ+PC9nPjwvZz48L2c+PGcgY2xhc3M9ImVkZ2VQYXRocyI+PHBhdGggbWFya2VyLWVuZD0idXJsKCNmbG93Y2hhcnQtcG9pbnRFbmQpIiBzdHlsZT0iZmlsbDpub25lOyIgY2xhc3M9ImVkZ2UtdGhpY2tuZXNzLW5vcm1hbCBlZGdlLXBhdHRlcm4tc29saWQgZmxvd2NoYXJ0LWxpbmsgTFMtaGF6YXJkSWRlbnRpZmljYXRpb24gTEUtcmlza0Fzc2Vzc21lbnQiIGlkPSJMLWhhemFyZElkZW50aWZpY2F0aW9uLXJpc2tBc3Nlc3NtZW50LTAiIGQ9Ik0xMTMuNTgzMDM0Nzg5MzY0NjUsMTQ1OUwxMzAuODE1Mjg5NDA3ODAzODcsMTQwMS41QzE0OC4wNDc1NDQwMjYyNDMxMiwxMzQ0LDE4Mi41MTIwNTMyNjMxMjE1NCwxMjI5LDIwMy45MTA5NzQ1NDgyMjc0NywxMTcxLjVDMjI1LjMwOTg5NTgzMzMzMzM0LDExMTQsMjMzLjY0MzIyOTE2NjY2NjY2LDExMTQsMjc2LjY5NTg0NzI4NDIyNjIsMTAzNy41QzMxOS43NDg0NjU0MDE3ODU3LDk2MSwzOTcuNTIwMzY4MzAzNTcxNCw4MDgsNDM2LjQwNjMxOTc1NDQ2NDMsNzMxLjVMNDc1LjI5MjI3MTIwNTM1NzE3LDY1NSI+PC9wYXRoPjxwYXRoIG1hcmtlci1lbmQ9InVybCgjZmxvd2NoYXJ0LXBvaW50RW5kKSIgc3R5bGU9ImZpbGw6bm9uZTsiIGNsYXNzPSJlZGdlLXRoaWNrbmVzcy1ub3JtYWwgZWRnZS1wYXR0ZXJuLXNvbGlkIGZsb3djaGFydC1saW5rIExTLXJpc2tBc3Nlc3NtZW50IExFLWRhdGFNYW5hZ2VtZW50IiBpZD0iTC1yaXNrQXNzZXNzbWVudC1kYXRhTWFuYWdlbWVudC0wIiBkPSJNNDk2Ljc4NzU2MTAzNTE1NjMsNjIxTDUzNC45NzE0MDUwMjkyOTY5LDU3MC41QzU3My4xNTUyNDkwMjM0Mzc1LDUyMCw2NDkuNTIyOTM3MDExNzE4Nyw0MTksNjkxLjg3MzQ0NzY3MjUyNjEsMzY4LjVDNzM0LjIyMzk1ODMzMzMzMzQsMzE4LDc0Mi41NTcyOTE2NjY2NjY2LDMxOCw3NTAuODkwNjI1LDMxOEM3NTkuMjIzOTU4MzMzMzMzNCwzMTgsNzY3LjU1NzI5MTY2NjY2NjYsMzE4LDc4OS43MzgxMDQ1Mzg2OTA0LDI5Ny41QzgxMS45MTg5MTc0MTA3MTQyLDI3Nyw4NDcuOTQ3MjA5ODIxNDI4NiwyMzYsODY1Ljk2MTM1NjAyNjc4NTcsMjE1LjVMODgzLjk3NTUwMjIzMjE0MjgsMTk1Ij48L3BhdGg+PHBhdGggbWFya2VyLWVuZD0idXJsKCNmbG93Y2hhcnQtcG9pbnRFbmQpIiBzdHlsZT0iZmlsbDpub25lOyIgY2xhc3M9ImVkZ2UtdGhpY2tuZXNzLW5vcm1hbCBlZGdlLXBhdHRlcm4tc29saWQgZmxvd2NoYXJ0LWxpbmsgTFMtZGF0YU1hbmFnZW1lbnQgTEUtbWFwcGluZ1Zpc3VhbGl6YXRpb24iIGlkPSJMLWRhdGFNYW5hZ2VtZW50LW1hcHBpbmdWaXN1YWxpemF0aW9uLTAiIGQ9Ik05MjkuNjY5OTIxODc1LDE5NUw5NDUuMDQ3ODUxNTYyNSwyMDMuNUM5NjAuNDI1NzgxMjUsMjEyLDk5MS4xODE2NDA2MjUsMjI5LDEwMTAuNzI2MjM2OTc5MTY2NiwyMzcuNUMxMDMwLjI3MDgzMzMzMzMzMzMsMjQ2LDEwMzguNjA0MTY2NjY2NjY2NywyNDYsMTA0Ni45Mzc1LDI0NkMxMDU1LjI3MDgzMzMzMzMzMzMsMjQ2LDEwNjMuNjA0MTY2NjY2NjY2NywyNDYsMTA4OC4yNjkwMDUyNTE4MjY3LDQwMi44MzMzMzMzMzMzMzMzQzExMTIuOTMzODQzODM2OTg2OSw1NTkuNjY2NjY2NjY2NjY2NiwxMTUzLjkzMDE4NzY3Mzk3MzUsODczLjMzMzMzMzMzMzMzMzQsMTE3NC40MjgzNTk1OTI0NjcsMTAzMC4xNjY2NjY2NjY2NjY3TDExOTQuOTI2NTMxNTEwOTYwMywxMTg3Ij48L3BhdGg+PHBhdGggbWFya2VyLWVuZD0idXJsKCNmbG93Y2hhcnQtcG9pbnRFbmQpIiBzdHlsZT0iZmlsbDpub25lOyIgY2xhc3M9ImVkZ2UtdGhpY2tuZXNzLW5vcm1hbCBlZGdlLXBhdHRlcm4tc29saWQgZmxvd2NoYXJ0LWxpbmsgTFMtbWFwcGluZ1Zpc3VhbGl6YXRpb24gTEUtbWl0aWdhdGlvblJlc3BvbnNlUGxhbm5pbmciIGlkPSJMLW1hcHBpbmdWaXN1YWxpemF0aW9uLW1pdGlnYXRpb25SZXNwb25zZVBsYW5uaW5nLTAiIGQ9Ik0xMjM4LjA4Mjc4MjQ1MTkyMywxMTg3TDEyNTIuMTI4ODgxMjA5OTM1OCwxMTgxLjE2NjY2NjY2NjY2NjdDMTI2Ni4xNzQ5Nzk5Njc5NDg3LDExNzUuMzMzMzMzMzMzMzMzMywxMjk0LjI2NzE3NzQ4Mzk3NDQsMTE2My42NjY2NjY2NjY2NjY3LDEzMTIuNDc5OTQyOTA4NjUzOCwxMTU3LjgzMzMzMzMzMzMzMzNDMTMzMC42OTI3MDgzMzMzMzMzLDExNTIsMTMzOS4wMjYwNDE2NjY2NjY3LDExNTIsMTM0Ny4zNTkzNzUsMTE1MkMxMzU1LjY5MjcwODMzMzMzMzMsMTE1MiwxMzY0LjAyNjA0MTY2NjY2NjcsMTE1MiwxMzkxLjE3OTU1NTk3NjQzMTIsMTEyMS44MzMzMzMzMzMzMzMzQzE0MTguMzMzMDcwMjg2MTk1MiwxMDkxLjY2NjY2NjY2NjY2NjcsMTQ2NC4zMDY3NjU1NzIzOTA1LDEwMzEuMzMzMzMzMzMzMzMzMywxNDg3LjI5MzYxMzIxNTQ4ODIsMTAwMS4xNjY2NjY2NjY2NjY2TDE1MTAuMjgwNDYwODU4NTg2LDk3MSI+PC9wYXRoPjxwYXRoIG1hcmtlci1lbmQ9InVybCgjZmxvd2NoYXJ0LXBvaW50RW5kKSIgc3R5bGU9ImZpbGw6bm9uZTsiIGNsYXNzPSJlZGdlLXRoaWNrbmVzcy1ub3JtYWwgZWRnZS1wYXR0ZXJuLXNvbGlkIGZsb3djaGFydC1saW5rIExTLWhhemFyZElkZW50aWZpY2F0aW9uIExFLWNoZW1pY2FsUGxhbnRMb2NhdGlvbklkZW50aWZpY2F0aW9uIiBpZD0iTC1oYXphcmRJZGVudGlmaWNhdGlvbi1jaGVtaWNhbFBsYW50TG9jYXRpb25JZGVudGlmaWNhdGlvbi0wIiBkPSJNMTEzLjk3NzI3MTY3MDM4NjksMTQ1OUwxMzEuMTQzODIwMTQxOTg5MSwxNDA1LjgzMzMzMzMzMzMzMzNDMTQ4LjMxMDM2ODYxMzU5MTI3LDEzNTIuNjY2NjY2NjY2NjY2NywxODIuNjQzNDY1NTU2Nzk1NjMsMTI0Ni4zMzMzMzMzMzMzMzMzLDIwMy45NzY2ODA2OTUwNjQ1LDExOTMuMTY2NjY2NjY2NjY2N0MyMjUuMzA5ODk1ODMzMzMzMzQsMTE0MCwyMzMuNjQzMjI5MTY2NjY2NjYsMTE0MCwyNTQuMTc1MTMwMjA4MzMzMzQsMTE0MEMyNzQuNzA3MDMxMjUsMTE0MCwzMDcuNDM3NSwxMTQwLDMyMy44MDI3MzQzNzUsMTE0MEwzNDAuMTY3OTY4NzUsMTE0MCI+PC9wYXRoPjxwYXRoIG1hcmtlci1lbmQ9InVybCgjZmxvd2NoYXJ0LXBvaW50RW5kKSIgc3R5bGU9ImZpbGw6bm9uZTsiIGNsYXNzPSJlZGdlLXRoaWNrbmVzcy1ub3JtYWwgZWRnZS1wYXR0ZXJuLXNvbGlkIGZsb3djaGFydC1saW5rIExTLWhhemFyZElkZW50aWZpY2F0aW9uIExFLWhhemFyZG91c01hdGVyaWFsVHJhbnNwb3J0YXRpb25Sb3V0ZUlkZW50aWZpY2F0aW9uIiBpZD0iTC1oYXphcmRJZGVudGlmaWNhdGlvbi1oYXphcmRvdXNNYXRlcmlhbFRyYW5zcG9ydGF0aW9uUm91dGVJZGVudGlmaWNhdGlvbi0wIiBkPSJNMTE1LjgwNjkzNTE0Mzg0OTIsMTQ1OUwxMzIuNjY4NTM5NzAzMjA3NjcsMTQxOS44MzMzMzMzMzMzMzMzQzE0OS41MzAxNDQyNjI1NjYxNSwxMzgwLjY2NjY2NjY2NjY2NjcsMTgzLjI1MzM1MzM4MTI4MzA2LDEzMDIuMzMzMzMzMzMzMzMzMywyMDQuMjgxNjI0NjA3MzA4MiwxMjYzLjE2NjY2NjY2NjY2NjdDMjI1LjMwOTg5NTgzMzMzMzM0LDEyMjQsMjMzLjY0MzIyOTE2NjY2NjY2LDEyMjQsMjQ0LjE4NDg5NTgzMzMzMzM0LDEyMjRDMjU0LjcyNjU2MjUsMTIyNCwyNjcuNDc2NTYyNSwxMjI0LDI3My44NTE1NjI1LDEyMjRMMjgwLjIyNjU2MjUsMTIyNCI+PC9wYXRoPjxwYXRoIG1hcmtlci1lbmQ9InVybCgjZmxvd2NoYXJ0LXBvaW50RW5kKSIgc3R5bGU9ImZpbGw6bm9uZTsiIGNsYXNzPSJlZGdlLXRoaWNrbmVzcy1ub3JtYWwgZWRnZS1wYXR0ZXJuLXNvbGlkIGZsb3djaGFydC1saW5rIExTLWhhemFyZElkZW50aWZpY2F0aW9uIExFLW90aGVyUG90ZW50aWFsU291cmNlc09mQ2hlbWljYWxIYXphcmRzSWRlbnRpZmljYXRpb24iIGlkPSJMLWhhemFyZElkZW50aWZpY2F0aW9uLW90aGVyUG90ZW50aWFsU291cmNlc09mQ2hlbWljYWxIYXphcmRzSWRlbnRpZmljYXRpb24tMCIgZD0iTTExOS40NjYyNjIwOTA3NzM4MSwxNDU5TDEzNS43MTc5Nzg4MjU2NDQ4NSwxNDMzLjgzMzMzMzMzMzMzMzNDMTUxLjk2OTY5NTU2MDUxNTg3LDE0MDguNjY2NjY2NjY2NjY2NywxODQuNDczMTI5MDMwMjU3OTUsMTM1OC4zMzMzMzMzMzMzMzMzLDIwNC44OTE1MTI0MzE3OTU2MywxMzMzLjE2NjY2NjY2NjY2NjdDMjI1LjMwOTg5NTgzMzMzMzM0LDEzMDgsMjMzLjY0MzIyOTE2NjY2NjY2LDEzMDgsMjQxLjk3NjU2MjUsMTMwOEMyNTAuMzA5ODk1ODMzMzMzMzQsMTMwOCwyNTguNjQzMjI5MTY2NjY2NywxMzA4LDI2Mi44MDk4OTU4MzMzMzMzLDEzMDhMMjY2Ljk3NjU2MjUsMTMwOCI+PC9wYXRoPjxwYXRoIG1hcmtlci1lbmQ9InVybCgjZmxvd2NoYXJ0LXBvaW50RW5kKSIgc3R5bGU9ImZpbGw6bm9uZTsiIGNsYXNzPSJlZGdlLXRoaWNrbmVzcy1ub3JtYWwgZWRnZS1wYXR0ZXJuLXNvbGlkIGZsb3djaGFydC1saW5rIExTLWhhemFyZElkZW50aWZpY2F0aW9uIExFLWluZm9ybWF0aW9uQ29sbGVjdGlvbiIgaWQ9IkwtaGF6YXJkSWRlbnRpZmljYXRpb24taW5mb3JtYXRpb25Db2xsZWN0aW9uLTAiIGQ9Ik0xMzAuNDQ0MjQyOTMxNTQ3NjIsMTQ1OUwxNDQuODY2Mjk2MTkyOTU2MzYsMTQ0Ny44MzMzMzMzMzMzMzMzQzE1OS4yODgzNDk0NTQzNjUxLDE0MzYuNjY2NjY2NjY2NjY2NywxODguMTMyNDU1OTc3MTgyNTMsMTQxNC4zMzMzMzMzMzMzMzMzLDIwNi43MjExNzU5MDUyNTc5NSwxNDAzLjE2NjY2NjY2NjY2NjdDMjI1LjMwOTg5NTgzMzMzMzM0LDEzOTIsMjMzLjY0MzIyOTE2NjY2NjY2LDEzOTIsMjYzLjU3NDIxODc1LDEzOTJDMjkzLjUwNTIwODMzMzMzMzMsMTM5MiwzNDUuMDMzODU0MTY2NjY2NywxMzkyLDM3MC43OTgxNzcwODMzMzMzLDEzOTJMMzk2LjU2MjUsMTM5MiI+PC9wYXRoPjxwYXRoIG1hcmtlci1lbmQ9InVybCgjZmxvd2NoYXJ0LXBvaW50RW5kKSIgc3R5bGU9ImZpbGw6bm9uZTsiIGNsYXNzPSJlZGdlLXRoaWNrbmVzcy1ub3JtYWwgZWRnZS1wYXR0ZXJuLXNvbGlkIGZsb3djaGFydC1saW5rIExTLWhhemFyZElkZW50aWZpY2F0aW9uIExFLXdvcmtwbGFjZUluc3BlY3Rpb25zIiBpZD0iTC1oYXphcmRJZGVudGlmaWNhdGlvbi13b3JrcGxhY2VJbnNwZWN0aW9ucy0wIiBkPSJNMTkxLjk3NjU2MjUsMTQ3NkwxOTYuMTQzMjI5MTY2NjY2NjYsMTQ3NkMyMDAuMzA5ODk1ODMzMzMzMzQsMTQ3NiwyMDguNjQzMjI5MTY2NjY2NjYsMTQ3NiwyMTYuOTc2NTYyNSwxNDc2QzIyNS4zMDk4OTU4MzMzMzMzNCwxNDc2LDIzMy42NDMyMjkxNjY2NjY2NiwxNDc2LDI2My40ODExMTk3OTE2NjY3LDE0NzZDMjkzLjMxOTAxMDQxNjY2NjcsMTQ3NiwzNDQuNjYxNDU4MzMzMzMzMywxNDc2LDM3MC4zMzI2ODIyOTE2NjY3LDE0NzZMMzk2LjAwMzkwNjI1LDE0NzYiPjwvcGF0aD48cGF0aCBtYXJrZXItZW5kPSJ1cmwoI2Zsb3djaGFydC1wb2ludEVuZCkiIHN0eWxlPSJmaWxsOm5vbmU7IiBjbGFzcz0iZWRnZS10aGlja25lc3Mtbm9ybWFsIGVkZ2UtcGF0dGVybi1zb2xpZCBmbG93Y2hhcnQtbGluayBMUy1oYXphcmRJZGVudGlmaWNhdGlvbiBMRS1pbmNpZGVudEludmVzdGlnYXRpb25zIiBpZD0iTC1oYXphcmRJZGVudGlmaWNhdGlvbi1pbmNpZGVudEludmVzdGlnYXRpb25zLTAiIGQ9Ik0xMzAuNDQ0MjQyOTMxNTQ3NjIsMTQ5M0wxNDQuODY2Mjk2MTkyOTU2MzYsMTUwNC4xNjY2NjY2NjY2NjY3QzE1OS4yODgzNDk0NTQzNjUxLDE1MTUuMzMzMzMzMzMzMzMzMywxODguMTMyNDU1OTc3MTgyNTMsMTUzNy42NjY2NjY2NjY2NjY3LDIwNi43MjExNzU5MDUyNTc5NSwxNTQ4LjgzMzMzMzMzMzMzMzNDMjI1LjMwOTg5NTgzMzMzMzM0LDE1NjAsMjMzLjY0MzIyOTE2NjY2NjY2LDE1NjAsMjYzLjM3MzY5NzkxNjY2NjcsMTU2MEMyOTMuMTA0MTY2NjY2NjY2NywxNTYwLDM0NC4yMzE3NzA4MzMzMzMzLDE1NjAsMzY5Ljc5NTU3MjkxNjY2NjcsMTU2MEwzOTUuMzU5Mzc1LDE1NjAiPjwvcGF0aD48cGF0aCBtYXJrZXItZW5kPSJ1cmwoI2Zsb3djaGFydC1wb2ludEVuZCkiIHN0eWxlPSJmaWxsOm5vbmU7IiBjbGFzcz0iZWRnZS10aGlja25lc3Mtbm9ybWFsIGVkZ2UtcGF0dGVybi1zb2xpZCBmbG93Y2hhcnQtbGluayBMUy1oYXphcmRJZGVudGlmaWNhdGlvbiBMRS10cmVuZEFuYWx5c2lzIiBpZD0iTC1oYXphcmRJZGVudGlmaWNhdGlvbi10cmVuZEFuYWx5c2lzLTAiIGQ9Ik0xMTkuNDY2MjYyMDkwNzczODEsMTQ5M0wxMzUuNzE3OTc4ODI1NjQ0ODUsMTUxOC4xNjY2NjY2NjY2NjY3QzE1MS45Njk2OTU1NjA1MTU4NywxNTQzLjMzMzMzMzMzMzMzMzMsMTg0LjQ3MzEyOTAzMDI1Nzk1LDE1OTMuNjY2NjY2NjY2NjY2NywyMDQuODkxNTEyNDMxNzk1NjMsMTYxOC44MzMzMzMzMzMzMzMzQzIyNS4zMDk4OTU4MzMzMzMzNCwxNjQ0LDIzMy42NDMyMjkxNjY2NjY2NiwxNjQ0LDI2OC4zNzMwNDY4NzUsMTY0NEMzMDMuMTAyODY0NTgzMzMzMywxNjQ0LDM2NC4yMjkxNjY2NjY2NjY3LDE2NDQsMzk0Ljc5MjMxNzcwODMzMzMsMTY0NEw0MjUuMzU1NDY4NzUsMTY0NCI+PC9wYXRoPjxwYXRoIG1hcmtlci1lbmQ9InVybCgjZmxvd2NoYXJ0LXBvaW50RW5kKSIgc3R5bGU9ImZpbGw6bm9uZTsiIGNsYXNzPSJlZGdlLXRoaWNrbmVzcy1ub3JtYWwgZWRnZS1wYXR0ZXJuLXNvbGlkIGZsb3djaGFydC1saW5rIExTLWhhemFyZElkZW50aWZpY2F0aW9uIExFLWVtZXJnZW5jeVNpdHVhdGlvbkNvbnNpZGVyYXRpb24iIGlkPSJMLWhhemFyZElkZW50aWZpY2F0aW9uLWVtZXJnZW5jeVNpdHVhdGlvbkNvbnNpZGVyYXRpb24tMCIgZD0iTTExNS44MDY5MzUxNDM4NDkyLDE0OTNMMTMyLjY2ODUzOTcwMzIwNzY3LDE1MzIuMTY2NjY2NjY2NjY2N0MxNDkuNTMwMTQ0MjYyNTY2MTUsMTU3MS4zMzMzMzMzMzMzMzMzLDE4My4yNTMzNTMzODEyODMwNiwxNjQ5LjY2NjY2NjY2NjY2NjcsMjA0LjI4MTYyNDYwNzMwODIsMTY4OC44MzMzMzMzMzMzMzMzQzIyNS4zMDk4OTU4MzMzMzMzNCwxNzI4LDIzMy42NDMyMjkxNjY2NjY2NiwxNzI4LDI1Ni4yNTU4NTkzNzUsMTcyOEMyNzguODY4NDg5NTgzMzMzMywxNzI4LDMxNS43NjA0MTY2NjY2NjY3LDE3MjgsMzM0LjIwNjM4MDIwODMzMzMsMTcyOEwzNTIuNjUyMzQzNzUsMTcyOCI+PC9wYXRoPjxwYXRoIG1hcmtlci1lbmQ9InVybCgjZmxvd2NoYXJ0LXBvaW50RW5kKSIgc3R5bGU9ImZpbGw6bm9uZTsiIGNsYXNzPSJlZGdlLXRoaWNrbmVzcy1ub3JtYWwgZWRnZS1wYXR0ZXJuLXNvbGlkIGZsb3djaGFydC1saW5rIExTLWhhemFyZElkZW50aWZpY2F0aW9uIExFLXJlbW90ZVNlbnNpbmdUZWNobm9sb2dpZXMiIGlkPSJMLWhhemFyZElkZW50aWZpY2F0aW9uLXJlbW90ZVNlbnNpbmdUZWNobm9sb2dpZXMtMCIgZD0iTTExMy45NzcyNzE2NzAzODY5LDE0OTNMMTMxLjE0MzgyMDE0MTk4OTEsMTU0Ni4xNjY2NjY2NjY2NjY3QzE0OC4zMTAzNjg2MTM1OTEyNywxNTk5LjMzMzMzMzMzMzMzMzMsMTgyLjY0MzQ2NTU1Njc5NTYzLDE3MDUuNjY2NjY2NjY2NjY2NywyMDMuOTc2NjgwNjk1MDY0NSwxNzU4LjgzMzMzMzMzMzMzMzNDMjI1LjMwOTg5NTgzMzMzMzM0LDE4MTIsMjMzLjY0MzIyOTE2NjY2NjY2LDE4MTIsMjU5LjY4NDg5NTgzMzMzMzMsMTgxMkMyODUuNzI2NTYyNSwxODEyLDMyOS40NzY1NjI1LDE4MTIsMzUxLjM1MTU2MjUsMTgxMkwzNzMuMjI2NTYyNSwxODEyIj48L3BhdGg+PHBhdGggbWFya2VyLWVuZD0idXJsKCNmbG93Y2hhcnQtcG9pbnRFbmQpIiBzdHlsZT0iZmlsbDpub25lOyIgY2xhc3M9ImVkZ2UtdGhpY2tuZXNzLW5vcm1hbCBlZGdlLXBhdHRlcm4tc29saWQgZmxvd2NoYXJ0LWxpbmsgTFMtaGF6YXJkSWRlbnRpZmljYXRpb24gTEUtZWFydGhPYnNlcnZhdGlvblRlY2hub2xvZ2llcyIgaWQ9IkwtaGF6YXJkSWRlbnRpZmljYXRpb24tZWFydGhPYnNlcnZhdGlvblRlY2hub2xvZ2llcy0wIiBkPSJNMTEyLjg3OTQ3MzU4NjMwOTUzLDE0OTNMMTMwLjIyODk4ODQwNTI1Nzk1LDE1NjAuMTY2NjY2NjY2NjY2N0MxNDcuNTc4NTAzMjI0MjA2MzQsMTYyNy4zMzMzMzMzMzMzMzMzLDE4Mi4yNzc1MzI4NjIxMDMyLDE3NjEuNjY2NjY2NjY2NjY2NywyMDMuNzkzNzE0MzQ3NzE4MjYsMTgyOC44MzMzMzMzMzMzMzMzQzIyNS4zMDk4OTU4MzMzMzMzNCwxODk2LDIzMy42NDMyMjkxNjY2NjY2NiwxODk2LDI1OC4zODU0MTY2NjY2NjY3LDE4OTZDMjgzLjEyNzYwNDE2NjY2NjcsMTg5NiwzMjQuMjc4NjQ1ODMzMzMzMywxODk2LDM0NC44NTQxNjY2NjY2NjY3LDE4OTZMMzY1LjQyOTY4NzUsMTg5NiI+PC9wYXRoPjxwYXRoIG1hcmtlci1lbmQ9InVybCgjZmxvd2NoYXJ0LXBvaW50RW5kKSIgc3R5bGU9ImZpbGw6bm9uZTsiIGNsYXNzPSJlZGdlLXRoaWNrbmVzcy1ub3JtYWwgZWRnZS1wYXR0ZXJuLXNvbGlkIGZsb3djaGFydC1saW5rIExTLXJpc2tBc3Nlc3NtZW50IExFLWxpa2VsaWhvb2RBbmFseXNpcyIgaWQ9Ikwtcmlza0Fzc2Vzc21lbnQtbGlrZWxpaG9vZEFuYWx5c2lzLTAiIGQ9Ik00OTcuOTI0MzA2NDQxMzI2NSw2MjFMNTM1LjkxODY5Mjg2Nzc3MjIsNTc0LjgzMzMzMzMzMzMzMzRDNTczLjkxMzA3OTI5NDIxNzcsNTI4LjY2NjY2NjY2NjY2NjYsNjQ5LjkwMTg1MjE0NzEwODgsNDM2LjMzMzMzMzMzMzMzMzMsNjkyLjA2MjkwNTI0MDIyMTEsMzkwLjE2NjY2NjY2NjY2NjdDNzM0LjIyMzk1ODMzMzMzMzQsMzQ0LDc0Mi41NTcyOTE2NjY2NjY2LDM0NCw3NTAuODkwNjI1LDM0NEM3NTkuMjIzOTU4MzMzMzMzNCwzNDQsNzY3LjU1NzI5MTY2NjY2NjYsMzQ0LDc3OS43NjE3MTg3NSwzNDRDNzkxLjk2NjE0NTgzMzMzMzQsMzQ0LDgwOC4wNDE2NjY2NjY2NjY2LDM0NCw4MTYuMDc5NDI3MDgzMzMzNCwzNDRMODI0LjExNzE4NzUsMzQ0Ij48L3BhdGg+PHBhdGggbWFya2VyLWVuZD0idXJsKCNmbG93Y2hhcnQtcG9pbnRFbmQpIiBzdHlsZT0iZmlsbDpub25lOyIgY2xhc3M9ImVkZ2UtdGhpY2tuZXNzLW5vcm1hbCBlZGdlLXBhdHRlcm4tc29saWQgZmxvd2NoYXJ0LWxpbmsgTFMtcmlza0Fzc2Vzc21lbnQgTEUtaW1wYWN0QW5hbHlzaXMiIGlkPSJMLXJpc2tBc3Nlc3NtZW50LWltcGFjdEFuYWx5c2lzLTAiIGQ9Ik01MDMuNTIwNTkxNTE3ODU3MTYsNjIxTDU0MC41ODIyNjM3NjQ4ODEsNTg4LjgzMzMzMzMzMzMzMzRDNTc3LjY0MzkzNjAxMTkwNDgsNTU2LjY2NjY2NjY2NjY2NjYsNjUxLjc2NzI4MDUwNTk1MjQsNDkyLjMzMzMzMzMzMzMzMzMsNjkyLjk5NTYxOTQxOTY0MjksNDYwLjE2NjY2NjY2NjY2NjdDNzM0LjIyMzk1ODMzMzMzMzQsNDI4LDc0Mi41NTcyOTE2NjY2NjY2LDQyOCw3NTAuODkwNjI1LDQyOEM3NTkuMjIzOTU4MzMzMzMzNCw0MjgsNzY3LjU1NzI5MTY2NjY2NjYsNDI4LDc4MS43ODI1NTIwODMzMzM0LDQyOEM3OTYuMDA3ODEyNSw0MjgsODE2LjEyNSw0MjgsODI2LjE4MzU5Mzc1LDQyOEw4MzYuMjQyMTg3NSw0MjgiPjwvcGF0aD48cGF0aCBtYXJrZXItZW5kPSJ1cmwoI2Zsb3djaGFydC1wb2ludEVuZCkiIHN0eWxlPSJmaWxsOm5vbmU7IiBjbGFzcz0iZWRnZS10aGlja25lc3Mtbm9ybWFsIGVkZ2UtcGF0dGVybi1zb2xpZCBmbG93Y2hhcnQtbGluayBMUy1yaXNrQXNzZXNzbWVudCBMRS1zdHJpZGVNZXRob2RvbG9neSIgaWQ9Ikwtcmlza0Fzc2Vzc21lbnQtc3RyaWRlTWV0aG9kb2xvZ3ktMCIgZD0iTTUxNi41Nzg1OTAwMjk3NjE5LDYyMUw1NTEuNDYzOTI5MTkxNDY4Myw2MDIuODMzMzMzMzMzMzMzNEM1ODYuMzQ5MjY4MzUzMTc0Niw1ODQuNjY2NjY2NjY2NjY2Niw2NTYuMTE5OTQ2Njc2NTg3Myw1NDguMzMzMzMzMzMzMzMzNCw2OTUuMTcxOTUyNTA0OTYwMiw1MzAuMTY2NjY2NjY2NjY2NkM3MzQuMjIzOTU4MzMzMzMzNCw1MTIsNzQyLjU1NzI5MTY2NjY2NjYsNTEyLDc1MC44OTA2MjUsNTEyQzc1OS4yMjM5NTgzMzMzMzM0LDUxMiw3NjcuNTU3MjkxNjY2NjY2Niw1MTIsNzc4LjY4ODgwMjA4MzMzMzQsNTEyQzc4OS44MjAzMTI1LDUxMiw4MDMuNzUsNTEyLDgxMC43MTQ4NDM3NSw1MTJMODE3LjY3OTY4NzUsNTEyIj48L3BhdGg+PHBhdGggbWFya2VyLWVuZD0idXJsKCNmbG93Y2hhcnQtcG9pbnRFbmQpIiBzdHlsZT0iZmlsbDpub25lOyIgY2xhc3M9ImVkZ2UtdGhpY2tuZXNzLW5vcm1hbCBlZGdlLXBhdHRlcm4tc29saWQgZmxvd2NoYXJ0LWxpbmsgTFMtcmlza0Fzc2Vzc21lbnQgTEUtYWNzbVNhck1ldGhvZG9sb2d5IiBpZD0iTC1yaXNrQXNzZXNzbWVudC1hY3NtU2FyTWV0aG9kb2xvZ3ktMCIgZD0iTTU0OC40NDkyMTg3NSw2MjYuODAxMDg0OTAzMzc1OEw1NzguMDIyNzg2NDU4MzMzNCw2MjEuNjY3NTcwNzUyODEzMkM2MDcuNTk2MzU0MTY2NjY2Niw2MTYuNTM0MDU2NjAyMjUwNSw2NjYuNzQzNDg5NTgzMzMzNCw2MDYuMjY3MDI4MzAxMTI1Myw3MDAuNDgzNzIzOTU4MzMzNCw2MDEuMTMzNTE0MTUwNTYyNkM3MzQuMjIzOTU4MzMzMzMzNCw1OTYsNzQyLjU1NzI5MTY2NjY2NjYsNTk2LDc1MC44OTA2MjUsNTk2Qzc1OS4yMjM5NTgzMzMzMzM0LDU5Niw3NjcuNTU3MjkxNjY2NjY2Niw1OTYsNzc2LjYyNTY1MTA0MTY2NjYsNTk2Qzc4NS42OTQwMTA0MTY2NjY2LDU5Niw3OTUuNDk3Mzk1ODMzMzMzNCw1OTYsODAwLjM5OTA4ODU0MTY2NjYsNTk2TDgwNS4zMDA3ODEyNSw1OTYiPjwvcGF0aD48cGF0aCBtYXJrZXItZW5kPSJ1cmwoI2Zsb3djaGFydC1wb2ludEVuZCkiIHN0eWxlPSJmaWxsOm5vbmU7IiBjbGFzcz0iZWRnZS10aGlja25lc3Mtbm9ybWFsIGVkZ2UtcGF0dGVybi1zb2xpZCBmbG93Y2hhcnQtbGluayBMUy1yaXNrQXNzZXNzbWVudCBMRS1jcmFtbU1ldGhvZG9sb2d5IiBpZD0iTC1yaXNrQXNzZXNzbWVudC1jcmFtbU1ldGhvZG9sb2d5LTAiIGQ9Ik01NDguNDQ5MjE4NzUsNjQ5LjE5ODkxNTA5NjYyNDJMNTc4LjAyMjc4NjQ1ODMzMzQsNjU0LjMzMjQyOTI0NzE4NjhDNjA3LjU5NjM1NDE2NjY2NjYsNjU5LjQ2NTk0MzM5Nzc0OTUsNjY2Ljc0MzQ4OTU4MzMzMzQsNjY5LjczMjk3MTY5ODg3NDcsNzAwLjQ4MzcyMzk1ODMzMzQsNjc0Ljg2NjQ4NTg0OTQzNzRDNzM0LjIyMzk1ODMzMzMzMzQsNjgwLDc0Mi41NTcyOTE2NjY2NjY2LDY4MCw3NTAuODkwNjI1LDY4MEM3NTkuMjIzOTU4MzMzMzMzNCw2ODAsNzY3LjU1NzI5MTY2NjY2NjYsNjgwLDc3OC41MzEyNSw2ODBDNzg5LjUwNTIwODMzMzMzMzQsNjgwLDgwMy4xMTk3OTE2NjY2NjY2LDY4MCw4MDkuOTI3MDgzMzMzMzMzNCw2ODBMODE2LjczNDM3NSw2ODAiPjwvcGF0aD48cGF0aCBtYXJrZXItZW5kPSJ1cmwoI2Zsb3djaGFydC1wb2ludEVuZCkiIHN0eWxlPSJmaWxsOm5vbmU7IiBjbGFzcz0iZWRnZS10aGlja25lc3Mtbm9ybWFsIGVkZ2UtcGF0dGVybi1zb2xpZCBmbG93Y2hhcnQtbGluayBMUy1yaXNrQXNzZXNzbWVudCBMRS1zcW1NZXRob2RvbG9neSIgaWQ9Ikwtcmlza0Fzc2Vzc21lbnQtc3FtTWV0aG9kb2xvZ3ktMCIgZD0iTTUxNi41Nzg1OTAwMjk3NjE5LDY1NUw1NTEuNDYzOTI5MTkxNDY4Myw2NzMuMTY2NjY2NjY2NjY2NkM1ODYuMzQ5MjY4MzUzMTc0Niw2OTEuMzMzMzMzMzMzMzMzNCw2NTYuMTE5OTQ2Njc2NTg3Myw3MjcuNjY2NjY2NjY2NjY2Niw2OTUuMTcxOTUyNTA0OTYwMiw3NDUuODMzMzMzMzMzMzMzNEM3MzQuMjIzOTU4MzMzMzMzNCw3NjQsNzQyLjU1NzI5MTY2NjY2NjYsNzY0LDc1MC44OTA2MjUsNzY0Qzc1OS4yMjM5NTgzMzMzMzM0LDc2NCw3NjcuNTU3MjkxNjY2NjY2Niw3NjQsNzgwLjI5NDkyMTg3NSw3NjRDNzkzLjAzMjU1MjA4MzMzMzQsNzY0LDgxMC4xNzQ0NzkxNjY2NjY2LDc2NCw4MTguNzQ1NDQyNzA4MzMzNCw3NjRMODI3LjMxNjQwNjI1LDc2NCI+PC9wYXRoPjxwYXRoIG1hcmtlci1lbmQ9InVybCgjZmxvd2NoYXJ0LXBvaW50RW5kKSIgc3R5bGU9ImZpbGw6bm9uZTsiIGNsYXNzPSJlZGdlLXRoaWNrbmVzcy1ub3JtYWwgZWRnZS1wYXR0ZXJuLXNvbGlkIGZsb3djaGFydC1saW5rIExTLXJpc2tBc3Nlc3NtZW50IExFLWFzc2V0TWV0aG9kb2xvZ3kiIGlkPSJMLXJpc2tBc3Nlc3NtZW50LWFzc2V0TWV0aG9kb2xvZ3ktMCIgZD0iTTUwMy41MjA1OTE1MTc4NTcxNiw2NTVMNTQwLjU4MjI2Mzc2NDg4MSw2ODcuMTY2NjY2NjY2NjY2NkM1NzcuNjQzOTM2MDExOTA0OCw3MTkuMzMzMzMzMzMzMzMzNCw2NTEuNzY3MjgwNTA1OTUyNCw3ODMuNjY2NjY2NjY2NjY2Niw2OTIuOTk1NjE5NDE5NjQyOSw4MTUuODMzMzMzMzMzMzMzNEM3MzQuMjIzOTU4MzMzMzMzNCw4NDgsNzQyLjU1NzI5MTY2NjY2NjYsODQ4LDc1MC44OTA2MjUsODQ4Qzc1OS4yMjM5NTgzMzMzMzM0LDg0OCw3NjcuNTU3MjkxNjY2NjY2Niw4NDgsNzc5LjE2NjY2NjY2NjY2NjYsODQ4Qzc5MC43NzYwNDE2NjY2NjY2LDg0OCw4MDUuNjYxNDU4MzMzMzMzNCw4NDgsODEzLjEwNDE2NjY2NjY2NjYsODQ4TDgyMC41NDY4NzUsODQ4Ij48L3BhdGg+PHBhdGggbWFya2VyLWVuZD0idXJsKCNmbG93Y2hhcnQtcG9pbnRFbmQpIiBzdHlsZT0iZmlsbDpub25lOyIgY2xhc3M9ImVkZ2UtdGhpY2tuZXNzLW5vcm1hbCBlZGdlLXBhdHRlcm4tc29saWQgZmxvd2NoYXJ0LWxpbmsgTFMtcmlza0Fzc2Vzc21lbnQgTEUtb2N0YXZlTWV0aG9kb2xvZ3kiIGlkPSJMLXJpc2tBc3Nlc3NtZW50LW9jdGF2ZU1ldGhvZG9sb2d5LTAiIGQ9Ik00OTcuOTI0MzA2NDQxMzI2NSw2NTVMNTM1LjkxODY5Mjg2Nzc3MjIsNzAxLjE2NjY2NjY2NjY2NjZDNTczLjkxMzA3OTI5NDIxNzcsNzQ3LjMzMzMzMzMzMzMzMzQsNjQ5LjkwMTg1MjE0NzEwODgsODM5LjY2NjY2NjY2NjY2NjYsNjkyLjA2MjkwNTI0MDIyMTEsODg1LjgzMzMzMzMzMzMzMzRDNzM0LjIyMzk1ODMzMzMzMzQsOTMyLDc0Mi41NTcyOTE2NjY2NjY2LDkzMiw3NTAuODkwNjI1LDkzMkM3NTkuMjIzOTU4MzMzMzMzNCw5MzIsNzY3LjU1NzI5MTY2NjY2NjYsOTMyLDc3OC4yNzYwNDE2NjY2NjY2LDkzMkM3ODguOTk0NzkxNjY2NjY2Niw5MzIsODAyLjA5ODk1ODMzMzMzMzQsOTMyLDgwOC42NTEwNDE2NjY2NjY2LDkzMkw4MTUuMjAzMTI1LDkzMiI+PC9wYXRoPjxwYXRoIG1hcmtlci1lbmQ9InVybCgjZmxvd2NoYXJ0LXBvaW50RW5kKSIgc3R5bGU9ImZpbGw6bm9uZTsiIGNsYXNzPSJlZGdlLXRoaWNrbmVzcy1ub3JtYWwgZWRnZS1wYXR0ZXJuLXNvbGlkIGZsb3djaGFydC1saW5rIExTLXJpc2tBc3Nlc3NtZW50IExFLXJpc2tBc3Nlc3NtZW50U29mdHdhcmUiIGlkPSJMLXJpc2tBc3Nlc3NtZW50LXJpc2tBc3Nlc3NtZW50U29mdHdhcmUtMCIgZD0iTTQ5NC44MTUyNTkxNzY1ODczLDY1NUw1MzMuMzI3ODIwMTQ3MTU2MSw3MTUuMTY2NjY2NjY2NjY2NkM1NzEuODQwMzgxMTE3NzI0OSw3NzUuMzMzMzMzMzMzMzMzNCw2NDguODY1NTAzMDU4ODYyNCw4OTUuNjY2NjY2NjY2NjY2Niw2OTEuNTQ0NzMwNjk2MDk3OSw5NTUuODMzMzMzMzMzMzMzNEM3MzQuMjIzOTU4MzMzMzMzNCwxMDE2LDc0Mi41NTcyOTE2NjY2NjY2LDEwMTYsNzUwLjg5MDYyNSwxMDE2Qzc1OS4yMjM5NTgzMzMzMzM0LDEwMTYsNzY3LjU1NzI5MTY2NjY2NjYsMTAxNiw3NzUuODkwNjI1LDEwMTZDNzg0LjIyMzk1ODMzMzMzMzQsMTAxNiw3OTIuNTU3MjkxNjY2NjY2NiwxMDE2LDc5Ni43MjM5NTgzMzMzMzM0LDEwMTZMODAwLjg5MDYyNSwxMDE2Ij48L3BhdGg+PHBhdGggbWFya2VyLWVuZD0idXJsKCNmbG93Y2hhcnQtcG9pbnRFbmQpIiBzdHlsZT0iZmlsbDpub25lOyIgY2xhc3M9ImVkZ2UtdGhpY2tuZXNzLW5vcm1hbCBlZGdlLXBhdHRlcm4tc29saWQgZmxvd2NoYXJ0LWxpbmsgTFMtZGF0YU1hbmFnZW1lbnQgTEUtZGF0YU9yZ2FuaXphdGlvbiIgaWQ9IkwtZGF0YU1hbmFnZW1lbnQtZGF0YU9yZ2FuaXphdGlvbi0wIiBkPSJNOTE1LjUxMjQ2Mjc5NzYxOSwxNjFMOTMzLjI0OTk2ODk5ODAxNTksMTQyLjgzMzMzMzMzMzMzMzM0Qzk1MC45ODc0NzUxOTg0MTI3LDEyNC42NjY2NjY2NjY2NjY2Nyw5ODYuNDYyNDg3NTk5MjA2NCw4OC4zMzMzMzMzMzMzMzMzMywxMDA4LjM2NjY2MDQ2NjI2OTksNzAuMTY2NjY2NjY2NjY2NjdDMTAzMC4yNzA4MzMzMzMzMzMzLDUyLDEwMzguNjA0MTY2NjY2NjY2Nyw1MiwxMDQ2LjkzNzUsNTJDMTA1NS4yNzA4MzMzMzMzMzMzLDUyLDEwNjMuNjA0MTY2NjY2NjY2Nyw1MiwxMDc2LjgyMDMxMjUsNTJDMTA5MC4wMzY0NTgzMzMzMzMzLDUyLDExMDguMTM1NDE2NjY2NjY2Nyw1MiwxMTE3LjE4NDg5NTgzMzMzMzMsNTJMMTEyNi4yMzQzNzUsNTIiPjwvcGF0aD48cGF0aCBtYXJrZXItZW5kPSJ1cmwoI2Zsb3djaGFydC1wb2ludEVuZCkiIHN0eWxlPSJmaWxsOm5vbmU7IiBjbGFzcz0iZWRnZS10aGlja25lc3Mtbm9ybWFsIGVkZ2UtcGF0dGVybi1zb2xpZCBmbG93Y2hhcnQtbGluayBMUy1kYXRhTWFuYWdlbWVudCBMRS1kYXRhU3RvcmFnZSIgaWQ9IkwtZGF0YU1hbmFnZW1lbnQtZGF0YVN0b3JhZ2UtMCIgZD0iTTk0OC43MDkyNjMzOTI4NTcxLDE2MUw5NjAuOTEzOTY5NDk0MDQ3NiwxNTYuODMzMzMzMzMzMzMzMzRDOTczLjExODY3NTU5NTIzODEsMTUyLjY2NjY2NjY2NjY2NjY2LDk5Ny41MjgwODc3OTc2MTg5LDE0NC4zMzMzMzMzMzMzMzMzNCwxMDEzLjg5OTQ2MDU2NTQ3NjEsMTQwLjE2NjY2NjY2NjY2NjY2QzEwMzAuMjcwODMzMzMzMzMzMywxMzYsMTAzOC42MDQxNjY2NjY2NjY3LDEzNiwxMDQ2LjkzNzUsMTM2QzEwNTUuMjcwODMzMzMzMzMzMywxMzYsMTA2My42MDQxNjY2NjY2NjY3LDEzNiwxMDc5LjgxODM1OTM3NSwxMzZDMTA5Ni4wMzI1NTIwODMzMzMzLDEzNiwxMTIwLjEyNzYwNDE2NjY2NjcsMTM2LDExMzIuMTc1MTMwMjA4MzMzMywxMzZMMTE0NC4yMjI2NTYyNSwxMzYiPjwvcGF0aD48cGF0aCBtYXJrZXItZW5kPSJ1cmwoI2Zsb3djaGFydC1wb2ludEVuZCkiIHN0eWxlPSJmaWxsOm5vbmU7IiBjbGFzcz0iZWRnZS10aGlja25lc3Mtbm9ybWFsIGVkZ2UtcGF0dGVybi1zb2xpZCBmbG93Y2hhcnQtbGluayBMUy1kYXRhTWFuYWdlbWVudCBMRS1kYXRhQW5hbHlzaXMiIGlkPSJMLWRhdGFNYW5hZ2VtZW50LWRhdGFBbmFseXNpcy0wIiBkPSJNOTQ4LjcwOTI2MzM5Mjg1NzEsMTk1TDk2MC45MTM5Njk0OTQwNDc2LDE5OS4xNjY2NjY2NjY2NjY2NkM5NzMuMTE4Njc1NTk1MjM4MSwyMDMuMzMzMzMzMzMzMzMzMzQsOTk3LjUyODA4Nzc5NzYxODksMjExLjY2NjY2NjY2NjY2NjY2LDEwMTMuODk5NDYwNTY1NDc2MSwyMTUuODMzMzMzMzMzMzMzMzRDMTAzMC4yNzA4MzMzMzMzMzMzLDIyMCwxMDM4LjYwNDE2NjY2NjY2NjcsMjIwLDEwNDYuOTM3NSwyMjBDMTA1NS4yNzA4MzMzMzMzMzMzLDIyMCwxMDYzLjYwNDE2NjY2NjY2NjcsMjIwLDEwNzkuNTU2NjQwNjI1LDIyMEMxMDk1LjUwOTExNDU4MzMzMzMsMjIwLDExMTkuMDgwNzI5MTY2NjY2NywyMjAsMTEzMC44NjY1MzY0NTgzMzMzLDIyMEwxMTQyLjY1MjM0Mzc1LDIyMCI+PC9wYXRoPjxwYXRoIG1hcmtlci1lbmQ9InVybCgjZmxvd2NoYXJ0LXBvaW50RW5kKSIgc3R5bGU9ImZpbGw6bm9uZTsiIGNsYXNzPSJlZGdlLXRoaWNrbmVzcy1ub3JtYWwgZWRnZS1wYXR0ZXJuLXNvbGlkIGZsb3djaGFydC1saW5rIExTLW1hcHBpbmdWaXN1YWxpemF0aW9uIExFLWdpc1NvZnR3YXJlIiBpZD0iTC1tYXBwaW5nVmlzdWFsaXphdGlvbi1naXNTb2Z0d2FyZS0wIiBkPSJNMTI5Ny4zNTkzNzUsMTIxMi4wMDMzNjkzMTQyODJMMTMwMS41MjYwNDE2NjY2NjY3LDEyMTIuMzM2MTQxMDk1MjM1QzEzMDUuNjkyNzA4MzMzMzMzMywxMjEyLjY2ODkxMjg3NjE4OCwxMzE0LjAyNjA0MTY2NjY2NjcsMTIxMy4zMzQ0NTY0MzgwOTQsMTMyMi4zNTkzNzUsMTIxMy42NjcyMjgyMTkwNDdDMTMzMC42OTI3MDgzMzMzMzMzLDEyMTQsMTMzOS4wMjYwNDE2NjY2NjY3LDEyMTQsMTM0Ny4zNTkzNzUsMTIxNEMxMzU1LjY5MjcwODMzMzMzMzMsMTIxNCwxMzY0LjAyNjA0MTY2NjY2NjcsMTIxNCwxMzg0LjUzNTE1NjI1LDEyMTRDMTQwNS4wNDQyNzA4MzMzMzMzLDEyMTQsMTQzNy43MjkxNjY2NjY2NjY3LDEyMTQsMTQ1NC4wNzE2MTQ1ODMzMzMzLDEyMTRMMTQ3MC40MTQwNjI1LDEyMTQiPjwvcGF0aD48cGF0aCBtYXJrZXItZW5kPSJ1cmwoI2Zsb3djaGFydC1wb2ludEVuZCkiIHN0eWxlPSJmaWxsOm5vbmU7IiBjbGFzcz0iZWRnZS10aGlja25lc3Mtbm9ybWFsIGVkZ2UtcGF0dGVybi1zb2xpZCBmbG93Y2hhcnQtbGluayBMUy1taXRpZ2F0aW9uUmVzcG9uc2VQbGFubmluZyBMRS1ldmFjdWF0aW9uUGxhbm5pbmciIGlkPSJMLW1pdGlnYXRpb25SZXNwb25zZVBsYW5uaW5nLWV2YWN1YXRpb25QbGFubmluZy0wIiBkPSJNMTU1My43Njg2MDExOTA0NzYxLDkzN0wxNTczLjgyNTM5NjgyNTM5NjksOTI1LjgzMzMzMzMzMzMzMzRDMTU5My44ODIxOTI0NjAzMTc0LDkxNC42NjY2NjY2NjY2NjY2LDE2MzMuOTk1NzgzNzMwMTU4OCw4OTIuMzMzMzMzMzMzMzMzNCwxNjU4LjIxOTI0NjAzMTc0NjMsODgxLjE2NjY2NjY2NjY2NjZDMTY4Mi40NDI3MDgzMzMzMzMzLDg3MCwxNjkwLjc3NjA0MTY2NjY2NjcsODcwLDE2OTkuMTA5Mzc1LDg3MEMxNzA3LjQ0MjcwODMzMzMzMzMsODcwLDE3MTUuNzc2MDQxNjY2NjY2Nyw4NzAsMTczOC4zMDk4OTU4MzMzMzMzLDg3MEMxNzYwLjg0Mzc1LDg3MCwxNzk3LjU3ODEyNSw4NzAsMTgxNS45NDUzMTI1LDg3MEwxODM0LjMxMjUsODcwIj48L3BhdGg+PHBhdGggbWFya2VyLWVuZD0idXJsKCNmbG93Y2hhcnQtcG9pbnRFbmQpIiBzdHlsZT0iZmlsbDpub25lOyIgY2xhc3M9ImVkZ2UtdGhpY2tuZXNzLW5vcm1hbCBlZGdlLXBhdHRlcm4tc29saWQgZmxvd2NoYXJ0LWxpbmsgTFMtbWl0aWdhdGlvblJlc3BvbnNlUGxhbm5pbmcgTEUtZW1lcmdlbmN5UmVzcG9uc2VSZXNvdXJjZUlkZW50aWZpY2F0aW9uIiBpZD0iTC1taXRpZ2F0aW9uUmVzcG9uc2VQbGFubmluZy1lbWVyZ2VuY3lSZXNwb25zZVJlc291cmNlSWRlbnRpZmljYXRpb24tMCIgZD0iTTE2NDkuMTA5Mzc1LDk1NEwxNjUzLjI3NjA0MTY2NjY2NjcsOTU0QzE2NTcuNDQyNzA4MzMzMzMzMyw5NTQsMTY2NS43NzYwNDE2NjY2NjY3LDk1NCwxNjc0LjEwOTM3NSw5NTRDMTY4Mi40NDI3MDgzMzMzMzMzLDk1NCwxNjkwLjc3NjA0MTY2NjY2NjcsOTU0LDE2OTkuMTA5Mzc1LDk1NEMxNzA3LjQ0MjcwODMzMzMzMzMsOTU0LDE3MTUuNzc2MDQxNjY2NjY2Nyw5NTQsMTcyNC4xMDkzNzUsOTU0QzE3MzIuNDQyNzA4MzMzMzMzMyw5NTQsMTc0MC43NzYwNDE2NjY2NjY3LDk1NCwxNzQ0Ljk0MjcwODMzMzMzMzMsOTU0TDE3NDkuMTA5Mzc1LDk1NCI+PC9wYXRoPjxwYXRoIG1hcmtlci1lbmQ9InVybCgjZmxvd2NoYXJ0LXBvaW50RW5kKSIgc3R5bGU9ImZpbGw6bm9uZTsiIGNsYXNzPSJlZGdlLXRoaWNrbmVzcy1ub3JtYWwgZWRnZS1wYXR0ZXJuLXNvbGlkIGZsb3djaGFydC1saW5rIExTLW1pdGlnYXRpb25SZXNwb25zZVBsYW5uaW5nIExFLWNvbW11bmljYXRpb25Qcm90b2NvbEVzdGFibGlzaG1lbnQiIGlkPSJMLW1pdGlnYXRpb25SZXNwb25zZVBsYW5uaW5nLWNvbW11bmljYXRpb25Qcm90b2NvbEVzdGFibGlzaG1lbnQtMCIgZD0iTTE1NTMuNzY4NjAxMTkwNDc2MSw5NzFMMTU3My44MjUzOTY4MjUzOTY5LDk4Mi4xNjY2NjY2NjY2NjY2QzE1OTMuODgyMTkyNDYwMzE3NCw5OTMuMzMzMzMzMzMzMzMzNCwxNjMzLjk5NTc4MzczMDE1ODgsMTAxNS42NjY2NjY2NjY2NjY2LDE2NTguMjE5MjQ2MDMxNzQ2MywxMDI2LjgzMzMzMzMzMzMzMzNDMTY4Mi40NDI3MDgzMzMzMzMzLDEwMzgsMTY5MC43NzYwNDE2NjY2NjY3LDEwMzgsMTY5OS4xMDkzNzUsMTAzOEMxNzA3LjQ0MjcwODMzMzMzMzMsMTAzOCwxNzE1Ljc3NjA0MTY2NjY2NjcsMTAzOCwxNzI2Ljc5NjIyMzk1ODMzMzMsMTAzOEMxNzM3LjgxNjQwNjI1LDEwMzgsMTc1MS41MjM0Mzc1LDEwMzgsMTc1OC4zNzY5NTMxMjUsMTAzOEwxNzY1LjIzMDQ2ODc1LDEwMzgiPjwvcGF0aD48cGF0aCBtYXJrZXItZW5kPSJ1cmwoI2Zsb3djaGFydC1wb2ludEVuZCkiIHN0eWxlPSJmaWxsOm5vbmU7IiBjbGFzcz0iZWRnZS10aGlja25lc3Mtbm9ybWFsIGVkZ2UtcGF0dGVybi1zb2xpZCBmbG93Y2hhcnQtbGluayBMUy1naXNTb2Z0d2FyZSBMRS1hcmNnaXNTb2Z0d2FyZSIgaWQ9IkwtZ2lzU29mdHdhcmUtYXJjZ2lzU29mdHdhcmUtMCIgZD0iTTE1NzYuMDU0Njg3NSwxMTk5LjI5NjA4NTMzNTU0MjZMMTU5Mi4zOTcxMzU0MTY2NjY3LDExOTQuNzQ2NzM3Nzc5NjE4OEMxNjA4LjczOTU4MzMzMzMzMzMsMTE5MC4xOTczOTAyMjM2OTUsMTY0MS40MjQ0NzkxNjY2NjY3LDExODEuMDk4Njk1MTExODQ3NSwxNjYxLjkzMzU5Mzc1LDExNzYuNTQ5MzQ3NTU1OTIzOEMxNjgyLjQ0MjcwODMzMzMzMzMsMTE3MiwxNjkwLjc3NjA0MTY2NjY2NjcsMTE3MiwxNjk5LjEwOTM3NSwxMTcyQzE3MDcuNDQyNzA4MzMzMzMzMywxMTcyLDE3MTUuNzc2MDQxNjY2NjY2NywxMTcyLDE3NDYuMzA1MzM4NTQxNjY2NywxMTcyQzE3NzYuODM0NjM1NDE2NjY2NywxMTcyLDE4MjkuNTU5ODk1ODMzMzMzMywxMTcyLDE4NTUuOTIyNTI2MDQxNjY2NywxMTcyTDE4ODIuMjg1MTU2MjUsMTE3MiI+PC9wYXRoPjxwYXRoIG1hcmtlci1lbmQ9InVybCgjZmxvd2NoYXJ0LXBvaW50RW5kKSIgc3R5bGU9ImZpbGw6bm9uZTsiIGNsYXNzPSJlZGdlLXRoaWNrbmVzcy1ub3JtYWwgZWRnZS1wYXR0ZXJuLXNvbGlkIGZsb3djaGFydC1saW5rIExTLWdpc1NvZnR3YXJlIExFLXFnaXNTb2Z0d2FyZSIgaWQ9IkwtZ2lzU29mdHdhcmUtcWdpc1NvZnR3YXJlLTAiIGQ9Ik0xNTc2LjA1NDY4NzUsMTIyOC43MDM5MTQ2NjQ0NTc0TDE1OTIuMzk3MTM1NDE2NjY2NywxMjMzLjI1MzI2MjIyMDM4MTJDMTYwOC43Mzk1ODMzMzMzMzMzLDEyMzcuODAyNjA5Nzc2MzA1LDE2NDEuNDI0NDc5MTY2NjY2NywxMjQ2LjkwMTMwNDg4ODE1MjUsMTY2MS45MzM1OTM3NSwxMjUxLjQ1MDY1MjQ0NDA3NjJDMTY4Mi40NDI3MDgzMzMzMzMzLDEyNTYsMTY5MC43NzYwNDE2NjY2NjY3LDEyNTYsMTY5OS4xMDkzNzUsMTI1NkMxNzA3LjQ0MjcwODMzMzMzMzMsMTI1NiwxNzE1Ljc3NjA0MTY2NjY2NjcsMTI1NiwxNzQ3LjQ1MjQ3Mzk1ODMzMzMsMTI1NkMxNzc5LjEyODkwNjI1LDEyNTYsMTgzNC4xNDg0Mzc1LDEyNTYsMTg2MS42NTgyMDMxMjUsMTI1NkwxODg5LjE2Nzk2ODc1LDEyNTYiPjwvcGF0aD48cGF0aCBtYXJrZXItZW5kPSJ1cmwoI2Zsb3djaGFydC1wb2ludEVuZCkiIHN0eWxlPSJmaWxsOm5vbmU7IiBjbGFzcz0iZWRnZS10aGlja25lc3Mtbm9ybWFsIGVkZ2UtcGF0dGVybi1zb2xpZCBmbG93Y2hhcnQtbGluayBMUy1kYXRhU3RvcmFnZSBMRS1kYXRhYmFzZVNlcnZlckhhcmR3YXJlIiBpZD0iTC1kYXRhU3RvcmFnZS1kYXRhYmFzZVNlcnZlckhhcmR3YXJlLTAiIGQ9Ik0xMjUwLjA3NDIxODc1LDEzNkwxMjYyLjEyMTc0NDc5MTY2NjcsMTM2QzEyNzQuMTY5MjcwODMzMzMzMywxMzYsMTI5OC4yNjQzMjI5MTY2NjY3LDEzNiwxMzE0LjQ3ODUxNTYyNSwxMzZDMTMzMC42OTI3MDgzMzMzMzMzLDEzNiwxMzM5LjAyNjA0MTY2NjY2NjcsMTM2LDEzNDcuMzU5Mzc1LDEzNkMxMzU1LjY5MjcwODMzMzMzMzMsMTM2LDEzNjQuMDI2MDQxNjY2NjY2NywxMzYsMTM4Mi40ODA0Njg3NSwxMzZDMTQwMC45MzQ4OTU4MzMzMzMzLDEzNiwxNDI5LjUxMDQxNjY2NjY2NjcsMTM2LDE0NDMuNzk4MTc3MDgzMzMzMywxMzZMMTQ1OC4wODU5Mzc1LDEzNiI+PC9wYXRoPjwvZz48ZyBjbGFzcz0iZWRnZUxhYmVscyI+PGcgY2xhc3M9ImVkZ2VMYWJlbCI+PGcgdHJhbnNmb3JtPSJ0cmFuc2xhdGUoMCwgMCkiIGNsYXNzPSJsYWJlbCI+PHJlY3QgaGVpZ2h0PSIwIiB3aWR0aD0iMCIgcnk9IjAiIHJ4PSIwIj48L3JlY3Q+PHRleHQgc3R5bGU9IiI+PHRzcGFuIGNsYXNzPSJyb3ciIHg9IjAiIGR5PSIxZW0iIHhtbDpzcGFjZT0icHJlc2VydmUiPjwvdHNwYW4+PC90ZXh0PjwvZz48L2c+PGcgY2xhc3M9ImVkZ2VMYWJlbCI+PGcgdHJhbnNmb3JtPSJ0cmFuc2xhdGUoMCwgMCkiIGNsYXNzPSJsYWJlbCI+PHJlY3QgaGVpZ2h0PSIwIiB3aWR0aD0iMCIgcnk9IjAiIHJ4PSIwIj48L3JlY3Q+PHRleHQgc3R5bGU9IiI+PHRzcGFuIGNsYXNzPSJyb3ciIHg9IjAiIGR5PSIxZW0iIHhtbDpzcGFjZT0icHJlc2VydmUiPjwvdHNwYW4+PC90ZXh0PjwvZz48L2c+PGcgY2xhc3M9ImVkZ2VMYWJlbCI+PGcgdHJhbnNmb3JtPSJ0cmFuc2xhdGUoMCwgMCkiIGNsYXNzPSJsYWJlbCI+PHJlY3QgaGVpZ2h0PSIwIiB3aWR0aD0iMCIgcnk9IjAiIHJ4PSIwIj48L3JlY3Q+PHRleHQgc3R5bGU9IiI+PHRzcGFuIGNsYXNzPSJyb3ciIHg9IjAiIGR5PSIxZW0iIHhtbDpzcGFjZT0icHJlc2VydmUiPjwvdHNwYW4+PC90ZXh0PjwvZz48L2c+PGcgY2xhc3M9ImVkZ2VMYWJlbCI+PGcgdHJhbnNmb3JtPSJ0cmFuc2xhdGUoMCwgMCkiIGNsYXNzPSJsYWJlbCI+PHJlY3QgaGVpZ2h0PSIwIiB3aWR0aD0iMCIgcnk9IjAiIHJ4PSIwIj48L3JlY3Q+PHRleHQgc3R5bGU9IiI+PHRzcGFuIGNsYXNzPSJyb3ciIHg9IjAiIGR5PSIxZW0iIHhtbDpzcGFjZT0icHJlc2VydmUiPjwvdHNwYW4+PC90ZXh0PjwvZz48L2c+PGcgY2xhc3M9ImVkZ2VMYWJlbCI+PGcgdHJhbnNmb3JtPSJ0cmFuc2xhdGUoMCwgMCkiIGNsYXNzPSJsYWJlbCI+PHJlY3QgaGVpZ2h0PSIwIiB3aWR0aD0iMCIgcnk9IjAiIHJ4PSIwIj48L3JlY3Q+PHRleHQgc3R5bGU9IiI+PHRzcGFuIGNsYXNzPSJyb3ciIHg9IjAiIGR5PSIxZW0iIHhtbDpzcGFjZT0icHJlc2VydmUiPjwvdHNwYW4+PC90ZXh0PjwvZz48L2c+PGcgY2xhc3M9ImVkZ2VMYWJlbCI+PGcgdHJhbnNmb3JtPSJ0cmFuc2xhdGUoMCwgMCkiIGNsYXNzPSJsYWJlbCI+PHJlY3QgaGVpZ2h0PSIwIiB3aWR0aD0iMCIgcnk9IjAiIHJ4PSIwIj48L3JlY3Q+PHRleHQgc3R5bGU9IiI+PHRzcGFuIGNsYXNzPSJyb3ciIHg9IjAiIGR5PSIxZW0iIHhtbDpzcGFjZT0icHJlc2VydmUiPjwvdHNwYW4+PC90ZXh0PjwvZz48L2c+PGcgY2xhc3M9ImVkZ2VMYWJlbCI+PGcgdHJhbnNmb3JtPSJ0cmFuc2xhdGUoMCwgMCkiIGNsYXNzPSJsYWJlbCI+PHJlY3QgaGVpZ2h0PSIwIiB3aWR0aD0iMCIgcnk9IjAiIHJ4PSIwIj48L3JlY3Q+PHRleHQgc3R5bGU9IiI+PHRzcGFuIGNsYXNzPSJyb3ciIHg9IjAiIGR5PSIxZW0iIHhtbDpzcGFjZT0icHJlc2VydmUiPjwvdHNwYW4+PC90ZXh0PjwvZz48L2c+PGcgY2xhc3M9ImVkZ2VMYWJlbCI+PGcgdHJhbnNmb3JtPSJ0cmFuc2xhdGUoMCwgMCkiIGNsYXNzPSJsYWJlbCI+PHJlY3QgaGVpZ2h0PSIwIiB3aWR0aD0iMCIgcnk9IjAiIHJ4PSIwIj48L3JlY3Q+PHRleHQgc3R5bGU9IiI+PHRzcGFuIGNsYXNzPSJyb3ciIHg9IjAiIGR5PSIxZW0iIHhtbDpzcGFjZT0icHJlc2VydmUiPjwvdHNwYW4+PC90ZXh0PjwvZz48L2c+PGcgY2xhc3M9ImVkZ2VMYWJlbCI+PGcgdHJhbnNmb3JtPSJ0cmFuc2xhdGUoMCwgMCkiIGNsYXNzPSJsYWJlbCI+PHJlY3QgaGVpZ2h0PSIwIiB3aWR0aD0iMCIgcnk9IjAiIHJ4PSIwIj48L3JlY3Q+PHRleHQgc3R5bGU9IiI+PHRzcGFuIGNsYXNzPSJyb3ciIHg9IjAiIGR5PSIxZW0iIHhtbDpzcGFjZT0icHJlc2VydmUiPjwvdHNwYW4+PC90ZXh0PjwvZz48L2c+PGcgY2xhc3M9ImVkZ2VMYWJlbCI+PGcgdHJhbnNmb3JtPSJ0cmFuc2xhdGUoMCwgMCkiIGNsYXNzPSJsYWJlbCI+PHJlY3QgaGVpZ2h0PSIwIiB3aWR0aD0iMCIgcnk9IjAiIHJ4PSIwIj48L3JlY3Q+PHRleHQgc3R5bGU9IiI+PHRzcGFuIGNsYXNzPSJyb3ciIHg9IjAiIGR5PSIxZW0iIHhtbDpzcGFjZT0icHJlc2VydmUiPjwvdHNwYW4+PC90ZXh0PjwvZz48L2c+PGcgY2xhc3M9ImVkZ2VMYWJlbCI+PGcgdHJhbnNmb3JtPSJ0cmFuc2xhdGUoMCwgMCkiIGNsYXNzPSJsYWJlbCI+PHJlY3QgaGVpZ2h0PSIwIiB3aWR0aD0iMCIgcnk9IjAiIHJ4PSIwIj48L3JlY3Q+PHRleHQgc3R5bGU9IiI+PHRzcGFuIGNsYXNzPSJyb3ciIHg9IjAiIGR5PSIxZW0iIHhtbDpzcGFjZT0icHJlc2VydmUiPjwvdHNwYW4+PC90ZXh0PjwvZz48L2c+PGcgY2xhc3M9ImVkZ2VMYWJlbCI+PGcgdHJhbnNmb3JtPSJ0cmFuc2xhdGUoMCwgMCkiIGNsYXNzPSJsYWJlbCI+PHJlY3QgaGVpZ2h0PSIwIiB3aWR0aD0iMCIgcnk9IjAiIHJ4PSIwIj48L3JlY3Q+PHRleHQgc3R5bGU9IiI+PHRzcGFuIGNsYXNzPSJyb3ciIHg9IjAiIGR5PSIxZW0iIHhtbDpzcGFjZT0icHJlc2VydmUiPjwvdHNwYW4+PC90ZXh0PjwvZz48L2c+PGcgY2xhc3M9ImVkZ2VMYWJlbCI+PGcgdHJhbnNmb3JtPSJ0cmFuc2xhdGUoMCwgMCkiIGNsYXNzPSJsYWJlbCI+PHJlY3QgaGVpZ2h0PSIwIiB3aWR0aD0iMCIgcnk9IjAiIHJ4PSIwIj48L3JlY3Q+PHRleHQgc3R5bGU9IiI+PHRzcGFuIGNsYXNzPSJyb3ciIHg9IjAiIGR5PSIxZW0iIHhtbDpzcGFjZT0icHJlc2VydmUiPjwvdHNwYW4+PC90ZXh0PjwvZz48L2c+PGcgY2xhc3M9ImVkZ2VMYWJlbCI+PGcgdHJhbnNmb3JtPSJ0cmFuc2xhdGUoMCwgMCkiIGNsYXNzPSJsYWJlbCI+PHJlY3QgaGVpZ2h0PSIwIiB3aWR0aD0iMCIgcnk9IjAiIHJ4PSIwIj48L3JlY3Q+PHRleHQgc3R5bGU9IiI+PHRzcGFuIGNsYXNzPSJyb3ciIHg9IjAiIGR5PSIxZW0iIHhtbDpzcGFjZT0icHJlc2VydmUiPjwvdHNwYW4+PC90ZXh0PjwvZz48L2c+PGcgY2xhc3M9ImVkZ2VMYWJlbCI+PGcgdHJhbnNmb3JtPSJ0cmFuc2xhdGUoMCwgMCkiIGNsYXNzPSJsYWJlbCI+PHJlY3QgaGVpZ2h0PSIwIiB3aWR0aD0iMCIgcnk9IjAiIHJ4PSIwIj48L3JlY3Q+PHRleHQgc3R5bGU9IiI+PHRzcGFuIGNsYXNzPSJyb3ciIHg9IjAiIGR5PSIxZW0iIHhtbDpzcGFjZT0icHJlc2VydmUiPjwvdHNwYW4+PC90ZXh0PjwvZz48L2c+PGcgY2xhc3M9ImVkZ2VMYWJlbCI+PGcgdHJhbnNmb3JtPSJ0cmFuc2xhdGUoMCwgMCkiIGNsYXNzPSJsYWJlbCI+PHJlY3QgaGVpZ2h0PSIwIiB3aWR0aD0iMCIgcnk9IjAiIHJ4PSIwIj48L3JlY3Q+PHRleHQgc3R5bGU9IiI+PHRzcGFuIGNsYXNzPSJyb3ciIHg9IjAiIGR5PSIxZW0iIHhtbDpzcGFjZT0icHJlc2VydmUiPjwvdHNwYW4+PC90ZXh0PjwvZz48L2c+PGcgY2xhc3M9ImVkZ2VMYWJlbCI+PGcgdHJhbnNmb3JtPSJ0cmFuc2xhdGUoMCwgMCkiIGNsYXNzPSJsYWJlbCI+PHJlY3QgaGVpZ2h0PSIwIiB3aWR0aD0iMCIgcnk9IjAiIHJ4PSIwIj48L3JlY3Q+PHRleHQgc3R5bGU9IiI+PHRzcGFuIGNsYXNzPSJyb3ciIHg9IjAiIGR5PSIxZW0iIHhtbDpzcGFjZT0icHJlc2VydmUiPjwvdHNwYW4+PC90ZXh0PjwvZz48L2c+PGcgY2xhc3M9ImVkZ2VMYWJlbCI+PGcgdHJhbnNmb3JtPSJ0cmFuc2xhdGUoMCwgMCkiIGNsYXNzPSJsYWJlbCI+PHJlY3QgaGVpZ2h0PSIwIiB3aWR0aD0iMCIgcnk9IjAiIHJ4PSIwIj48L3JlY3Q+PHRleHQgc3R5bGU9IiI+PHRzcGFuIGNsYXNzPSJyb3ciIHg9IjAiIGR5PSIxZW0iIHhtbDpzcGFjZT0icHJlc2VydmUiPjwvdHNwYW4+PC90ZXh0PjwvZz48L2c+PGcgY2xhc3M9ImVkZ2VMYWJlbCI+PGcgdHJhbnNmb3JtPSJ0cmFuc2xhdGUoMCwgMCkiIGNsYXNzPSJsYWJlbCI+PHJlY3QgaGVpZ2h0PSIwIiB3aWR0aD0iMCIgcnk9IjAiIHJ4PSIwIj48L3JlY3Q+PHRleHQgc3R5bGU9IiI+PHRzcGFuIGNsYXNzPSJyb3ciIHg9IjAiIGR5PSIxZW0iIHhtbDpzcGFjZT0icHJlc2VydmUiPjwvdHNwYW4+PC90ZXh0PjwvZz48L2c+PGcgY2xhc3M9ImVkZ2VMYWJlbCI+PGcgdHJhbnNmb3JtPSJ0cmFuc2xhdGUoMCwgMCkiIGNsYXNzPSJsYWJlbCI+PHJlY3QgaGVpZ2h0PSIwIiB3aWR0aD0iMCIgcnk9IjAiIHJ4PSIwIj48L3JlY3Q+PHRleHQgc3R5bGU9IiI+PHRzcGFuIGNsYXNzPSJyb3ciIHg9IjAiIGR5PSIxZW0iIHhtbDpzcGFjZT0icHJlc2VydmUiPjwvdHNwYW4+PC90ZXh0PjwvZz48L2c+PGcgY2xhc3M9ImVkZ2VMYWJlbCI+PGcgdHJhbnNmb3JtPSJ0cmFuc2xhdGUoMCwgMCkiIGNsYXNzPSJsYWJlbCI+PHJlY3QgaGVpZ2h0PSIwIiB3aWR0aD0iMCIgcnk9IjAiIHJ4PSIwIj48L3JlY3Q+PHRleHQgc3R5bGU9IiI+PHRzcGFuIGNsYXNzPSJyb3ciIHg9IjAiIGR5PSIxZW0iIHhtbDpzcGFjZT0icHJlc2VydmUiPjwvdHNwYW4+PC90ZXh0PjwvZz48L2c+PGcgY2xhc3M9ImVkZ2VMYWJlbCI+PGcgdHJhbnNmb3JtPSJ0cmFuc2xhdGUoMCwgMCkiIGNsYXNzPSJsYWJlbCI+PHJlY3QgaGVpZ2h0PSIwIiB3aWR0aD0iMCIgcnk9IjAiIHJ4PSIwIj48L3JlY3Q+PHRleHQgc3R5bGU9IiI+PHRzcGFuIGNsYXNzPSJyb3ciIHg9IjAiIGR5PSIxZW0iIHhtbDpzcGFjZT0icHJlc2VydmUiPjwvdHNwYW4+PC90ZXh0PjwvZz48L2c+PGcgY2xhc3M9ImVkZ2VMYWJlbCI+PGcgdHJhbnNmb3JtPSJ0cmFuc2xhdGUoMCwgMCkiIGNsYXNzPSJsYWJlbCI+PHJlY3QgaGVpZ2h0PSIwIiB3aWR0aD0iMCIgcnk9IjAiIHJ4PSIwIj48L3JlY3Q+PHRleHQgc3R5bGU9IiI+PHRzcGFuIGNsYXNzPSJyb3ciIHg9IjAiIGR5PSIxZW0iIHhtbDpzcGFjZT0icHJlc2VydmUiPjwvdHNwYW4+PC90ZXh0PjwvZz48L2c+PGcgY2xhc3M9ImVkZ2VMYWJlbCI+PGcgdHJhbnNmb3JtPSJ0cmFuc2xhdGUoMCwgMCkiIGNsYXNzPSJsYWJlbCI+PHJlY3QgaGVpZ2h0PSIwIiB3aWR0aD0iMCIgcnk9IjAiIHJ4PSIwIj48L3JlY3Q+PHRleHQgc3R5bGU9IiI+PHRzcGFuIGNsYXNzPSJyb3ciIHg9IjAiIGR5PSIxZW0iIHhtbDpzcGFjZT0icHJlc2VydmUiPjwvdHNwYW4+PC90ZXh0PjwvZz48L2c+PGcgY2xhc3M9ImVkZ2VMYWJlbCI+PGcgdHJhbnNmb3JtPSJ0cmFuc2xhdGUoMCwgMCkiIGNsYXNzPSJsYWJlbCI+PHJlY3QgaGVpZ2h0PSIwIiB3aWR0aD0iMCIgcnk9IjAiIHJ4PSIwIj48L3JlY3Q+PHRleHQgc3R5bGU9IiI+PHRzcGFuIGNsYXNzPSJyb3ciIHg9IjAiIGR5PSIxZW0iIHhtbDpzcGFjZT0icHJlc2VydmUiPjwvdHNwYW4+PC90ZXh0PjwvZz48L2c+PGcgY2xhc3M9ImVkZ2VMYWJlbCI+PGcgdHJhbnNmb3JtPSJ0cmFuc2xhdGUoMCwgMCkiIGNsYXNzPSJsYWJlbCI+PHJlY3QgaGVpZ2h0PSIwIiB3aWR0aD0iMCIgcnk9IjAiIHJ4PSIwIj48L3JlY3Q+PHRleHQgc3R5bGU9IiI+PHRzcGFuIGNsYXNzPSJyb3ciIHg9IjAiIGR5PSIxZW0iIHhtbDpzcGFjZT0icHJlc2VydmUiPjwvdHNwYW4+PC90ZXh0PjwvZz48L2c+PGcgY2xhc3M9ImVkZ2VMYWJlbCI+PGcgdHJhbnNmb3JtPSJ0cmFuc2xhdGUoMCwgMCkiIGNsYXNzPSJsYWJlbCI+PHJlY3QgaGVpZ2h0PSIwIiB3aWR0aD0iMCIgcnk9IjAiIHJ4PSIwIj48L3JlY3Q+PHRleHQgc3R5bGU9IiI+PHRzcGFuIGNsYXNzPSJyb3ciIHg9IjAiIGR5PSIxZW0iIHhtbDpzcGFjZT0icHJlc2VydmUiPjwvdHNwYW4+PC90ZXh0PjwvZz48L2c+PGcgY2xhc3M9ImVkZ2VMYWJlbCI+PGcgdHJhbnNmb3JtPSJ0cmFuc2xhdGUoMCwgMCkiIGNsYXNzPSJsYWJlbCI+PHJlY3QgaGVpZ2h0PSIwIiB3aWR0aD0iMCIgcnk9IjAiIHJ4PSIwIj48L3JlY3Q+PHRleHQgc3R5bGU9IiI+PHRzcGFuIGNsYXNzPSJyb3ciIHg9IjAiIGR5PSIxZW0iIHhtbDpzcGFjZT0icHJlc2VydmUiPjwvdHNwYW4+PC90ZXh0PjwvZz48L2c+PGcgY2xhc3M9ImVkZ2VMYWJlbCI+PGcgdHJhbnNmb3JtPSJ0cmFuc2xhdGUoMCwgMCkiIGNsYXNzPSJsYWJlbCI+PHJlY3QgaGVpZ2h0PSIwIiB3aWR0aD0iMCIgcnk9IjAiIHJ4PSIwIj48L3JlY3Q+PHRleHQgc3R5bGU9IiI+PHRzcGFuIGNsYXNzPSJyb3ciIHg9IjAiIGR5PSIxZW0iIHhtbDpzcGFjZT0icHJlc2VydmUiPjwvdHNwYW4+PC90ZXh0PjwvZz48L2c+PGcgY2xhc3M9ImVkZ2VMYWJlbCI+PGcgdHJhbnNmb3JtPSJ0cmFuc2xhdGUoMCwgMCkiIGNsYXNzPSJsYWJlbCI+PHJlY3QgaGVpZ2h0PSIwIiB3aWR0aD0iMCIgcnk9IjAiIHJ4PSIwIj48L3JlY3Q+PHRleHQgc3R5bGU9IiI+PHRzcGFuIGNsYXNzPSJyb3ciIHg9IjAiIGR5PSIxZW0iIHhtbDpzcGFjZT0icHJlc2VydmUiPjwvdHNwYW4+PC90ZXh0PjwvZz48L2c+PGcgY2xhc3M9ImVkZ2VMYWJlbCI+PGcgdHJhbnNmb3JtPSJ0cmFuc2xhdGUoMCwgMCkiIGNsYXNzPSJsYWJlbCI+PHJlY3QgaGVpZ2h0PSIwIiB3aWR0aD0iMCIgcnk9IjAiIHJ4PSIwIj48L3JlY3Q+PHRleHQgc3R5bGU9IiI+PHRzcGFuIGNsYXNzPSJyb3ciIHg9IjAiIGR5PSIxZW0iIHhtbDpzcGFjZT0icHJlc2VydmUiPjwvdHNwYW4+PC90ZXh0PjwvZz48L2c+PGcgY2xhc3M9ImVkZ2VMYWJlbCI+PGcgdHJhbnNmb3JtPSJ0cmFuc2xhdGUoMCwgMCkiIGNsYXNzPSJsYWJlbCI+PHJlY3QgaGVpZ2h0PSIwIiB3aWR0aD0iMCIgcnk9IjAiIHJ4PSIwIj48L3JlY3Q+PHRleHQgc3R5bGU9IiI+PHRzcGFuIGNsYXNzPSJyb3ciIHg9IjAiIGR5PSIxZW0iIHhtbDpzcGFjZT0icHJlc2VydmUiPjwvdHNwYW4+PC90ZXh0PjwvZz48L2c+PGcgY2xhc3M9ImVkZ2VMYWJlbCI+PGcgdHJhbnNmb3JtPSJ0cmFuc2xhdGUoMCwgMCkiIGNsYXNzPSJsYWJlbCI+PHJlY3QgaGVpZ2h0PSIwIiB3aWR0aD0iMCIgcnk9IjAiIHJ4PSIwIj48L3JlY3Q+PHRleHQgc3R5bGU9IiI+PHRzcGFuIGNsYXNzPSJyb3ciIHg9IjAiIGR5PSIxZW0iIHhtbDpzcGFjZT0icHJlc2VydmUiPjwvdHNwYW4+PC90ZXh0PjwvZz48L2c+PC9nPjxnIGNsYXNzPSJub2RlcyI+PGcgdHJhbnNmb3JtPSJ0cmFuc2xhdGUoMTUyMy4yMzQzNzUsIDEzNikiIGlkPSJmbG93Y2hhcnQtZGF0YWJhc2VTZXJ2ZXJIYXJkd2FyZS0zMTgiIGNsYXNzPSJub2RlIGRlZmF1bHQgZGVmYXVsdCI+PHJlY3QgaGVpZ2h0PSIzNCIgd2lkdGg9IjEzMC4yOTY4NzUiIHk9Ii0xNyIgeD0iLTY1LjE0ODQzNzUiIHJ5PSIwIiByeD0iMCIgc3R5bGU9IiIgY2xhc3M9ImJhc2ljIGxhYmVsLWNvbnRhaW5lciI+PC9yZWN0PjxnIHRyYW5zZm9ybT0idHJhbnNsYXRlKC01Ny42NDg0Mzc1LCAtOS41KSIgc3R5bGU9IiIgY2xhc3M9ImxhYmVsIj48dGV4dCBzdHlsZT0iIj48dHNwYW4gY2xhc3M9InJvdyIgeD0iMCIgZHk9IjFlbSIgeG1sOnNwYWNlPSJwcmVzZXJ2ZSI+RGF0YWJhc2Ugc2VydmVyPC90c3Bhbj48L3RleHQ+PC9nPjwvZz48ZyB0cmFuc2Zvcm09InRyYW5zbGF0ZSgxOTEzLjcxMDkzNzUsIDExNzIpIiBpZD0iZmxvd2NoYXJ0LWFyY2dpc1NvZnR3YXJlLTMxNCIgY2xhc3M9Im5vZGUgZGVmYXVsdCBkZWZhdWx0Ij48cmVjdCBoZWlnaHQ9IjM0IiB3aWR0aD0iNjIuODUxNTYyNSIgeT0iLTE3IiB4PSItMzEuNDI1NzgxMjUiIHJ5PSIwIiByeD0iMCIgc3R5bGU9IiIgY2xhc3M9ImJhc2ljIGxhYmVsLWNvbnRhaW5lciI+PC9yZWN0PjxnIHRyYW5zZm9ybT0idHJhbnNsYXRlKC0yMy45MjU3ODEyNSwgLTkuNSkiIHN0eWxlPSIiIGNsYXNzPSJsYWJlbCI+PHRleHQgc3R5bGU9IiI+PHRzcGFuIGNsYXNzPSJyb3ciIHg9IjAiIGR5PSIxZW0iIHhtbDpzcGFjZT0icHJlc2VydmUiPkFyY0dJUzwvdHNwYW4+PC90ZXh0PjwvZz48L2c+PGcgdHJhbnNmb3JtPSJ0cmFuc2xhdGUoMTkxMy43MTA5Mzc1LCAxMjU2KSIgaWQ9ImZsb3djaGFydC1xZ2lzU29mdHdhcmUtMzE2IiBjbGFzcz0ibm9kZSBkZWZhdWx0IGRlZmF1bHQiPjxyZWN0IGhlaWdodD0iMzQiIHdpZHRoPSI0OS4wODU5Mzc1IiB5PSItMTciIHg9Ii0yNC41NDI5Njg3NSIgcnk9IjAiIHJ4PSIwIiBzdHlsZT0iIiBjbGFzcz0iYmFzaWMgbGFiZWwtY29udGFpbmVyIj48L3JlY3Q+PGcgdHJhbnNmb3JtPSJ0cmFuc2xhdGUoLTE3LjA0Mjk2ODc1LCAtOS41KSIgc3R5bGU9IiIgY2xhc3M9ImxhYmVsIj48dGV4dCBzdHlsZT0iIj48dHNwYW4gY2xhc3M9InJvdyIgeD0iMCIgZHk9IjFlbSIgeG1sOnNwYWNlPSJwcmVzZXJ2ZSI+UUdJUzwvdHNwYW4+PC90ZXh0PjwvZz48L2c+PGcgdHJhbnNmb3JtPSJ0cmFuc2xhdGUoMTkxMy43MTA5Mzc1LCA4NzApIiBpZD0iZmxvd2NoYXJ0LWV2YWN1YXRpb25QbGFubmluZy0zMDgiIGNsYXNzPSJub2RlIGRlZmF1bHQgZGVmYXVsdCI+PHJlY3QgaGVpZ2h0PSIzNCIgd2lkdGg9IjE1OC43OTY4NzUiIHk9Ii0xNyIgeD0iLTc5LjM5ODQzNzUiIHJ5PSIwIiByeD0iMCIgc3R5bGU9IiIgY2xhc3M9ImJhc2ljIGxhYmVsLWNvbnRhaW5lciI+PC9yZWN0PjxnIHRyYW5zZm9ybT0idHJhbnNsYXRlKC03MS44OTg0Mzc1LCAtOS41KSIgc3R5bGU9IiIgY2xhc3M9ImxhYmVsIj48dGV4dCBzdHlsZT0iIj48dHNwYW4gY2xhc3M9InJvdyIgeD0iMCIgZHk9IjFlbSIgeG1sOnNwYWNlPSJwcmVzZXJ2ZSI+RXZhY3VhdGlvbiBwbGFubmluZzwvdHNwYW4+PC90ZXh0PjwvZz48L2c+PGcgdHJhbnNmb3JtPSJ0cmFuc2xhdGUoMTUyMy4yMzQzNzUsIDk1NCkiIGlkPSJmbG93Y2hhcnQtbWl0aWdhdGlvblJlc3BvbnNlUGxhbm5pbmctMjYwIiBjbGFzcz0ibm9kZSBkZWZhdWx0IGRlZmF1bHQiPjxyZWN0IGhlaWdodD0iMzQiIHdpZHRoPSIyNTEuNzUiIHk9Ii0xNyIgeD0iLTEyNS44NzUiIHJ5PSIwIiByeD0iMCIgc3R5bGU9IiIgY2xhc3M9ImJhc2ljIGxhYmVsLWNvbnRhaW5lciI+PC9yZWN0PjxnIHRyYW5zZm9ybT0idHJhbnNsYXRlKC0xMTguMzc1LCAtOS41KSIgc3R5bGU9IiIgY2xhc3M9ImxhYmVsIj48dGV4dCBzdHlsZT0iIj48dHNwYW4gY2xhc3M9InJvdyIgeD0iMCIgZHk9IjFlbSIgeG1sOnNwYWNlPSJwcmVzZXJ2ZSI+TWl0aWdhdGlvbiBhbmQgcmVzcG9uc2UgcGxhbm5pbmc8L3RzcGFuPjwvdGV4dD48L2c+PC9nPjxnIHRyYW5zZm9ybT0idHJhbnNsYXRlKDE5MTMuNzEwOTM3NSwgOTU0KSIgaWQ9ImZsb3djaGFydC1lbWVyZ2VuY3lSZXNwb25zZVJlc291cmNlSWRlbnRpZmljYXRpb24tMzEwIiBjbGFzcz0ibm9kZSBkZWZhdWx0IGRlZmF1bHQiPjxyZWN0IGhlaWdodD0iMzQiIHdpZHRoPSIzMjkuMjAzMTI1IiB5PSItMTciIHg9Ii0xNjQuNjAxNTYyNSIgcnk9IjAiIHJ4PSIwIiBzdHlsZT0iIiBjbGFzcz0iYmFzaWMgbGFiZWwtY29udGFpbmVyIj48L3JlY3Q+PGcgdHJhbnNmb3JtPSJ0cmFuc2xhdGUoLTE1Ny4xMDE1NjI1LCAtOS41KSIgc3R5bGU9IiIgY2xhc3M9ImxhYmVsIj48dGV4dCBzdHlsZT0iIj48dHNwYW4gY2xhc3M9InJvdyIgeD0iMCIgZHk9IjFlbSIgeG1sOnNwYWNlPSJwcmVzZXJ2ZSI+RW1lcmdlbmN5IHJlc3BvbnNlIHJlc291cmNlIGlkZW50aWZpY2F0aW9uPC90c3Bhbj48L3RleHQ+PC9nPjwvZz48ZyB0cmFuc2Zvcm09InRyYW5zbGF0ZSgxOTEzLjcxMDkzNzUsIDEwMzgpIiBpZD0iZmxvd2NoYXJ0LWNvbW11bmljYXRpb25Qcm90b2NvbEVzdGFibGlzaG1lbnQtMzEyIiBjbGFzcz0ibm9kZSBkZWZhdWx0IGRlZmF1bHQiPjxyZWN0IGhlaWdodD0iMzQiIHdpZHRoPSIyOTYuOTYwOTM3NSIgeT0iLTE3IiB4PSItMTQ4LjQ4MDQ2ODc1IiByeT0iMCIgcng9IjAiIHN0eWxlPSIiIGNsYXNzPSJiYXNpYyBsYWJlbC1jb250YWluZXIiPjwvcmVjdD48ZyB0cmFuc2Zvcm09InRyYW5zbGF0ZSgtMTQwLjk4MDQ2ODc1LCAtOS41KSIgc3R5bGU9IiIgY2xhc3M9ImxhYmVsIj48dGV4dCBzdHlsZT0iIj48dHNwYW4gY2xhc3M9InJvdyIgeD0iMCIgZHk9IjFlbSIgeG1sOnNwYWNlPSJwcmVzZXJ2ZSI+Q29tbXVuaWNhdGlvbiBwcm90b2NvbCBlc3RhYmxpc2htZW50PC90c3Bhbj48L3RleHQ+PC9nPjwvZz48ZyB0cmFuc2Zvcm09InRyYW5zbGF0ZSgxNTIzLjIzNDM3NSwgMTIxNCkiIGlkPSJmbG93Y2hhcnQtZ2lzU29mdHdhcmUtMzA2IiBjbGFzcz0ibm9kZSBkZWZhdWx0IGRlZmF1bHQiPjxyZWN0IGhlaWdodD0iMzQiIHdpZHRoPSIxMDUuNjQwNjI1IiB5PSItMTciIHg9Ii01Mi44MjAzMTI1IiByeT0iMCIgcng9IjAiIHN0eWxlPSIiIGNsYXNzPSJiYXNpYyBsYWJlbC1jb250YWluZXIiPjwvcmVjdD48ZyB0cmFuc2Zvcm09InRyYW5zbGF0ZSgtNDUuMzIwMzEyNSwgLTkuNSkiIHN0eWxlPSIiIGNsYXNzPSJsYWJlbCI+PHRleHQgc3R5bGU9IiI+PHRzcGFuIGNsYXNzPSJyb3ciIHg9IjAiIGR5PSIxZW0iIHhtbDpzcGFjZT0icHJlc2VydmUiPkdJUyBzb2Z0d2FyZTwvdHNwYW4+PC90ZXh0PjwvZz48L2c+PGcgdHJhbnNmb3JtPSJ0cmFuc2xhdGUoMTE5Ny4xNDg0Mzc1LCAxMjA0KSIgaWQ9ImZsb3djaGFydC1tYXBwaW5nVmlzdWFsaXphdGlvbi0yNTgiIGNsYXNzPSJub2RlIGRlZmF1bHQgZGVmYXVsdCI+PHJlY3QgaGVpZ2h0PSIzNCIgd2lkdGg9IjIwMC40MjE4NzUiIHk9Ii0xNyIgeD0iLTEwMC4yMTA5Mzc1IiByeT0iMCIgcng9IjAiIHN0eWxlPSIiIGNsYXNzPSJiYXNpYyBsYWJlbC1jb250YWluZXIiPjwvcmVjdD48ZyB0cmFuc2Zvcm09InRyYW5zbGF0ZSgtOTIuNzEwOTM3NSwgLTkuNSkiIHN0eWxlPSIiIGNsYXNzPSJsYWJlbCI+PHRleHQgc3R5bGU9IiI+PHRzcGFuIGNsYXNzPSJyb3ciIHg9IjAiIGR5PSIxZW0iIHhtbDpzcGFjZT0icHJlc2VydmUiPk1hcHBpbmcgYW5kIHZpc3VhbGl6YXRpb248L3RzcGFuPjwvdGV4dD48L2c+PC9nPjxnIHRyYW5zZm9ybT0idHJhbnNsYXRlKDExOTcuMTQ4NDM3NSwgNTIpIiBpZD0iZmxvd2NoYXJ0LWRhdGFPcmdhbml6YXRpb24tMzAwIiBjbGFzcz0ibm9kZSBkZWZhdWx0IGRlZmF1bHQiPjxyZWN0IGhlaWdodD0iMzQiIHdpZHRoPSIxNDEuODI4MTI1IiB5PSItMTciIHg9Ii03MC45MTQwNjI1IiByeT0iMCIgcng9IjAiIHN0eWxlPSIiIGNsYXNzPSJiYXNpYyBsYWJlbC1jb250YWluZXIiPjwvcmVjdD48ZyB0cmFuc2Zvcm09InRyYW5zbGF0ZSgtNjMuNDE0MDYyNSwgLTkuNSkiIHN0eWxlPSIiIGNsYXNzPSJsYWJlbCI+PHRleHQgc3R5bGU9IiI+PHRzcGFuIGNsYXNzPSJyb3ciIHg9IjAiIGR5PSIxZW0iIHhtbDpzcGFjZT0icHJlc2VydmUiPkRhdGEgb3JnYW5pemF0aW9uPC90c3Bhbj48L3RleHQ+PC9nPjwvZz48ZyB0cmFuc2Zvcm09InRyYW5zbGF0ZSg4OTguOTE0MDYyNSwgMTc4KSIgaWQ9ImZsb3djaGFydC1kYXRhTWFuYWdlbWVudC0yNTYiIGNsYXNzPSJub2RlIGRlZmF1bHQgZGVmYXVsdCI+PHJlY3QgaGVpZ2h0PSIzNCIgd2lkdGg9IjE0Ni4xMzI4MTI1IiB5PSItMTciIHg9Ii03My4wNjY0MDYyNSIgcnk9IjAiIHJ4PSIwIiBzdHlsZT0iIiBjbGFzcz0iYmFzaWMgbGFiZWwtY29udGFpbmVyIj48L3JlY3Q+PGcgdHJhbnNmb3JtPSJ0cmFuc2xhdGUoLTY1LjU2NjQwNjI1LCAtOS41KSIgc3R5bGU9IiIgY2xhc3M9ImxhYmVsIj48dGV4dCBzdHlsZT0iIj48dHNwYW4gY2xhc3M9InJvdyIgeD0iMCIgZHk9IjFlbSIgeG1sOnNwYWNlPSJwcmVzZXJ2ZSI+RGF0YSBtYW5hZ2VtZW50PC90c3Bhbj48L3RleHQ+PC9nPjwvZz48ZyB0cmFuc2Zvcm09InRyYW5zbGF0ZSgxMTk3LjE0ODQzNzUsIDEzNikiIGlkPSJmbG93Y2hhcnQtZGF0YVN0b3JhZ2UtMzAyIiBjbGFzcz0ibm9kZSBkZWZhdWx0IGRlZmF1bHQiPjxyZWN0IGhlaWdodD0iMzQiIHdpZHRoPSIxMDUuODUxNTYyNSIgeT0iLTE3IiB4PSItNTIuOTI1NzgxMjUiIHJ5PSIwIiByeD0iMCIgc3R5bGU9IiIgY2xhc3M9ImJhc2ljIGxhYmVsLWNvbnRhaW5lciI+PC9yZWN0PjxnIHRyYW5zZm9ybT0idHJhbnNsYXRlKC00NS40MjU3ODEyNSwgLTkuNSkiIHN0eWxlPSIiIGNsYXNzPSJsYWJlbCI+PHRleHQgc3R5bGU9IiI+PHRzcGFuIGNsYXNzPSJyb3ciIHg9IjAiIGR5PSIxZW0iIHhtbDpzcGFjZT0icHJlc2VydmUiPkRhdGEgc3RvcmFnZTwvdHNwYW4+PC90ZXh0PjwvZz48L2c+PGcgdHJhbnNmb3JtPSJ0cmFuc2xhdGUoMTE5Ny4xNDg0Mzc1LCAyMjApIiBpZD0iZmxvd2NoYXJ0LWRhdGFBbmFseXNpcy0zMDQiIGNsYXNzPSJub2RlIGRlZmF1bHQgZGVmYXVsdCI+PHJlY3QgaGVpZ2h0PSIzNCIgd2lkdGg9IjEwOC45OTIxODc1IiB5PSItMTciIHg9Ii01NC40OTYwOTM3NSIgcnk9IjAiIHJ4PSIwIiBzdHlsZT0iIiBjbGFzcz0iYmFzaWMgbGFiZWwtY29udGFpbmVyIj48L3JlY3Q+PGcgdHJhbnNmb3JtPSJ0cmFuc2xhdGUoLTQ2Ljk5NjA5Mzc1LCAtOS41KSIgc3R5bGU9IiIgY2xhc3M9ImxhYmVsIj48dGV4dCBzdHlsZT0iIj48dHNwYW4gY2xhc3M9InJvdyIgeD0iMCIgZHk9IjFlbSIgeG1sOnNwYWNlPSJwcmVzZXJ2ZSI+RGF0YSBhbmFseXNpczwvdHNwYW4+PC90ZXh0PjwvZz48L2c+PGcgdHJhbnNmb3JtPSJ0cmFuc2xhdGUoODk4LjkxNDA2MjUsIDM0NCkiIGlkPSJmbG93Y2hhcnQtbGlrZWxpaG9vZEFuYWx5c2lzLTI4MiIgY2xhc3M9Im5vZGUgZGVmYXVsdCBkZWZhdWx0Ij48cmVjdCBoZWlnaHQ9IjM0IiB3aWR0aD0iMTQ5LjU5Mzc1IiB5PSItMTciIHg9Ii03NC43OTY4NzUiIHJ5PSIwIiByeD0iMCIgc3R5bGU9IiIgY2xhc3M9ImJhc2ljIGxhYmVsLWNvbnRhaW5lciI+PC9yZWN0PjxnIHRyYW5zZm9ybT0idHJhbnNsYXRlKC02Ny4yOTY4NzUsIC05LjUpIiBzdHlsZT0iIiBjbGFzcz0ibGFiZWwiPjx0ZXh0IHN0eWxlPSIiPjx0c3BhbiBjbGFzcz0icm93IiB4PSIwIiBkeT0iMWVtIiB4bWw6c3BhY2U9InByZXNlcnZlIj5MaWtlbGlob29kIGFuYWx5c2lzPC90c3Bhbj48L3RleHQ+PC9nPjwvZz48ZyB0cmFuc2Zvcm09InRyYW5zbGF0ZSg0ODMuOTMzNTkzNzUsIDYzOCkiIGlkPSJmbG93Y2hhcnQtcmlza0Fzc2Vzc21lbnQtMjU0IiBjbGFzcz0ibm9kZSBkZWZhdWx0IGRlZmF1bHQiPjxyZWN0IGhlaWdodD0iMzQiIHdpZHRoPSIxMjkuMDMxMjUiIHk9Ii0xNyIgeD0iLTY0LjUxNTYyNSIgcnk9IjAiIHJ4PSIwIiBzdHlsZT0iIiBjbGFzcz0iYmFzaWMgbGFiZWwtY29udGFpbmVyIj48L3JlY3Q+PGcgdHJhbnNmb3JtPSJ0cmFuc2xhdGUoLTU3LjAxNTYyNSwgLTkuNSkiIHN0eWxlPSIiIGNsYXNzPSJsYWJlbCI+PHRleHQgc3R5bGU9IiI+PHRzcGFuIGNsYXNzPSJyb3ciIHg9IjAiIGR5PSIxZW0iIHhtbDpzcGFjZT0icHJlc2VydmUiPlJpc2sgYXNzZXNzbWVudDwvdHNwYW4+PC90ZXh0PjwvZz48L2c+PGcgdHJhbnNmb3JtPSJ0cmFuc2xhdGUoODk4LjkxNDA2MjUsIDQyOCkiIGlkPSJmbG93Y2hhcnQtaW1wYWN0QW5hbHlzaXMtMjg0IiBjbGFzcz0ibm9kZSBkZWZhdWx0IGRlZmF1bHQiPjxyZWN0IGhlaWdodD0iMzQiIHdpZHRoPSIxMjUuMzQzNzUiIHk9Ii0xNyIgeD0iLTYyLjY3MTg3NSIgcnk9IjAiIHJ4PSIwIiBzdHlsZT0iIiBjbGFzcz0iYmFzaWMgbGFiZWwtY29udGFpbmVyIj48L3JlY3Q+PGcgdHJhbnNmb3JtPSJ0cmFuc2xhdGUoLTU1LjE3MTg3NSwgLTkuNSkiIHN0eWxlPSIiIGNsYXNzPSJsYWJlbCI+PHRleHQgc3R5bGU9IiI+PHRzcGFuIGNsYXNzPSJyb3ciIHg9IjAiIGR5PSIxZW0iIHhtbDpzcGFjZT0icHJlc2VydmUiPkltcGFjdCBhbmFseXNpczwvdHNwYW4+PC90ZXh0PjwvZz48L2c+PGcgdHJhbnNmb3JtPSJ0cmFuc2xhdGUoODk4LjkxNDA2MjUsIDUxMikiIGlkPSJmbG93Y2hhcnQtc3RyaWRlTWV0aG9kb2xvZ3ktMjg2IiBjbGFzcz0ibm9kZSBkZWZhdWx0IGRlZmF1bHQiPjxyZWN0IGhlaWdodD0iMzQiIHdpZHRoPSIxNjIuNDY4NzUiIHk9Ii0xNyIgeD0iLTgxLjIzNDM3NSIgcnk9IjAiIHJ4PSIwIiBzdHlsZT0iIiBjbGFzcz0iYmFzaWMgbGFiZWwtY29udGFpbmVyIj48L3JlY3Q+PGcgdHJhbnNmb3JtPSJ0cmFuc2xhdGUoLTczLjczNDM3NSwgLTkuNSkiIHN0eWxlPSIiIGNsYXNzPSJsYWJlbCI+PHRleHQgc3R5bGU9IiI+PHRzcGFuIGNsYXNzPSJyb3ciIHg9IjAiIGR5PSIxZW0iIHhtbDpzcGFjZT0icHJlc2VydmUiPlNUUklERSBtZXRob2RvbG9neTwvdHNwYW4+PC90ZXh0PjwvZz48L2c+PGcgdHJhbnNmb3JtPSJ0cmFuc2xhdGUoODk4LjkxNDA2MjUsIDU5NikiIGlkPSJmbG93Y2hhcnQtYWNzbVNhck1ldGhvZG9sb2d5LTI4OCIgY2xhc3M9Im5vZGUgZGVmYXVsdCBkZWZhdWx0Ij48cmVjdCBoZWlnaHQ9IjM0IiB3aWR0aD0iMTg3LjIyNjU2MjUiIHk9Ii0xNyIgeD0iLTkzLjYxMzI4MTI1IiByeT0iMCIgcng9IjAiIHN0eWxlPSIiIGNsYXNzPSJiYXNpYyBsYWJlbC1jb250YWluZXIiPjwvcmVjdD48ZyB0cmFuc2Zvcm09InRyYW5zbGF0ZSgtODYuMTEzMjgxMjUsIC05LjUpIiBzdHlsZT0iIiBjbGFzcz0ibGFiZWwiPjx0ZXh0IHN0eWxlPSIiPjx0c3BhbiBjbGFzcz0icm93IiB4PSIwIiBkeT0iMWVtIiB4bWw6c3BhY2U9InByZXNlcnZlIj5BQ1NNL1NBUiBtZXRob2RvbG9neTwvdHNwYW4+PC90ZXh0PjwvZz48L2c+PGcgdHJhbnNmb3JtPSJ0cmFuc2xhdGUoODk4LjkxNDA2MjUsIDY4MCkiIGlkPSJmbG93Y2hhcnQtY3JhbW1NZXRob2RvbG9neS0yOTAiIGNsYXNzPSJub2RlIGRlZmF1bHQgZGVmYXVsdCI+PHJlY3QgaGVpZ2h0PSIzNCIgd2lkdGg9IjE2NC4zNTkzNzUiIHk9Ii0xNyIgeD0iLTgyLjE3OTY4NzUiIHJ5PSIwIiByeD0iMCIgc3R5bGU9IiIgY2xhc3M9ImJhc2ljIGxhYmVsLWNvbnRhaW5lciI+PC9yZWN0PjxnIHRyYW5zZm9ybT0idHJhbnNsYXRlKC03NC42Nzk2ODc1LCAtOS41KSIgc3R5bGU9IiIgY2xhc3M9ImxhYmVsIj48dGV4dCBzdHlsZT0iIj48dHNwYW4gY2xhc3M9InJvdyIgeD0iMCIgZHk9IjFlbSIgeG1sOnNwYWNlPSJwcmVzZXJ2ZSI+Q1JBTU0gbWV0aG9kb2xvZ3k8L3RzcGFuPjwvdGV4dD48L2c+PC9nPjxnIHRyYW5zZm9ybT0idHJhbnNsYXRlKDg5OC45MTQwNjI1LCA3NjQpIiBpZD0iZmxvd2NoYXJ0LXNxbU1ldGhvZG9sb2d5LTI5MiIgY2xhc3M9Im5vZGUgZGVmYXVsdCBkZWZhdWx0Ij48cmVjdCBoZWlnaHQ9IjM0IiB3aWR0aD0iMTQzLjE5NTMxMjUiIHk9Ii0xNyIgeD0iLTcxLjU5NzY1NjI1IiByeT0iMCIgcng9IjAiIHN0eWxlPSIiIGNsYXNzPSJiYXNpYyBsYWJlbC1jb250YWluZXIiPjwvcmVjdD48ZyB0cmFuc2Zvcm09InRyYW5zbGF0ZSgtNjQuMDk3NjU2MjUsIC05LjUpIiBzdHlsZT0iIiBjbGFzcz0ibGFiZWwiPjx0ZXh0IHN0eWxlPSIiPjx0c3BhbiBjbGFzcz0icm93IiB4PSIwIiBkeT0iMWVtIiB4bWw6c3BhY2U9InByZXNlcnZlIj5TUU0gbWV0aG9kb2xvZ3k8L3RzcGFuPjwvdGV4dD48L2c+PC9nPjxnIHRyYW5zZm9ybT0idHJhbnNsYXRlKDg5OC45MTQwNjI1LCA4NDgpIiBpZD0iZmxvd2NoYXJ0LWFzc2V0TWV0aG9kb2xvZ3ktMjk0IiBjbGFzcz0ibm9kZSBkZWZhdWx0IGRlZmF1bHQiPjxyZWN0IGhlaWdodD0iMzQiIHdpZHRoPSIxNTYuNzM0Mzc1IiB5PSItMTciIHg9Ii03OC4zNjcxODc1IiByeT0iMCIgcng9IjAiIHN0eWxlPSIiIGNsYXNzPSJiYXNpYyBsYWJlbC1jb250YWluZXIiPjwvcmVjdD48ZyB0cmFuc2Zvcm09InRyYW5zbGF0ZSgtNzAuODY3MTg3NSwgLTkuNSkiIHN0eWxlPSIiIGNsYXNzPSJsYWJlbCI+PHRleHQgc3R5bGU9IiI+PHRzcGFuIGNsYXNzPSJyb3ciIHg9IjAiIGR5PSIxZW0iIHhtbDpzcGFjZT0icHJlc2VydmUiPkFTU0VUIG1ldGhvZG9sb2d5PC90c3Bhbj48L3RleHQ+PC9nPjwvZz48ZyB0cmFuc2Zvcm09InRyYW5zbGF0ZSg4OTguOTE0MDYyNSwgOTMyKSIgaWQ9ImZsb3djaGFydC1vY3RhdmVNZXRob2RvbG9neS0yOTYiIGNsYXNzPSJub2RlIGRlZmF1bHQgZGVmYXVsdCI+PHJlY3QgaGVpZ2h0PSIzNCIgd2lkdGg9IjE2Ny40MjE4NzUiIHk9Ii0xNyIgeD0iLTgzLjcxMDkzNzUiIHJ5PSIwIiByeD0iMCIgc3R5bGU9IiIgY2xhc3M9ImJhc2ljIGxhYmVsLWNvbnRhaW5lciI+PC9yZWN0PjxnIHRyYW5zZm9ybT0idHJhbnNsYXRlKC03Ni4yMTA5Mzc1LCAtOS41KSIgc3R5bGU9IiIgY2xhc3M9ImxhYmVsIj48dGV4dCBzdHlsZT0iIj48dHNwYW4gY2xhc3M9InJvdyIgeD0iMCIgZHk9IjFlbSIgeG1sOnNwYWNlPSJwcmVzZXJ2ZSI+T0NUQVZFIG1ldGhvZG9sb2d5PC90c3Bhbj48L3RleHQ+PC9nPjwvZz48ZyB0cmFuc2Zvcm09InRyYW5zbGF0ZSg4OTguOTE0MDYyNSwgMTAxNikiIGlkPSJmbG93Y2hhcnQtcmlza0Fzc2Vzc21lbnRTb2Z0d2FyZS0yOTgiIGNsYXNzPSJub2RlIGRlZmF1bHQgZGVmYXVsdCI+PHJlY3QgaGVpZ2h0PSIzNCIgd2lkdGg9IjE5Ni4wNDY4NzUiIHk9Ii0xNyIgeD0iLTk4LjAyMzQzNzUiIHJ5PSIwIiByeD0iMCIgc3R5bGU9IiIgY2xhc3M9ImJhc2ljIGxhYmVsLWNvbnRhaW5lciI+PC9yZWN0PjxnIHRyYW5zZm9ybT0idHJhbnNsYXRlKC05MC41MjM0Mzc1LCAtOS41KSIgc3R5bGU9IiIgY2xhc3M9ImxhYmVsIj48dGV4dCBzdHlsZT0iIj48dHNwYW4gY2xhc3M9InJvdyIgeD0iMCIgZHk9IjFlbSIgeG1sOnNwYWNlPSJwcmVzZXJ2ZSI+UmlzayBhc3Nlc3NtZW50IHNvZnR3YXJlPC90c3Bhbj48L3RleHQ+PC9nPjwvZz48ZyB0cmFuc2Zvcm09InRyYW5zbGF0ZSg0ODMuOTMzNTkzNzUsIDExNDApIiBpZD0iZmxvd2NoYXJ0LWNoZW1pY2FsUGxhbnRMb2NhdGlvbklkZW50aWZpY2F0aW9uLTI2MiIgY2xhc3M9Im5vZGUgZGVmYXVsdCBkZWZhdWx0Ij48cmVjdCBoZWlnaHQ9IjM0IiB3aWR0aD0iMjg3LjUzMTI1IiB5PSItMTciIHg9Ii0xNDMuNzY1NjI1IiByeT0iMCIgcng9IjAiIHN0eWxlPSIiIGNsYXNzPSJiYXNpYyBsYWJlbC1jb250YWluZXIiPjwvcmVjdD48ZyB0cmFuc2Zvcm09InRyYW5zbGF0ZSgtMTM2LjI2NTYyNSwgLTkuNSkiIHN0eWxlPSIiIGNsYXNzPSJsYWJlbCI+PHRleHQgc3R5bGU9IiI+PHRzcGFuIGNsYXNzPSJyb3ciIHg9IjAiIGR5PSIxZW0iIHhtbDpzcGFjZT0icHJlc2VydmUiPkNoZW1pY2FsIHBsYW50IGxvY2F0aW9uIGlkZW50aWZpY2F0aW9uPC90c3Bhbj48L3RleHQ+PC9nPjwvZz48ZyB0cmFuc2Zvcm09InRyYW5zbGF0ZSgxMDguNDg4MjgxMjUsIDE0NzYpIiBpZD0iZmxvd2NoYXJ0LWhhemFyZElkZW50aWZpY2F0aW9uLTI1MyIgY2xhc3M9Im5vZGUgZGVmYXVsdCBkZWZhdWx0Ij48cmVjdCBoZWlnaHQ9IjM0IiB3aWR0aD0iMTY2Ljk3NjU2MjUiIHk9Ii0xNyIgeD0iLTgzLjQ4ODI4MTI1IiByeT0iMCIgcng9IjAiIHN0eWxlPSIiIGNsYXNzPSJiYXNpYyBsYWJlbC1jb250YWluZXIiPjwvcmVjdD48ZyB0cmFuc2Zvcm09InRyYW5zbGF0ZSgtNzUuOTg4MjgxMjUsIC05LjUpIiBzdHlsZT0iIiBjbGFzcz0ibGFiZWwiPjx0ZXh0IHN0eWxlPSIiPjx0c3BhbiBjbGFzcz0icm93IiB4PSIwIiBkeT0iMWVtIiB4bWw6c3BhY2U9InByZXNlcnZlIj5IYXphcmQgaWRlbnRpZmljYXRpb248L3RzcGFuPjwvdGV4dD48L2c+PC9nPjxnIHRyYW5zZm9ybT0idHJhbnNsYXRlKDQ4My45MzM1OTM3NSwgMTIyNCkiIGlkPSJmbG93Y2hhcnQtaGF6YXJkb3VzTWF0ZXJpYWxUcmFuc3BvcnRhdGlvblJvdXRlSWRlbnRpZmljYXRpb24tMjY0IiBjbGFzcz0ibm9kZSBkZWZhdWx0IGRlZmF1bHQiPjxyZWN0IGhlaWdodD0iMzQiIHdpZHRoPSI0MDcuNDE0MDYyNSIgeT0iLTE3IiB4PSItMjAzLjcwNzAzMTI1IiByeT0iMCIgcng9IjAiIHN0eWxlPSIiIGNsYXNzPSJiYXNpYyBsYWJlbC1jb250YWluZXIiPjwvcmVjdD48ZyB0cmFuc2Zvcm09InRyYW5zbGF0ZSgtMTk2LjIwNzAzMTI1LCAtOS41KSIgc3R5bGU9IiIgY2xhc3M9ImxhYmVsIj48dGV4dCBzdHlsZT0iIj48dHNwYW4gY2xhc3M9InJvdyIgeD0iMCIgZHk9IjFlbSIgeG1sOnNwYWNlPSJwcmVzZXJ2ZSI+SGF6YXJkb3VzIG1hdGVyaWFsIHRyYW5zcG9ydGF0aW9uIHJvdXRlIGlkZW50aWZpY2F0aW9uPC90c3Bhbj48L3RleHQ+PC9nPjwvZz48ZyB0cmFuc2Zvcm09InRyYW5zbGF0ZSg0ODMuOTMzNTkzNzUsIDEzMDgpIiBpZD0iZmxvd2NoYXJ0LW90aGVyUG90ZW50aWFsU291cmNlc09mQ2hlbWljYWxIYXphcmRzSWRlbnRpZmljYXRpb24tMjY2IiBjbGFzcz0ibm9kZSBkZWZhdWx0IGRlZmF1bHQiPjxyZWN0IGhlaWdodD0iMzQiIHdpZHRoPSI0MzMuOTE0MDYyNSIgeT0iLTE3IiB4PSItMjE2Ljk1NzAzMTI1IiByeT0iMCIgcng9IjAiIHN0eWxlPSIiIGNsYXNzPSJiYXNpYyBsYWJlbC1jb250YWluZXIiPjwvcmVjdD48ZyB0cmFuc2Zvcm09InRyYW5zbGF0ZSgtMjA5LjQ1NzAzMTI1LCAtOS41KSIgc3R5bGU9IiIgY2xhc3M9ImxhYmVsIj48dGV4dCBzdHlsZT0iIj48dHNwYW4gY2xhc3M9InJvdyIgeD0iMCIgZHk9IjFlbSIgeG1sOnNwYWNlPSJwcmVzZXJ2ZSI+T3RoZXIgcG90ZW50aWFsIHNvdXJjZXMgb2YgY2hlbWljYWwgaGF6YXJkcyBpZGVudGlmaWNhdGlvbjwvdHNwYW4+PC90ZXh0PjwvZz48L2c+PGcgdHJhbnNmb3JtPSJ0cmFuc2xhdGUoNDgzLjkzMzU5Mzc1LCAxMzkyKSIgaWQ9ImZsb3djaGFydC1pbmZvcm1hdGlvbkNvbGxlY3Rpb24tMjY4IiBjbGFzcz0ibm9kZSBkZWZhdWx0IGRlZmF1bHQiPjxyZWN0IGhlaWdodD0iMzQiIHdpZHRoPSIxNzQuNzQyMTg3NSIgeT0iLTE3IiB4PSItODcuMzcxMDkzNzUiIHJ5PSIwIiByeD0iMCIgc3R5bGU9IiIgY2xhc3M9ImJhc2ljIGxhYmVsLWNvbnRhaW5lciI+PC9yZWN0PjxnIHRyYW5zZm9ybT0idHJhbnNsYXRlKC03OS44NzEwOTM3NSwgLTkuNSkiIHN0eWxlPSIiIGNsYXNzPSJsYWJlbCI+PHRleHQgc3R5bGU9IiI+PHRzcGFuIGNsYXNzPSJyb3ciIHg9IjAiIGR5PSIxZW0iIHhtbDpzcGFjZT0icHJlc2VydmUiPkluZm9ybWF0aW9uIGNvbGxlY3Rpb248L3RzcGFuPjwvdGV4dD48L2c+PC9nPjxnIHRyYW5zZm9ybT0idHJhbnNsYXRlKDQ4My45MzM1OTM3NSwgMTQ3NikiIGlkPSJmbG93Y2hhcnQtd29ya3BsYWNlSW5zcGVjdGlvbnMtMjcwIiBjbGFzcz0ibm9kZSBkZWZhdWx0IGRlZmF1bHQiPjxyZWN0IGhlaWdodD0iMzQiIHdpZHRoPSIxNzUuODU5Mzc1IiB5PSItMTciIHg9Ii04Ny45Mjk2ODc1IiByeT0iMCIgcng9IjAiIHN0eWxlPSIiIGNsYXNzPSJiYXNpYyBsYWJlbC1jb250YWluZXIiPjwvcmVjdD48ZyB0cmFuc2Zvcm09InRyYW5zbGF0ZSgtODAuNDI5Njg3NSwgLTkuNSkiIHN0eWxlPSIiIGNsYXNzPSJsYWJlbCI+PHRleHQgc3R5bGU9IiI+PHRzcGFuIGNsYXNzPSJyb3ciIHg9IjAiIGR5PSIxZW0iIHhtbDpzcGFjZT0icHJlc2VydmUiPldvcmtwbGFjZSBpbnNwZWN0aW9uczwvdHNwYW4+PC90ZXh0PjwvZz48L2c+PGcgdHJhbnNmb3JtPSJ0cmFuc2xhdGUoNDgzLjkzMzU5Mzc1LCAxNTYwKSIgaWQ9ImZsb3djaGFydC1pbmNpZGVudEludmVzdGlnYXRpb25zLTI3MiIgY2xhc3M9Im5vZGUgZGVmYXVsdCBkZWZhdWx0Ij48cmVjdCBoZWlnaHQ9IjM0IiB3aWR0aD0iMTc3LjE0ODQzNzUiIHk9Ii0xNyIgeD0iLTg4LjU3NDIxODc1IiByeT0iMCIgcng9IjAiIHN0eWxlPSIiIGNsYXNzPSJiYXNpYyBsYWJlbC1jb250YWluZXIiPjwvcmVjdD48ZyB0cmFuc2Zvcm09InRyYW5zbGF0ZSgtODEuMDc0MjE4NzUsIC05LjUpIiBzdHlsZT0iIiBjbGFzcz0ibGFiZWwiPjx0ZXh0IHN0eWxlPSIiPjx0c3BhbiBjbGFzcz0icm93IiB4PSIwIiBkeT0iMWVtIiB4bWw6c3BhY2U9InByZXNlcnZlIj5JbmNpZGVudCBpbnZlc3RpZ2F0aW9uczwvdHNwYW4+PC90ZXh0PjwvZz48L2c+PGcgdHJhbnNmb3JtPSJ0cmFuc2xhdGUoNDgzLjkzMzU5Mzc1LCAxNjQ0KSIgaWQ9ImZsb3djaGFydC10cmVuZEFuYWx5c2lzLTI3NCIgY2xhc3M9Im5vZGUgZGVmYXVsdCBkZWZhdWx0Ij48cmVjdCBoZWlnaHQ9IjM0IiB3aWR0aD0iMTE3LjE1NjI1IiB5PSItMTciIHg9Ii01OC41NzgxMjUiIHJ5PSIwIiByeD0iMCIgc3R5bGU9IiIgY2xhc3M9ImJhc2ljIGxhYmVsLWNvbnRhaW5lciI+PC9yZWN0PjxnIHRyYW5zZm9ybT0idHJhbnNsYXRlKC01MS4wNzgxMjUsIC05LjUpIiBzdHlsZT0iIiBjbGFzcz0ibGFiZWwiPjx0ZXh0IHN0eWxlPSIiPjx0c3BhbiBjbGFzcz0icm93IiB4PSIwIiBkeT0iMWVtIiB4bWw6c3BhY2U9InByZXNlcnZlIj5UcmVuZCBhbmFseXNpczwvdHNwYW4+PC90ZXh0PjwvZz48L2c+PGcgdHJhbnNmb3JtPSJ0cmFuc2xhdGUoNDgzLjkzMzU5Mzc1LCAxNzI4KSIgaWQ9ImZsb3djaGFydC1lbWVyZ2VuY3lTaXR1YXRpb25Db25zaWRlcmF0aW9uLTI3NiIgY2xhc3M9Im5vZGUgZGVmYXVsdCBkZWZhdWx0Ij48cmVjdCBoZWlnaHQ9IjM0IiB3aWR0aD0iMjYyLjU2MjUiIHk9Ii0xNyIgeD0iLTEzMS4yODEyNSIgcnk9IjAiIHJ4PSIwIiBzdHlsZT0iIiBjbGFzcz0iYmFzaWMgbGFiZWwtY29udGFpbmVyIj48L3JlY3Q+PGcgdHJhbnNmb3JtPSJ0cmFuc2xhdGUoLTEyMy43ODEyNSwgLTkuNSkiIHN0eWxlPSIiIGNsYXNzPSJsYWJlbCI+PHRleHQgc3R5bGU9IiI+PHRzcGFuIGNsYXNzPSJyb3ciIHg9IjAiIGR5PSIxZW0iIHhtbDpzcGFjZT0icHJlc2VydmUiPkVtZXJnZW5jeSBzaXR1YXRpb24gY29uc2lkZXJhdGlvbjwvdHNwYW4+PC90ZXh0PjwvZz48L2c+PGcgdHJhbnNmb3JtPSJ0cmFuc2xhdGUoNDgzLjkzMzU5Mzc1LCAxODEyKSIgaWQ9ImZsb3djaGFydC1yZW1vdGVTZW5zaW5nVGVjaG5vbG9naWVzLTI3OCIgY2xhc3M9Im5vZGUgZGVmYXVsdCBkZWZhdWx0Ij48cmVjdCBoZWlnaHQ9IjM0IiB3aWR0aD0iMjIxLjQxNDA2MjUiIHk9Ii0xNyIgeD0iLTExMC43MDcwMzEyNSIgcnk9IjAiIHJ4PSIwIiBzdHlsZT0iIiBjbGFzcz0iYmFzaWMgbGFiZWwtY29udGFpbmVyIj48L3JlY3Q+PGcgdHJhbnNmb3JtPSJ0cmFuc2xhdGUoLTEwMy4yMDcwMzEyNSwgLTkuNSkiIHN0eWxlPSIiIGNsYXNzPSJsYWJlbCI+PHRleHQgc3R5bGU9IiI+PHRzcGFuIGNsYXNzPSJyb3ciIHg9IjAiIGR5PSIxZW0iIHhtbDpzcGFjZT0icHJlc2VydmUiPlJlbW90ZSBzZW5zaW5nIHRlY2hub2xvZ2llczwvdHNwYW4+PC90ZXh0PjwvZz48L2c+PGcgdHJhbnNmb3JtPSJ0cmFuc2xhdGUoNDgzLjkzMzU5Mzc1LCAxODk2KSIgaWQ9ImZsb3djaGFydC1lYXJ0aE9ic2VydmF0aW9uVGVjaG5vbG9naWVzLTI4MCIgY2xhc3M9Im5vZGUgZGVmYXVsdCBkZWZhdWx0Ij48cmVjdCBoZWlnaHQ9IjM0IiB3aWR0aD0iMjM3LjAwNzgxMjUiIHk9Ii0xNyIgeD0iLTExOC41MDM5MDYyNSIgcnk9IjAiIHJ4PSIwIiBzdHlsZT0iIiBjbGFzcz0iYmFzaWMgbGFiZWwtY29udGFpbmVyIj48L3JlY3Q+PGcgdHJhbnNmb3JtPSJ0cmFuc2xhdGUoLTExMS4wMDM5MDYyNSwgLTkuNSkiIHN0eWxlPSIiIGNsYXNzPSJsYWJlbCI+PHRleHQgc3R5bGU9IiI+PHRzcGFuIGNsYXNzPSJyb3ciIHg9IjAiIGR5PSIxZW0iIHhtbDpzcGFjZT0icHJlc2VydmUiPkVhcnRoIG9ic2VydmF0aW9uIHRlY2hub2xvZ2llczwvdHNwYW4+PC90ZXh0PjwvZz48L2c+PC9nPjwvZz48L2c+PC9zdmc+;" vertex="1" parent="1">
            <mxGeometry x="1180" y="-1137" width="2119.3125" height="1964" as="geometry" />
          </mxCell>
        </UserObject>
      </root>
    </mxGraphModel>
  </diagram>
</mxfile>
